<svg width="120" height="120" viewBox="0 0 120 120" fill="none" xmlns="http://www.w3.org/2000/svg">
<g clip-path="url(#clip0_39_4784)">
<path opacity="0.2" d="M60.185 118.371C27.8346 118.371 1.55457 92.0913 1.55457 59.7409C1.55457 27.3905 27.8346 1.11043 60.185 1.11043C92.5354 1.11043 118.816 27.3905 118.816 59.7409C118.816 92.0913 92.4614 118.371 60.185 118.371ZM60.185 3.40531C29.0931 3.40531 3.84944 28.723 3.84944 59.7409C3.84944 90.7588 29.1672 116.076 60.185 116.076C91.2029 116.076 116.521 90.7588 116.521 59.7409C116.521 28.723 91.277 3.40531 60.185 3.40531Z" fill="white"/>
<path opacity="0.75" d="M18.8032 80.6909C15.4719 74.1764 13.7693 67.0697 13.7693 59.6669C13.7693 42.7144 23.0228 27.0944 37.8285 18.9513L38.1246 19.4695C23.467 27.5386 14.3615 42.9365 14.3615 59.6669C14.3615 66.9957 15.9901 73.9543 19.3214 80.3948L18.8032 80.6909Z" fill="white"/>
<path opacity="0.75" d="M60.2591 106.157C52.9303 106.157 45.8976 104.528 39.4571 101.271L39.6792 100.753C46.1196 104.01 53.0043 105.638 60.2591 105.638C76.3973 105.638 91.0549 97.4213 99.4941 83.6521L100.012 83.9482C91.499 97.8655 76.6193 106.157 60.2591 106.157Z" fill="white"/>
<path opacity="0.75" d="M105.787 52.9303C102.529 30.5737 82.9858 13.6953 60.3331 13.6953V13.103C83.2819 13.103 103.048 30.2036 106.379 52.8563L105.787 52.9303Z" fill="white"/>
<path opacity="0.6" d="M60.185 17.3967C36.7921 17.3967 17.7668 36.3479 17.7668 59.7409C17.7668 83.1339 36.718 102.085 60.111 102.085C83.504 102.085 102.455 83.1339 102.455 59.7409C102.529 36.3479 83.578 17.3967 60.185 17.3967ZM60.185 99.7902C38.0506 99.7902 20.1357 81.8754 20.1357 59.7409C20.1357 37.6064 38.0506 19.6915 60.185 19.6915C82.3195 19.6915 100.234 37.6064 100.234 59.7409C100.234 81.8754 82.3195 99.7902 60.185 99.7902Z" fill="white"/>
<g opacity="0.5">
<path d="M60.037 14.6576C60.7321 14.6576 61.2955 14.0942 61.2955 13.3991C61.2955 12.7041 60.7321 12.1407 60.037 12.1407C59.342 12.1407 58.7786 12.7041 58.7786 13.3991C58.7786 14.0942 59.342 14.6576 60.037 14.6576Z" fill="white"/>
<path d="M68.6984 15.4719C69.3934 15.4719 69.9568 14.9085 69.9568 14.2135C69.9568 13.5184 69.3934 12.955 68.6984 12.955C68.0033 12.955 67.4399 13.5184 67.4399 14.2135C67.4399 14.9085 68.0033 15.4719 68.6984 15.4719Z" fill="white"/>
<path d="M72.918 16.5083C73.613 16.5083 74.1764 15.9449 74.1764 15.2498C74.1764 14.5548 73.613 13.9914 72.918 13.9914C72.2229 13.9914 71.6595 14.5548 71.6595 15.2498C71.6595 15.9449 72.2229 16.5083 72.918 16.5083Z" fill="white"/>
<path d="M77.0636 17.8408C77.7586 17.8408 78.3221 17.2774 78.3221 16.5824C78.3221 15.8873 77.7586 15.3239 77.0636 15.3239C76.3686 15.3239 75.8051 15.8873 75.8051 16.5824C75.8051 17.2774 76.3686 17.8408 77.0636 17.8408Z" fill="white"/>
<path d="M80.9871 19.6175C81.6821 19.6175 82.2455 19.0541 82.2455 18.359C82.2455 17.664 81.6821 17.1006 80.9871 17.1006C80.292 17.1006 79.7286 17.664 79.7286 18.359C79.7286 19.0541 80.292 19.6175 80.9871 19.6175Z" fill="white"/>
<path d="M84.7625 21.7643C85.4575 21.7643 86.021 21.2009 86.021 20.5059C86.021 19.8108 85.4575 19.2474 84.7625 19.2474C84.0675 19.2474 83.504 19.8108 83.504 20.5059C83.504 21.2009 84.0675 21.7643 84.7625 21.7643Z" fill="white"/>
<path d="M94.6823 30.1295C95.3774 30.1295 95.9408 29.5661 95.9408 28.8711C95.9408 28.176 95.3774 27.6126 94.6823 27.6126C93.9873 27.6126 93.4238 28.176 93.4238 28.8711C93.4238 29.5661 93.9873 30.1295 94.6823 30.1295Z" fill="white"/>
<path d="M97.4214 33.5349C98.1164 33.5349 98.6799 32.9714 98.6799 32.2764C98.6799 31.5813 98.1164 31.0179 97.4214 31.0179C96.7264 31.0179 96.1629 31.5813 96.1629 32.2764C96.1629 32.9714 96.7264 33.5349 97.4214 33.5349Z" fill="white"/>
<path d="M99.7162 84.8365C100.411 84.8365 100.975 84.2731 100.975 83.578C100.975 82.883 100.411 82.3195 99.7162 82.3195C99.0212 82.3195 98.4578 82.883 98.4578 83.578C98.4578 84.2731 99.0212 84.8365 99.7162 84.8365Z" fill="white"/>
<path d="M94.5343 91.7952C95.2293 91.7952 95.7928 91.2318 95.7928 90.5367C95.7928 89.8417 95.2293 89.2782 94.5343 89.2782C93.8393 89.2782 93.2758 89.8417 93.2758 90.5367C93.2758 91.2318 93.8393 91.7952 94.5343 91.7952Z" fill="white"/>
<path d="M91.4991 94.8304C92.1941 94.8304 92.7576 94.2669 92.7576 93.5719C92.7576 92.8768 92.1941 92.3134 91.4991 92.3134C90.804 92.3134 90.2406 92.8768 90.2406 93.5719C90.2406 94.2669 90.804 94.8304 91.4991 94.8304Z" fill="white"/>
<path d="M88.1678 97.6434C88.8629 97.6434 89.4263 97.08 89.4263 96.3849C89.4263 95.6899 88.8629 95.1265 88.1678 95.1265C87.4728 95.1265 86.9094 95.6899 86.9094 96.3849C86.9094 97.08 87.4728 97.6434 88.1678 97.6434Z" fill="white"/>
<path d="M84.5405 100.086C85.2355 100.086 85.7989 99.5229 85.7989 98.8279C85.7989 98.1328 85.2355 97.5694 84.5405 97.5694C83.8454 97.5694 83.282 98.1328 83.282 98.8279C83.282 99.5229 83.8454 100.086 84.5405 100.086Z" fill="white"/>
<path d="M80.765 102.233C81.4601 102.233 82.0235 101.67 82.0235 100.975C82.0235 100.28 81.4601 99.7162 80.765 99.7162C80.07 99.7162 79.5065 100.28 79.5065 100.975C79.5065 101.67 80.07 102.233 80.765 102.233Z" fill="white"/>
<path d="M68.4023 106.305C69.0973 106.305 69.6608 105.741 69.6608 105.046C69.6608 104.351 69.0973 103.788 68.4023 103.788C67.7072 103.788 67.1438 104.351 67.1438 105.046C67.1438 105.741 67.7072 106.305 68.4023 106.305Z" fill="white"/>
<path d="M64.1086 106.823C64.8037 106.823 65.3671 106.26 65.3671 105.564C65.3671 104.869 64.8037 104.306 64.1086 104.306C63.4136 104.306 62.8502 104.869 62.8502 105.564C62.8502 106.26 63.4136 106.823 64.1086 106.823Z" fill="white"/>
<path d="M18.9513 81.5052C19.6463 81.5052 20.2098 80.9418 20.2098 80.2468C20.2098 79.5517 19.6463 78.9883 18.9513 78.9883C18.2563 78.9883 17.6928 79.5517 17.6928 80.2468C17.6928 80.9418 18.2563 81.5052 18.9513 81.5052Z" fill="white"/>
<path d="M15.8421 73.4361C16.5371 73.4361 17.1006 72.8727 17.1006 72.1777C17.1006 71.4826 16.5371 70.9192 15.8421 70.9192C15.1471 70.9192 14.5836 71.4826 14.5836 72.1777C14.5836 72.8727 15.1471 73.4361 15.8421 73.4361Z" fill="white"/>
<path d="M14.8798 69.1425C15.5748 69.1425 16.1382 68.5791 16.1382 67.884C16.1382 67.189 15.5748 66.6255 14.8798 66.6255C14.1847 66.6255 13.6213 67.189 13.6213 67.884C13.6213 68.5791 14.1847 69.1425 14.8798 69.1425Z" fill="white"/>
<path d="M14.2875 64.8489C14.9826 64.8489 15.546 64.2854 15.546 63.5904C15.546 62.8953 14.9826 62.3319 14.2875 62.3319C13.5925 62.3319 13.0291 62.8953 13.0291 63.5904C13.0291 64.2854 13.5925 64.8489 14.2875 64.8489Z" fill="white"/>
<path d="M14.1395 60.5552C14.8345 60.5552 15.3979 59.9918 15.3979 59.2967C15.3979 58.6017 14.8345 58.0382 14.1395 58.0382C13.4444 58.0382 12.881 58.6017 12.881 59.2967C12.881 59.9918 13.4444 60.5552 14.1395 60.5552Z" fill="white"/>
<path d="M14.3616 56.1875C15.0566 56.1875 15.6201 55.6241 15.6201 54.9291C15.6201 54.234 15.0566 53.6706 14.3616 53.6706C13.6665 53.6706 13.1031 54.234 13.1031 54.9291C13.1031 55.6241 13.6665 56.1875 14.3616 56.1875Z" fill="white"/>
<path d="M17.4708 43.6027C18.1658 43.6027 18.7292 43.0393 18.7292 42.3442C18.7292 41.6492 18.1658 41.0858 17.4708 41.0858C16.7757 41.0858 16.2123 41.6492 16.2123 42.3442C16.2123 43.0393 16.7757 43.6027 17.4708 43.6027Z" fill="white"/>
<path d="M19.2474 39.6792C19.9425 39.6792 20.5059 39.1158 20.5059 38.4207C20.5059 37.7257 19.9425 37.1622 19.2474 37.1622C18.5524 37.1622 17.989 37.7257 17.989 38.4207C17.989 39.1158 18.5524 39.6792 19.2474 39.6792Z" fill="white"/>
</g>
<g opacity="0.5">
<path d="M60.9994 115.706C61.2215 115.706 61.4436 115.706 61.6656 115.706L61.7397 119.926C61.5176 119.926 61.2955 119.926 61.0734 119.926L60.9994 115.706Z" fill="white"/>
<path d="M62.702 115.706C62.9241 115.706 63.1462 115.706 63.3683 115.632L63.5904 119.852C63.3683 119.852 63.1462 119.852 62.9241 119.926L62.702 115.706Z" fill="white"/>
<path d="M64.4047 115.558C64.6267 115.558 64.8488 115.558 65.0709 115.484L65.4411 119.704C65.219 119.704 64.9969 119.704 64.7748 119.778L64.4047 115.558Z" fill="white"/>
<path d="M66.1074 115.41C66.3294 115.41 66.5515 115.336 66.7736 115.336L67.2918 119.556C67.0697 119.556 66.8476 119.63 66.6256 119.63L66.1074 115.41Z" fill="white"/>
<path d="M54.0407 4.21962C53.8186 4.21962 53.5965 4.29365 53.3745 4.29365L52.8563 0.0740284C53.1524 0.0740284 53.3004 0 53.5225 0L54.0407 4.21962Z" fill="white"/>
<path d="M52.3381 4.44171C52.116 4.44171 51.8939 4.51574 51.6718 4.51574L51.0796 0.29612C51.3017 0.29612 51.5238 0.222092 51.7458 0.222092L52.3381 4.44171Z" fill="white"/>
<path d="M67.81 115.188C68.0321 115.188 68.2542 115.114 68.4763 115.114L69.0685 119.334C68.8464 119.334 68.6243 119.408 68.4022 119.408L67.81 115.188Z" fill="white"/>
<path d="M50.6354 4.66379C50.4133 4.66379 50.1913 4.73782 49.9692 4.81185L49.2289 0.66626C49.451 0.592232 49.6731 0.592232 49.8951 0.518204L50.6354 4.66379Z" fill="white"/>
<path d="M69.5126 114.966C69.7347 114.966 69.9568 114.892 70.1789 114.818L70.9192 118.964C70.6971 119.038 70.475 119.038 70.2529 119.112L69.5126 114.966Z" fill="white"/>
<path d="M48.9328 4.9599C48.7107 5.03393 48.4886 5.03393 48.2665 5.10796L47.3782 0.962372C47.6003 0.888344 47.8223 0.888344 48.0444 0.814316L48.9328 4.9599Z" fill="white"/>
<path d="M71.2153 114.596C71.4374 114.522 71.6594 114.522 71.8815 114.448L72.7699 118.593C72.5478 118.667 72.3257 118.667 72.1036 118.742L71.2153 114.596Z" fill="white"/>
<path d="M47.3042 5.33004C47.0821 5.40407 46.86 5.40407 46.6379 5.47809L45.6755 1.3325C45.8976 1.25848 46.1197 1.25848 46.3418 1.18445L47.3042 5.33004Z" fill="white"/>
<path d="M72.8439 114.226C73.066 114.152 73.2881 114.152 73.5102 114.078L74.4726 118.223C74.2505 118.297 74.0284 118.297 73.8063 118.371L72.8439 114.226Z" fill="white"/>
<path d="M74.4725 113.856C74.6946 113.782 74.9167 113.708 75.1388 113.708L76.2492 117.779C76.0271 117.853 75.805 117.927 75.583 117.927L74.4725 113.856Z" fill="white"/>
<path d="M45.6755 5.77421C45.4534 5.84824 45.2313 5.92227 45.0092 5.92227L43.8988 1.85071C44.1209 1.77668 44.343 1.70265 44.5651 1.70265L45.6755 5.77421Z" fill="white"/>
<path d="M76.1752 113.411C76.3973 113.337 76.6193 113.263 76.7674 113.189L78.0259 117.261C77.8038 117.335 77.5817 117.409 77.4337 117.483L76.1752 113.411Z" fill="white"/>
<path d="M43.9728 6.21838C43.7508 6.29241 43.5287 6.36644 43.3806 6.44047L42.1221 2.36891C42.3442 2.29488 42.5663 2.22085 42.7144 2.14682L43.9728 6.21838Z" fill="white"/>
<path d="M42.3442 6.73658C42.1221 6.81061 41.9001 6.88463 41.752 6.95866L40.3455 2.96113C40.5675 2.8871 40.7896 2.81307 40.9377 2.73904L42.3442 6.73658Z" fill="white"/>
<path d="M77.8038 112.819C78.0259 112.745 78.248 112.671 78.3961 112.597L79.7286 116.595C79.5065 116.669 79.2844 116.743 79.1363 116.817L77.8038 112.819Z" fill="white"/>
<path d="M40.7156 7.32882C40.4935 7.40284 40.3455 7.47687 40.1234 7.5509L38.6428 3.55337C38.8649 3.47934 39.013 3.40531 39.235 3.33128L40.7156 7.32882Z" fill="white"/>
<path d="M79.3584 112.301C79.5805 112.227 79.8026 112.153 79.9506 112.079L81.4312 116.076C81.2091 116.151 81.0611 116.225 80.839 116.299L79.3584 112.301Z" fill="white"/>
<path d="M39.161 7.92103C38.939 7.99506 38.7169 8.06909 38.5688 8.14312L36.9402 4.21961C37.1623 4.14558 37.3844 4.07156 37.5324 3.99753L39.161 7.92103Z" fill="white"/>
<path d="M80.9871 111.709C81.2091 111.635 81.4312 111.561 81.5793 111.487L83.2079 115.41C82.9858 115.484 82.8378 115.558 82.6157 115.632L80.9871 111.709Z" fill="white"/>
<path d="M82.5416 110.969C82.7637 110.894 82.9118 110.82 83.1339 110.672L84.8365 114.522C84.6144 114.596 84.4664 114.67 84.2443 114.818L82.5416 110.969Z" fill="white"/>
<path d="M37.6064 8.5873C37.3843 8.66133 37.2363 8.73536 37.0142 8.88341L35.3115 5.03394C35.5336 4.95991 35.6817 4.88588 35.9037 4.73782L37.6064 8.5873Z" fill="white"/>
<path d="M36.0518 9.25354C35.8297 9.32757 35.6817 9.47563 35.4596 9.54966L33.6089 5.70018C33.831 5.62615 33.979 5.4781 34.2011 5.40407L36.0518 9.25354Z" fill="white"/>
<path d="M84.0963 110.302C84.3183 110.228 84.4664 110.08 84.6885 110.006L86.5392 113.856C86.3171 113.93 86.169 114.078 85.947 114.152L84.0963 110.302Z" fill="white"/>
<path d="M85.6508 109.562C85.8729 109.488 86.021 109.34 86.243 109.266L88.2418 113.041C88.0197 113.115 87.8717 113.263 87.6496 113.337L85.6508 109.562Z" fill="white"/>
<path d="M34.4972 10.0679C34.2752 10.1419 34.1271 10.29 33.905 10.364L31.9062 6.58853C32.1283 6.5145 32.2764 6.36645 32.4985 6.29242L34.4972 10.0679Z" fill="white"/>
<path d="M32.9426 10.8822C32.7205 10.9562 32.5725 11.1043 32.3504 11.1783L30.2776 7.47687C30.4997 7.40284 30.6477 7.25478 30.8698 7.18076L32.9426 10.8822Z" fill="white"/>
<path d="M87.1314 108.748C87.3535 108.674 87.5016 108.526 87.7236 108.452L89.7964 112.153C89.5743 112.227 89.4263 112.375 89.2042 112.449L87.1314 108.748Z" fill="white"/>
<path d="M31.4621 11.6965C31.24 11.8445 31.0919 11.9186 30.8698 12.0666L28.649 8.43923C28.8711 8.29118 29.0191 8.21715 29.2412 8.06909L31.4621 11.6965Z" fill="white"/>
<path d="M88.6119 107.859C88.834 107.711 88.9821 107.637 89.2042 107.489L91.425 111.117C91.2029 111.265 91.0549 111.339 90.8328 111.487L88.6119 107.859Z" fill="white"/>
<path d="M90.0925 106.971C90.2406 106.823 90.4627 106.749 90.6107 106.601L92.9056 110.154C92.7576 110.302 92.5355 110.376 92.3874 110.524L90.0925 106.971Z" fill="white"/>
<path d="M30.0555 12.5848C29.9075 12.7329 29.6854 12.8069 29.5373 12.955L27.2424 9.40161C27.3905 9.25355 27.6126 9.17952 27.7606 9.03146L30.0555 12.5848Z" fill="white"/>
<path d="M91.4991 106.009C91.6471 105.861 91.8692 105.787 92.0173 105.638L94.4602 109.118C94.3122 109.266 94.0901 109.34 93.942 109.488L91.4991 106.009Z" fill="white"/>
<path d="M28.575 13.5472C28.4269 13.6952 28.2048 13.7693 28.0568 13.9173L25.6138 10.438C25.7619 10.2899 25.984 10.2159 26.132 10.0679L28.575 13.5472Z" fill="white"/>
<path d="M27.2424 14.5096C27.0944 14.6576 26.8723 14.7317 26.7242 14.8797L24.2073 11.4744C24.3553 11.3263 24.5774 11.2523 24.7255 11.1043L27.2424 14.5096Z" fill="white"/>
<path d="M92.9056 105.046C93.0537 104.898 93.2758 104.824 93.4238 104.676L95.9408 108.081C95.7928 108.229 95.5707 108.378 95.4226 108.452L92.9056 105.046Z" fill="white"/>
<path d="M94.2381 104.01C94.3862 103.862 94.6082 103.714 94.7563 103.64L97.3473 106.971C97.1992 107.119 96.9771 107.267 96.8291 107.341L94.2381 104.01Z" fill="white"/>
<path d="M25.8359 15.546C25.6878 15.694 25.4657 15.8421 25.3177 15.9161L22.7267 12.5848C22.8747 12.4368 23.0968 12.2887 23.2449 12.2147L25.8359 15.546Z" fill="white"/>
<path d="M24.5034 16.5824C24.3553 16.7304 24.2073 16.8785 23.9852 17.0265L21.2462 13.7693C21.3942 13.6212 21.5423 13.4732 21.7644 13.3251L24.5034 16.5824Z" fill="white"/>
<path d="M95.5706 102.973C95.7187 102.825 95.8667 102.677 96.0888 102.529L98.8279 105.787C98.6798 105.935 98.5318 106.083 98.3097 106.231L95.5706 102.973Z" fill="white"/>
<path d="M96.9031 101.863C97.0512 101.715 97.2733 101.567 97.4213 101.419L100.234 104.602C100.086 104.75 99.8643 104.898 99.7162 105.046L96.9031 101.863Z" fill="white"/>
<path d="M23.1709 17.6928C23.0228 17.8408 22.8007 17.9889 22.6527 18.137L19.8396 14.9537C19.9877 14.8057 20.2097 14.6576 20.3578 14.5096L23.1709 17.6928Z" fill="white"/>
<path d="M98.1616 100.679C98.3097 100.531 98.4577 100.382 98.6058 100.234L101.493 103.344C101.345 103.492 101.197 103.64 101.049 103.788L98.1616 100.679Z" fill="white"/>
<path d="M21.9124 18.8772C21.7643 19.0253 21.6163 19.1733 21.4682 19.3214L18.5071 16.2122C18.6551 16.0641 18.8032 15.9161 18.9513 15.768L21.9124 18.8772Z" fill="white"/>
<path d="M99.3461 99.5682C99.4941 99.4201 99.6422 99.272 99.7902 99.124L102.825 102.159C102.677 102.307 102.529 102.455 102.381 102.603L99.3461 99.5682Z" fill="white"/>
<path d="M20.6539 20.0617C20.5058 20.2097 20.3578 20.3578 20.2097 20.5059L17.1746 17.4707C17.3226 17.3226 17.4707 17.1746 17.6187 17.0265L20.6539 20.0617Z" fill="white"/>
<path d="M19.4694 21.2461C19.3214 21.3942 19.1733 21.5423 19.0253 21.6903L15.9161 18.8032C16.0641 18.6552 16.2122 18.5071 16.3602 18.359L19.4694 21.2461Z" fill="white"/>
<path d="M100.531 98.3097C100.679 98.1616 100.827 98.0136 100.975 97.8655L104.084 100.753C103.936 100.901 103.788 101.049 103.64 101.197L100.531 98.3097Z" fill="white"/>
<path d="M101.715 97.0512C101.863 96.9031 102.011 96.7551 102.159 96.533L105.342 99.3461C105.194 99.4941 105.046 99.6422 104.898 99.8643L101.715 97.0512Z" fill="white"/>
<path d="M18.359 22.5046C18.211 22.6527 18.0629 22.8007 17.9148 23.0228L14.7316 20.2097C14.8797 20.0617 15.0277 19.9136 15.1758 19.6915L18.359 22.5046Z" fill="white"/>
<path d="M102.825 95.7927C102.973 95.6446 103.122 95.4226 103.27 95.2745L106.527 98.0136C106.379 98.1616 106.231 98.3837 106.083 98.5318L102.825 95.7927Z" fill="white"/>
<path d="M17.1746 23.7631C17.0265 23.9112 16.8784 24.1333 16.7304 24.2813L13.4731 21.5423C13.6212 21.3942 13.7693 21.1721 13.9173 21.0241L17.1746 23.7631Z" fill="white"/>
<path d="M16.1382 25.0956C15.9901 25.2437 15.8421 25.4658 15.694 25.6138L12.3627 23.0228C12.5108 22.8748 12.6588 22.6527 12.8069 22.5046L16.1382 25.0956Z" fill="white"/>
<path d="M103.936 94.4602C104.084 94.3122 104.232 94.0901 104.38 93.942L107.711 96.533C107.563 96.6811 107.415 96.9032 107.267 97.0512L103.936 94.4602Z" fill="white"/>
<path d="M15.1018 26.5022C14.9537 26.6502 14.8797 26.8723 14.7317 27.0204L11.3264 24.5034C11.4744 24.3553 11.5484 24.1333 11.6965 23.9852L15.1018 26.5022Z" fill="white"/>
<path d="M104.972 93.0537C105.12 92.9056 105.194 92.6835 105.342 92.5355L108.748 95.0524C108.6 95.2005 108.526 95.4226 108.378 95.5706L104.972 93.0537Z" fill="white"/>
<path d="M14.0654 27.8347C13.9174 27.9827 13.8433 28.2048 13.6953 28.3529L10.2159 25.984C10.364 25.8359 10.438 25.6138 10.5861 25.4658L14.0654 27.8347Z" fill="white"/>
<path d="M105.935 91.7212C106.083 91.5731 106.157 91.351 106.305 91.203L109.784 93.5719C109.636 93.7199 109.562 93.942 109.414 94.0901L105.935 91.7212Z" fill="white"/>
<path d="M13.103 29.3152C12.955 29.4633 12.8809 29.6854 12.7329 29.8334L9.1795 27.5386C9.32756 27.3905 9.40159 27.1684 9.54965 27.0204L13.103 29.3152Z" fill="white"/>
<path d="M106.897 90.3146C107.045 90.1666 107.119 89.9445 107.267 89.7964L110.82 92.0913C110.672 92.2394 110.598 92.4614 110.45 92.6095L106.897 90.3146Z" fill="white"/>
<path d="M107.785 88.8341C107.933 88.612 108.007 88.4639 108.081 88.2418L111.709 90.3886C111.561 90.6107 111.487 90.7588 111.413 90.9809L107.785 88.8341Z" fill="white"/>
<path d="M12.2147 30.7218C12.0666 30.9439 11.9926 31.0919 11.9186 31.314L8.2912 29.1672C8.43926 28.9451 8.51328 28.797 8.58731 28.575L12.2147 30.7218Z" fill="white"/>
<path d="M11.3263 32.2023C11.2523 32.4244 11.1042 32.5725 11.0302 32.7946L7.3288 30.7218C7.40282 30.4997 7.55088 30.3516 7.62491 30.1295L11.3263 32.2023Z" fill="white"/>
<path d="M108.674 87.3535C108.748 87.1314 108.896 86.9833 108.97 86.7613L112.671 88.8341C112.597 89.0561 112.449 89.2042 112.375 89.4263L108.674 87.3535Z" fill="white"/>
<path d="M109.488 85.8729C109.562 85.6508 109.71 85.5028 109.784 85.2807L113.56 87.2054C113.486 87.4275 113.337 87.5756 113.263 87.7977L109.488 85.8729Z" fill="white"/>
<path d="M10.5121 33.6829C10.438 33.905 10.29 34.0531 10.2159 34.2751L6.44049 32.3504C6.51452 32.1283 6.66258 31.9803 6.7366 31.7582L10.5121 33.6829Z" fill="white"/>
<path d="M9.77175 35.2375C9.69772 35.4596 9.62369 35.6076 9.47564 35.8297L5.62616 33.979C5.70019 33.7569 5.77422 33.6089 5.92227 33.3868L9.77175 35.2375Z" fill="white"/>
<path d="M110.228 84.3923C110.302 84.1703 110.376 84.0222 110.524 83.8001L114.374 85.6508C114.3 85.8729 114.226 86.021 114.078 86.243L110.228 84.3923Z" fill="white"/>
<path d="M9.03145 36.7921C8.95742 37.0142 8.80937 37.1622 8.73534 37.3843L4.88586 35.6817C4.95989 35.4596 5.03392 35.3115 5.18198 35.0894L9.03145 36.7921Z" fill="white"/>
<path d="M110.969 82.8377C111.043 82.6157 111.191 82.4676 111.265 82.2455L115.114 83.9482C115.04 84.1703 114.966 84.3183 114.818 84.5404L110.969 82.8377Z" fill="white"/>
<path d="M8.36519 38.3467C8.29117 38.5688 8.21714 38.7168 8.14311 38.9389L4.2196 37.3103C4.29363 37.0882 4.36766 36.9402 4.44169 36.7181L8.36519 38.3467Z" fill="white"/>
<path d="M111.635 81.2091C111.709 80.987 111.783 80.839 111.857 80.6169L115.78 82.2455C115.706 82.4676 115.632 82.6157 115.558 82.8377L111.635 81.2091Z" fill="white"/>
<path d="M112.301 79.6545C112.375 79.4325 112.449 79.2104 112.523 79.0623L116.521 80.5429C116.447 80.765 116.373 80.9871 116.299 81.1351L112.301 79.6545Z" fill="white"/>
<path d="M7.69893 39.9753C7.6249 40.1974 7.55087 40.4195 7.47684 40.5675L3.47931 39.087C3.55334 38.8649 3.62737 38.6428 3.70139 38.4948L7.69893 39.9753Z" fill="white"/>
<path d="M112.893 78.0259C112.967 77.8038 113.041 77.5817 113.115 77.4337L117.113 78.7662C117.039 78.9883 116.965 79.2104 116.891 79.3584L112.893 78.0259Z" fill="white"/>
<path d="M7.1067 41.5299C7.03267 41.752 6.95865 41.9741 6.88462 42.1221L2.88708 40.7896C2.96111 40.5675 3.03514 40.3455 3.10917 40.1974L7.1067 41.5299Z" fill="white"/>
<path d="M6.58851 43.1585C6.51449 43.3806 6.44046 43.6027 6.44046 43.8248L2.3689 42.5663C2.44292 42.3442 2.51695 42.1221 2.51695 41.9001L6.58851 43.1585Z" fill="white"/>
<path d="M113.411 76.4713C113.486 76.2492 113.56 76.0271 113.56 75.8051L117.631 77.0635C117.557 77.2856 117.483 77.5077 117.483 77.7298L113.411 76.4713Z" fill="white"/>
<path d="M113.856 74.7687C113.93 74.5466 114.004 74.3245 114.004 74.1024L118.075 75.2128C118.001 75.4349 117.927 75.657 117.927 75.8791L113.856 74.7687Z" fill="white"/>
<path d="M6.07033 44.7872C5.9963 45.0093 5.92227 45.2313 5.92227 45.3794L1.85071 44.269C1.92474 44.0469 1.99876 43.8248 1.99876 43.6767L6.07033 44.7872Z" fill="white"/>
<path d="M114.3 73.14C114.374 72.918 114.374 72.6959 114.448 72.4738L118.593 73.4362C118.519 73.6582 118.519 73.8803 118.445 74.1024L114.3 73.14Z" fill="white"/>
<path d="M5.7002 46.4898C5.62617 46.7119 5.62617 46.934 5.55214 47.1561L1.40656 46.1937C1.40656 45.8976 1.48058 45.6755 1.55461 45.4534L5.7002 46.4898Z" fill="white"/>
<path d="M114.67 71.5114C114.744 71.2893 114.744 71.0672 114.818 70.8452L118.964 71.7335C118.89 71.9556 118.89 72.1777 118.816 72.3998L114.67 71.5114Z" fill="white"/>
<path d="M5.25599 48.1184C5.25599 48.3405 5.18197 48.5626 5.18197 48.7847L1.03638 47.8964C1.11041 47.6743 1.11041 47.4522 1.18443 47.2301L5.25599 48.1184Z" fill="white"/>
<path d="M115.04 69.8088C115.114 69.5867 115.114 69.3646 115.188 69.1425L119.334 69.8828C119.334 70.1049 119.26 70.327 119.186 70.549L115.04 69.8088Z" fill="white"/>
<path d="M4.95991 49.8211C4.88588 50.0432 4.88588 50.2653 4.81185 50.4873L0.66626 49.7471C0.66626 49.525 0.740288 49.3029 0.814317 49.0808L4.95991 49.8211Z" fill="white"/>
<path d="M115.262 68.1061C115.262 67.884 115.336 67.6619 115.336 67.4398L119.556 68.0321C119.556 68.2542 119.482 68.4763 119.482 68.6983L115.262 68.1061Z" fill="white"/>
<path d="M4.66376 51.5237C4.66376 51.7458 4.58973 51.9679 4.58973 52.19L0.370117 51.5978C0.370117 51.3757 0.444146 51.1536 0.444146 50.9315L4.66376 51.5237Z" fill="white"/>
<path d="M4.44172 53.2264C4.44172 53.4485 4.36769 53.6706 4.36769 53.8927L0.148071 53.4485C0.148071 53.2264 0.2221 53.0043 0.2221 52.7822L4.44172 53.2264Z" fill="white"/>
<path d="M115.484 66.4034C115.484 66.1814 115.558 65.9593 115.558 65.7372L119.778 66.1814C119.778 66.4035 119.704 66.6255 119.704 66.8476L115.484 66.4034Z" fill="white"/>
<path d="M4.29365 54.9291C4.29365 55.1511 4.21962 55.3732 4.21962 55.5953L0 55.2252C0 55.0031 0 54.781 0.0740284 54.5589L4.29365 54.9291Z" fill="white"/>
<path d="M115.706 64.7748C115.706 64.5528 115.78 64.3307 115.78 64.1086L120 64.4787C120 64.7008 120 64.9229 119.926 65.145L115.706 64.7748Z" fill="white"/>
</g>
<path opacity="0.45" d="M94.9784 24.5034C85.6508 15.2498 73.2881 10.1419 60.1851 10.1419H59.8149L59.7409 5.70018H59.889C59.963 5.70018 60.1111 5.70018 60.1851 5.70018C74.4726 5.70018 87.9457 11.2523 98.1616 21.3202L94.9784 24.5034Z" fill="white"/>
<path opacity="0.45" d="M97.7915 98.4577L94.6823 95.2745C104.306 85.8729 109.71 73.3621 109.71 59.8889H114.152C114.152 74.5466 108.304 88.2418 97.7915 98.4577Z" fill="white"/>
<path opacity="0.45" d="M59.0747 113.708C44.7132 113.411 31.314 107.563 21.3202 97.1993L24.5034 94.0901C33.6829 103.566 45.9716 108.97 59.1487 109.266L59.0747 113.708Z" fill="white"/>
<path opacity="0.45" d="M10.5861 59.2967L6.14435 59.2227C6.2924 45.0833 11.8445 31.6841 21.9124 21.6163L25.0956 24.7255C15.8421 33.979 10.7341 46.2677 10.5861 59.2967Z" fill="white"/>
<path opacity="0.45" d="M110.302 49.9692C107.711 36.7181 100.086 25.1696 88.9821 17.6188L88.612 17.3967L89.4263 16.1382L89.5744 16.2122C89.6484 16.2862 89.7224 16.2862 89.7965 16.3603C101.271 24.2073 109.118 36.0518 111.783 49.673L110.302 49.9692Z" fill="white"/>
<path opacity="0.45" d="M69.2165 111.487L68.9944 110.006C82.6157 107.637 94.4602 100.012 102.307 88.612L103.492 89.4263C95.4226 101.197 83.2819 109.044 69.2165 111.487Z" fill="white"/>
<path opacity="0.45" d="M29.6853 102.529C18.285 94.3862 10.7341 82.3936 8.36517 68.5503L9.84574 68.3282C12.1406 81.7273 19.4694 93.4238 30.5737 101.345L29.6853 102.529Z" fill="white"/>
<path opacity="0.45" d="M18.211 30.6478L17.0266 29.7594C24.8736 18.4331 36.7181 10.7341 50.2653 8.14313L50.5614 9.62369C37.3844 12.1407 25.91 19.6175 18.211 30.6478Z" fill="white"/>
<path d="M62.554 60.1851L62.7761 61.5176C62.7761 61.6656 62.702 61.8137 62.554 61.8137L60.9994 62.2579H60.9253C60.8513 62.2579 60.8513 62.2579 60.7773 62.2579L60.037 61.8137C58.8525 61.0734 57.8162 60.037 57.0018 58.8526H52.7822L51.0796 60.9254V66.9217H49.0808V60.6292L47.7483 58.7045H36.7181L31.24 61.5176V66.9217H29.2412V61.0734C29.2412 60.9254 29.2412 60.8513 29.3152 60.7033L30.7218 56.2616L29.7594 52.9303C29.6854 52.5601 29.6113 52.19 29.6113 51.7458V47.6002C28.8711 48.0444 28.3529 48.7847 28.3529 49.7471V55.0031C29.0931 56.4096 28.8711 58.1123 27.6866 59.2227C27.0204 58.5564 26.6502 57.5941 26.6502 56.7057C26.6502 56.1135 26.7983 55.5213 27.0944 55.0031V49.673C27.0944 47.6002 28.723 45.9716 30.7958 45.9716H50.7094C51.3757 45.9716 52.0419 46.1937 52.5601 46.6379L58.4084 51.5978L59.7409 51.9679C60.2591 51.8939 60.7773 51.8199 61.1474 51.7458C61.1474 51.7458 61.1474 51.7458 61.2215 51.7458C61.4435 51.7458 61.5916 51.9679 61.4435 52.19L61.2215 52.5601L62.702 53.0043C62.9241 53.0783 62.9981 53.4485 62.7761 53.5225L61.7397 54.0407L62.4059 55.1511C62.4799 55.2992 62.554 55.4473 62.554 55.6693V56.0395C62.3319 57.372 62.3319 58.7785 62.554 60.1851Z" fill="white"/>
<path d="M46.3418 59.963L44.1949 66.4775H46.3418L47.7483 62.1098V60.9994L47.008 59.963H46.3418Z" fill="white"/>
<path d="M37.1622 59.963H37.0142L33.8309 61.5916L35.6076 66.4775H37.7544L35.9778 61.5916L37.1622 59.963Z" fill="white"/>
<path d="M58.11 74.9663V77.2649C58.11 77.2649 62.0432 81.3002 66.8957 79.9721L67.3554 83.752L67.6108 85.4376H69.4497L70.267 80.9426H81.4534L81.6067 83.9052L81.7088 85.5398H83.5988C83.5988 85.5398 84.9779 78.9505 85.2333 77.6224C85.5398 76.1411 85.5909 75.3749 85.5909 75.0174L85.5398 74.0469C85.0801 68.6324 80.1764 68.0706 78.644 68.0706C77.0095 68.0706 73.7404 68.0706 69.1943 68.0706C67.2533 68.0706 65.3633 68.99 64.0864 70.0116C62.9626 68.0706 60.4086 68.5814 60.4086 68.5814C60.9705 70.7778 62.1964 71.3396 62.7072 71.4929C62.1453 72.3612 61.7367 73.2296 60.3575 74.149C59.2849 74.762 58.11 74.9663 58.11 74.9663ZM80.6872 82.5261H78.0311L78.2354 85.4887H80.1253C80.0743 85.4887 80.3297 84.1095 80.6872 82.5261ZM73.8426 82.5261H71.1864C71.4929 84.1095 71.7994 85.4887 71.7994 85.4887H73.6893L73.8426 82.5261Z" fill="white"/>
<path d="M85.4376 38.0358L86.7146 36.9631L86.4592 35.4818L84.8247 35.9926L85.7441 34.4602L84.8247 33.4897L81.4023 38.2401L77.2138 36.7588L72.0548 36.5545L69.0922 31.0379L70.0627 30.3738L69.9605 29.4544L69.0922 29.1479L68.2238 29.7098L68.4792 28.6882L67.8662 28.0242L66.8957 28.2796L66.5893 29.3523L65.9763 28.3817L65.3633 28.5861L65.0569 30.1695L62.1453 31.8552L64.8525 32.0595L64.2907 32.9278L65.0058 33.1832L65.0569 33.694L65.6698 33.4897L65.8231 42.1221L68.1216 46.5661L72.0548 48.5071L72.3612 49.4265L74.762 50.6524L75.2728 51.8783L73.6382 53.564L70.0627 54.0237L70.5224 54.3812H76.6008L76.0901 54.0237L74.5577 53.7683L76.1922 52.2359L76.0901 50.4992L77.5203 48.7114L80.8405 47.5877L83.5987 44.9826L86.8678 39.3128V38.3933L85.4376 38.0358Z" fill="white"/>
</g>
<defs>
<clipPath id="clip0_39_4784">
<rect width="120" height="120" fill="white"/>
</clipPath>
</defs>
</svg>
