<?xml version="1.0" encoding="utf-8"?>
<!-- Generator: Adobe Illustrator 27.7.0, SVG Export Plug-In . SVG Version: 6.00 Build 0)  -->
<svg version="1.1" id="Layer_1" xmlns="http://www.w3.org/2000/svg" xmlns:xlink="http://www.w3.org/1999/xlink" x="0px" y="0px"
	 viewBox="0 0 73.7 68.2" style="enable-background:new 0 0 73.7 68.2;" xml:space="preserve">
<style type="text/css">
	.st0{clip-path:url(#SVGID_00000140697082640449633140000015353358390815045253_);fill:#FFFFFF;}
</style>
<g>
	<defs>
		<rect id="SVGID_1_" width="73.7" height="68.2"/>
	</defs>
	<clipPath id="SVGID_00000085240721809967214810000006590138793734321592_">
		<use xlink:href="#SVGID_1_"  style="overflow:visible;"/>
	</clipPath>
	<path style="clip-path:url(#SVGID_00000085240721809967214810000006590138793734321592_);fill:#FFFFFF;" d="M52.7,49.7
		c0-1.5,1.2-2.7,2.7-2.7c1.5,0,2.7,1.2,2.7,2.7c0,1.5-1.2,2.7-2.7,2.7C53.9,52.4,52.7,51.2,52.7,49.7 M16.4,36.8l-1.1-5.2
		C6.6,33.1,0,40.6,0,49.7c0,10.2,8.2,18.4,18.4,18.4c9.3,0,17-6.9,18.2-15.9H48c1.1,3,4,5.2,7.4,5.2c4.4,0,7.9-3.6,7.9-7.9
		c0-4.4-3.6-7.9-7.9-7.9c-3.5,0-6.5,2.3-7.5,5.5H31.6v2.8h-0.1c-0.1,7.2-5.9,12.9-13.1,12.9c-7.2,0-13.1-5.9-13.1-13.1
		C5.3,43.2,10.1,37.8,16.4,36.8 M21.2,49.7c0,1.5-1.2,2.7-2.7,2.7c-1.5,0-2.7-1.2-2.7-2.7c0-1.5,1.2-2.7,2.7-2.7
		C20,47,21.2,48.2,21.2,49.7 M54.4,24.4c0.6-1.9,1-3.9,1-6C55.4,8.2,47.1,0,37,0S18.5,8.2,18.5,18.4c0,5.5,2.4,10.4,6.2,13.8
		l-5.1,9.5c-0.4-0.1-0.7-0.1-1.1-0.1c-4.4,0-7.9,3.6-7.9,7.9c0,4.4,3.6,7.9,7.9,7.9c4.4,0,7.9-3.6,7.9-7.9c0-2.1-0.8-4-2.2-5.5
		l4.8-9c0,0,0,0,0,0l2.5-4.7c-4.6-2-7.8-6.6-7.8-12c0-7.2,5.9-13.1,13.1-13.1c7.2,0,13.1,5.9,13.1,13.1c0,1.5-0.3,3-0.7,4.3
		L54.4,24.4z M39.6,18.4c0,1.5-1.2,2.7-2.7,2.7c-1.5,0-2.7-1.2-2.7-2.7c0-1.5,1.2-2.7,2.7-2.7C38.3,15.7,39.6,16.9,39.6,18.4
		 M73.7,49.7c0-10.2-8.2-18.4-18.4-18.4c-2.5,0-4.8,0.5-7,1.4l-5.6-8.8c1.4-1.4,2.2-3.4,2.2-5.5c0-4.4-3.6-7.9-7.9-7.9
		c-4.4,0-7.9,3.6-7.9,7.9s3.6,7.9,7.9,7.9c0.4,0,0.7,0,1.1-0.1l5.7,9.1c0,0,0,0,0,0l2.9,4.5c2.3-2,5.3-3.3,8.6-3.3
		c7.2,0,13.1,5.9,13.1,13.1s-5.9,13.1-13.1,13.1c-3.9,0-7.5-1.7-9.9-4.5L41.5,62c3.4,3.8,8.3,6.2,13.7,6.2
		C65.4,68.2,73.7,59.9,73.7,49.7"/>
</g>
</svg>
