<?xml version="1.0" encoding="utf-8"?>
<!-- Generator: Adobe Illustrator 27.7.0, SVG Export Plug-In . SVG Version: 6.00 Build 0)  -->
<svg version="1.1" id="Layer_1" xmlns="http://www.w3.org/2000/svg" xmlns:xlink="http://www.w3.org/1999/xlink" x="0px" y="0px"
	 viewBox="0 0 63 63" style="enable-background:new 0 0 63 63;" xml:space="preserve">
<style type="text/css">
	.st0{clip-path:url(#SVGID_00000168801320351598533240000001979229526501148069_);fill:#FFFFFF;}
</style>
<g>
	<defs>
		<rect id="SVGID_1_" width="63" height="63"/>
	</defs>
	<clipPath id="SVGID_00000090259134537272610560000017666747492427394972_">
		<use xlink:href="#SVGID_1_"  style="overflow:visible;"/>
	</clipPath>
	<path style="clip-path:url(#SVGID_00000090259134537272610560000017666747492427394972_);fill:#FFFFFF;" d="M40.9,39.1
		c0,1.1-0.9,2-2,2c-1.1,0-2-0.9-2-2c0-1.1,0.9-2,2-2C40,37.2,40.9,38,40.9,39.1 M40.2,33.4c0,0-2.9-0.7-4.9,1.1
		c-2,1.8-7,6.2-9.8,6.2h-2.8V37c0,0,2,1.6,6.4-2.2s5-5.1,11.1-5.1V33.4z M40.2,26c0,0-2.9-0.7-4.9,1.1c-2,1.8-7,6.2-9.8,6.2h-2.8
		v-3.7c0,0,2,1.6,6.4-2.2c4.4-3.8,5-5.1,11.1-5.1V26z M26.3,24.1c0,1.1-0.9,2-2,2c-1.1,0-2-0.9-2-2s0.9-2,2-2
		C25.5,22.1,26.3,23,26.3,24.1 M44.9,17.9H18.1v26.8h26.8V17.9z M48.5,48.4H14.4v-34h34.1V48.4z M55.1,44.5v-3.6H63V37h-7.9v-3.6H63
		v-3.9h-7.9V26H63V22h-7.9v-3.6H63v-3.9h-7.9V7.3h-6.8V0h-3.9v7.3h-3.6V0h-3.9v7.3h-3.6V0h-3.9v7.3h-3.6V0h-3.9v7.3h-3.6V0h-3.9v7.3
		H7.9v7.3H0v3.9h7.9V22H0V26h7.9v3.6H0v3.9h7.9V37H0v3.9h7.9v3.6H0v3.9h7.9v5.9h6.5V63h3.9v-8.7h3.6V63h3.9v-8.7h3.6V63h3.9v-8.7
		h3.6V63h3.9v-8.7h3.6V63h3.9v-8.7h6.8v-5.9H63v-3.9H55.1z"/>
</g>
</svg>
