<svg width="121" height="120" viewBox="0 0 121 120" fill="none" xmlns="http://www.w3.org/2000/svg">
<g clip-path="url(#clip0_39_4785)">
<g opacity="0.55">
<path d="M60.0999 111.292C31.7605 111.292 8.73462 88.2657 8.73462 60C8.73462 31.7343 31.8343 8.63469 60.0999 8.63469C88.3656 8.63469 111.391 31.6605 111.391 59.9262C111.391 88.1919 88.4394 111.292 60.0999 111.292ZM60.0999 12.8413C34.1221 12.8413 12.9413 34.0221 12.9413 60C12.9413 85.9779 34.1221 107.159 60.0999 107.159C86.0778 107.159 107.259 85.9779 107.259 60C107.259 34.0221 86.0778 12.8413 60.0999 12.8413Z" fill="white"/>
</g>
<g opacity="0.9">
<path d="M60.0999 110.48C32.2771 110.48 9.62024 87.8229 9.62024 60C9.62024 32.1771 32.2771 9.52029 60.0999 9.52029C87.9228 9.52029 110.58 32.1771 110.58 60C110.58 87.8229 87.9228 110.48 60.0999 110.48ZM60.0999 9.8155C32.4247 9.8155 9.98924 32.3247 9.98924 59.9262C9.98924 87.5277 32.4985 110.037 60.0999 110.037C87.7752 110.037 110.211 87.5277 110.211 59.9262C110.211 32.3247 87.7752 9.8155 60.0999 9.8155Z" fill="white"/>
</g>
<g opacity="0.4">
<path d="M118.624 71.3653L114.491 70.5535C117.296 56.0148 114.344 41.2546 106.078 29.0037L109.546 26.6421C118.476 39.8524 121.65 55.7195 118.624 71.3653Z" fill="white"/>
<path d="M29.2513 13.8745L26.9634 10.4059C40.1738 1.54982 56.0409 -1.62361 71.6129 1.47602L70.8011 5.60886C56.2623 2.73063 41.576 5.68266 29.2513 13.8745Z" fill="white"/>
<path d="M60.2476 119.631C56.41 119.631 52.4985 119.262 48.6609 118.524L49.4727 114.391C64.0114 117.269 78.8454 114.244 91.1701 105.978L93.5317 109.446C83.4948 116.162 71.9819 119.631 60.2476 119.631Z" fill="white"/>
<path d="M10.5797 93.1365C1.72359 79.9262 -1.44984 64.059 1.57599 48.4871V48.3395L5.63503 49.1513V49.2989C2.7568 63.7638 5.78263 78.524 13.9745 90.8487L10.5797 93.1365Z" fill="white"/>
</g>
<g opacity="0.45">
<path d="M106.078 85.6827C112.941 73.4317 114.565 59.1882 110.727 45.6827L117.738 43.69C122.093 59.1144 120.247 75.2767 112.425 89.2251L106.078 85.6827Z" fill="white"/>
<path d="M45.8564 9.29889L43.8638 2.28782C59.2881 -2.06642 75.4505 -0.0737998 89.3988 7.67528L85.8564 14.0221C73.6055 7.15867 59.3619 5.53506 45.8564 9.29889Z" fill="white"/>
<path d="M30.801 112.325L34.3435 105.978C46.6682 112.841 60.9117 114.539 74.4173 110.701L76.4099 117.712C60.9855 122.066 44.8232 120.148 30.801 112.325Z" fill="white"/>
<path d="M2.38775 76.2362C-1.96649 60.8118 0.02613 44.6495 7.77521 30.7011V30.6273L7.84901 30.5535L14.1959 34.1697L14.1221 34.3173C7.2586 46.5683 5.56119 60.738 9.39882 74.2435L2.38775 76.2362Z" fill="white"/>
</g>
<g opacity="0.6">
<path d="M114.786 60C114.786 60.0738 114.786 60.0738 114.786 60.1476H118.919C118.919 60.0738 118.919 60.0738 118.919 60C118.919 59.8524 118.919 59.631 118.919 59.4834H114.786C114.712 59.631 114.786 59.7786 114.786 60Z" fill="white"/>
<path d="M5.48739 60C5.48739 59.9262 5.48739 59.7786 5.48739 59.7048H1.35455C1.35455 59.7786 1.35455 59.9262 1.35455 60C1.35455 60.1476 1.35455 60.2214 1.35455 60.369H5.48739C5.48739 60.2214 5.48739 60.0738 5.48739 60Z" fill="white"/>
<path d="M114.712 61.107C114.712 61.3284 114.712 61.5498 114.712 61.7712L118.845 61.9188C118.845 61.6974 118.845 61.476 118.845 61.2546L114.712 61.107Z" fill="white"/>
<path d="M5.48739 58.5978C5.48739 58.3764 5.48739 58.155 5.48739 57.9336L1.35455 57.786C1.35455 58.0074 1.35455 58.2288 1.35455 58.4502L5.48739 58.5978Z" fill="white"/>
<path d="M5.56119 56.9742C5.56119 56.7528 5.56119 56.5314 5.63499 56.31L1.50215 56.0886C1.50215 56.31 1.50215 56.5314 1.42834 56.7528L5.56119 56.9742Z" fill="white"/>
<path d="M114.712 62.8044C114.712 63.0258 114.712 63.2472 114.639 63.4686L118.772 63.69C118.772 63.4686 118.845 63.2472 118.845 63.0258L114.712 62.8044Z" fill="white"/>
<path d="M114.565 64.428C114.565 64.6494 114.565 64.8708 114.491 65.0922L118.624 65.4612C118.624 65.2398 118.624 65.0184 118.698 64.797L114.565 64.428Z" fill="white"/>
<path d="M5.70878 55.2767C5.70878 55.0553 5.70878 54.8339 5.78258 54.6125L1.57594 54.3173C1.57594 54.5387 1.57594 54.7601 1.50214 54.9815L5.70878 55.2767Z" fill="white"/>
<path d="M5.85641 53.6531C5.85641 53.4317 5.93021 53.2103 5.93021 52.9889L1.79737 52.4723C1.79737 52.6937 1.72357 52.9151 1.72357 53.1365L5.85641 53.6531Z" fill="white"/>
<path d="M114.417 66.1255C114.417 66.3469 114.344 66.5683 114.344 66.7897L118.476 67.3063C118.476 67.0849 118.55 66.8635 118.55 66.6421L114.417 66.1255Z" fill="white"/>
<path d="M114.196 67.7491C114.196 67.9705 114.122 68.1919 114.122 68.4133L118.255 69.0037C118.255 68.7823 118.329 68.5609 118.329 68.3395L114.196 67.7491Z" fill="white"/>
<path d="M6.07779 51.9557C6.07779 51.7343 6.15159 51.5129 6.15159 51.2915L2.01875 50.7011C2.01875 50.9225 1.94495 51.1439 1.94495 51.3653L6.07779 51.9557Z" fill="white"/>
<path d="M113.901 69.4465C113.901 69.6679 113.827 69.8893 113.753 70.1107L117.812 70.8487C117.886 70.6273 117.886 70.4059 117.96 70.1845L113.901 69.4465Z" fill="white"/>
<path d="M6.37301 50.3321C6.44682 50.1107 6.44682 49.8893 6.52062 49.6679L2.46158 48.9299C2.31397 49.1513 2.31397 49.3727 2.24017 49.5941L6.37301 50.3321Z" fill="white"/>
<path d="M113.605 71.0701C113.532 71.2915 113.532 71.5129 113.458 71.6605L117.517 72.5461C117.591 72.3247 117.591 72.1033 117.665 71.9557L113.605 71.0701Z" fill="white"/>
<path d="M6.66823 48.7085C6.74203 48.4871 6.74203 48.2657 6.81583 48.1181L2.75679 47.2325C2.68299 47.4539 2.68299 47.6753 2.60919 47.8229L6.66823 48.7085Z" fill="white"/>
<path d="M113.236 72.6937C113.163 72.9151 113.163 73.1365 113.089 73.2841L117.148 74.2435C117.222 74.0221 117.222 73.8007 117.296 73.6531L113.236 72.6937Z" fill="white"/>
<path d="M7.03719 47.0849C7.11099 46.8635 7.11099 46.6421 7.18479 46.4945L3.12575 45.535C3.05195 45.6827 3.05195 45.9041 2.97815 46.0517L7.03719 47.0849Z" fill="white"/>
<path d="M7.4062 45.4612C7.48 45.2398 7.5538 45.0184 7.5538 44.8708L3.56856 43.7638C3.49476 43.9852 3.42096 44.2066 3.42096 44.3542L7.4062 45.4612Z" fill="white"/>
<path d="M112.867 74.3173C112.794 74.5387 112.72 74.7601 112.72 74.9077L116.705 76.0148C116.779 75.7934 116.853 75.5719 116.853 75.4243L112.867 74.3173Z" fill="white"/>
<path d="M7.9228 43.8376C7.9966 43.6162 8.0704 43.4686 8.1442 43.2472L4.15896 41.9926C4.08516 42.214 4.01136 42.3616 3.93756 42.583L7.9228 43.8376Z" fill="white"/>
<path d="M112.351 75.9409C112.277 76.1624 112.203 76.3837 112.129 76.5314L116.115 77.786C116.188 77.5646 116.262 77.3432 116.336 77.1956L112.351 75.9409Z" fill="white"/>
<path d="M111.834 77.4908C111.76 77.7122 111.687 77.9336 111.613 78.0812L115.524 79.4096C115.598 79.1882 115.672 79.0406 115.746 78.8192L111.834 77.4908Z" fill="white"/>
<path d="M8.43945 42.2878C8.51326 42.0664 8.58706 41.9188 8.66086 41.6974L4.74942 40.369C4.67562 40.5904 4.60182 40.738 4.52802 40.9594L8.43945 42.2878Z" fill="white"/>
<path d="M111.318 79.0406C111.244 79.262 111.17 79.4096 111.096 79.631L114.934 81.107C115.008 80.8856 115.081 80.738 115.155 80.5166L111.318 79.0406Z" fill="white"/>
<path d="M8.95605 40.6642C9.02985 40.4428 9.10365 40.2952 9.17745 40.0738L5.33981 38.5978C5.26601 38.8192 5.19221 38.9668 5.11841 39.1882L8.95605 40.6642Z" fill="white"/>
<path d="M110.727 80.6642C110.653 80.8856 110.58 81.0332 110.506 81.2546L114.343 82.8782C114.417 82.6568 114.491 82.5092 114.565 82.2878L110.727 80.6642Z" fill="white"/>
<path d="M9.62023 39.1144C9.69403 38.893 9.76783 38.7454 9.84163 38.524L6.004 36.9742C5.93019 37.1956 5.85639 37.3432 5.78259 37.5646L9.62023 39.1144Z" fill="white"/>
<path d="M10.2844 37.6384C10.3582 37.417 10.432 37.2694 10.5796 37.048L6.74198 35.3506C6.66818 35.572 6.59438 35.7196 6.44678 35.941L10.2844 37.6384Z" fill="white"/>
<path d="M110.063 82.1402C109.989 82.3616 109.915 82.5092 109.768 82.7306L113.532 84.4281C113.605 84.2066 113.679 84.059 113.827 83.8376L110.063 82.1402Z" fill="white"/>
<path d="M109.325 83.69C109.251 83.9114 109.104 84.059 109.03 84.2804L112.72 86.1255C112.794 85.9041 112.941 85.7565 113.015 85.5351L109.325 83.69Z" fill="white"/>
<path d="M10.9486 36.0886C11.0224 35.8672 11.17 35.7196 11.2438 35.4982L7.55381 33.6531C7.48001 33.8745 7.33241 34.0221 7.25861 34.2435L10.9486 36.0886Z" fill="white"/>
<path d="M11.6867 34.6125C11.7605 34.3911 11.9081 34.2435 11.9819 34.0221L8.29185 32.1033C8.21805 32.3247 8.07044 32.4723 7.99664 32.6937L11.6867 34.6125Z" fill="white"/>
<path d="M108.587 85.166C108.513 85.3874 108.366 85.535 108.292 85.7564L111.982 87.6753C112.056 87.4539 112.203 87.3063 112.277 87.0849L108.587 85.166Z" fill="white"/>
<path d="M107.775 86.6421C107.701 86.8635 107.554 87.0111 107.48 87.2325L111.096 89.2989C111.17 89.0775 111.318 88.9299 111.391 88.7085L107.775 86.6421Z" fill="white"/>
<path d="M12.4984 33.1365C12.5722 32.9151 12.7198 32.7675 12.7936 32.5461L9.17741 30.4797C9.1036 30.7011 8.956 30.8487 8.8822 31.0701L12.4984 33.1365Z" fill="white"/>
<path d="M106.963 88.1181C106.89 88.2657 106.742 88.4871 106.594 88.6347L110.137 90.7749C110.284 90.6273 110.358 90.4059 110.506 90.2583L106.963 88.1181Z" fill="white"/>
<path d="M13.3103 31.7343C13.3841 31.5867 13.5317 31.3653 13.6793 31.2177L10.1368 29.0775C9.98922 29.2251 9.91542 29.4465 9.76782 29.5941L13.3103 31.7343Z" fill="white"/>
<path d="M14.2697 30.3321C14.4173 30.1845 14.4911 29.9631 14.6387 29.8155L11.17 27.5277C11.0224 27.6753 10.9486 27.8967 10.801 28.0443L14.2697 30.3321Z" fill="white"/>
<path d="M106.078 89.5203C105.93 89.6679 105.856 89.8893 105.709 90.0369L109.177 92.3247C109.325 92.1771 109.399 91.9557 109.546 91.8081L106.078 89.5203Z" fill="white"/>
<path d="M15.1553 28.9299C15.3029 28.7823 15.3767 28.5609 15.5243 28.4133L12.1294 26.0517C11.9818 26.1993 11.908 26.4207 11.7604 26.5683L15.1553 28.9299Z" fill="white"/>
<path d="M105.118 90.9225C104.971 91.0701 104.897 91.2915 104.749 91.4391L108.144 93.8007C108.292 93.6531 108.366 93.4317 108.513 93.2841L105.118 90.9225Z" fill="white"/>
<path d="M104.159 92.2509C104.011 92.3985 103.938 92.6199 103.79 92.7675L107.111 95.2768C107.259 95.1291 107.332 94.9077 107.48 94.7601L104.159 92.2509Z" fill="white"/>
<path d="M16.1147 27.5277C16.2623 27.3801 16.3361 27.1587 16.4837 27.0111L13.1626 24.5018C13.015 24.6494 12.9412 24.8709 12.7936 25.0185L16.1147 27.5277Z" fill="white"/>
<path d="M17.1479 26.2731C17.2955 26.1255 17.4431 25.9041 17.5169 25.7565L14.2697 23.1734C14.1221 23.321 13.9745 23.5424 13.9007 23.69L17.1479 26.2731Z" fill="white"/>
<path d="M103.2 93.5793C103.052 93.7269 102.904 93.9483 102.831 94.0959L106.078 96.679C106.225 96.5314 106.373 96.31 106.447 96.1624L103.2 93.5793Z" fill="white"/>
<path d="M102.093 94.9077C101.945 95.0553 101.797 95.2029 101.65 95.4243L104.823 98.0812C104.971 97.9336 105.118 97.786 105.266 97.5646L102.093 94.9077Z" fill="white"/>
<path d="M18.1811 24.9446C18.3287 24.797 18.4763 24.6494 18.6239 24.428L15.4505 21.7712C15.3029 21.9188 15.1553 22.0664 15.0077 22.2878L18.1811 24.9446Z" fill="white"/>
<path d="M19.2881 23.69C19.4357 23.5424 19.5833 23.3948 19.7309 23.1734L16.6313 20.369C16.4837 20.5166 16.3361 20.6642 16.1885 20.8856L19.2881 23.69Z" fill="white"/>
<path d="M101.059 96.1624C100.912 96.31 100.764 96.4576 100.617 96.679L103.716 99.4834C103.864 99.3358 104.011 99.1882 104.159 98.9668L101.059 96.1624Z" fill="white"/>
<path d="M20.3952 22.4354C20.5428 22.2878 20.6904 22.1402 20.838 21.9926L17.8121 19.1144C17.6645 19.262 17.5169 19.4096 17.3693 19.5572L20.3952 22.4354Z" fill="white"/>
<path d="M99.8785 97.417C99.7309 97.5646 99.5833 97.7122 99.4357 97.8598L102.462 100.738C102.609 100.59 102.757 100.443 102.904 100.295L99.8785 97.417Z" fill="white"/>
<path d="M21.576 21.2546C21.7236 21.107 21.8712 20.9594 22.0188 20.8118L19.1406 17.8598C18.993 18.0074 18.8454 18.155 18.6978 18.3026L21.576 21.2546Z" fill="white"/>
<path d="M98.7715 98.5978C98.6239 98.7454 98.4763 98.893 98.3287 99.0406L101.207 101.993C101.355 101.845 101.502 101.697 101.65 101.55L98.7715 98.5978Z" fill="white"/>
<path d="M97.5169 99.7786C97.3693 99.9262 97.2217 100.074 97.0741 100.221L99.8785 103.247C100.026 103.1 100.174 102.952 100.321 102.804L97.5169 99.7786Z" fill="white"/>
<path d="M22.7568 20.0738C22.9044 19.9262 23.052 19.7786 23.1996 19.631L20.3951 16.6052C20.2475 16.7528 20.0999 16.9004 19.9523 17.048L22.7568 20.0738Z" fill="white"/>
<path d="M24.0114 18.9668C24.159 18.8192 24.3066 18.6716 24.528 18.524L21.7974 15.4243C21.6498 15.5719 21.5022 15.7196 21.2808 15.8672L24.0114 18.9668Z" fill="white"/>
<path d="M96.3361 100.886C96.1885 101.033 96.0409 101.181 95.8195 101.328L98.5501 104.428C98.6977 104.28 98.8454 104.133 99.0668 103.985L96.3361 100.886Z" fill="white"/>
<path d="M25.266 17.8598C25.4136 17.7122 25.635 17.5646 25.7826 17.4908L23.1258 14.3173C22.9782 14.4649 22.7568 14.6125 22.6092 14.6863L25.266 17.8598Z" fill="white"/>
<path d="M95.0815 101.993C94.9339 102.14 94.7863 102.288 94.5649 102.362L97.2217 105.535C97.3693 105.387 97.5907 105.24 97.7383 105.166L95.0815 101.993Z" fill="white"/>
<path d="M93.7531 103.026C93.6055 103.173 93.3841 103.321 93.2365 103.395L95.7457 106.642C95.8933 106.494 96.1147 106.347 96.2623 106.273L93.7531 103.026Z" fill="white"/>
<path d="M26.5944 16.8266C26.742 16.679 26.9634 16.5314 27.111 16.4576L24.6018 13.2103C24.4542 13.3579 24.2328 13.5055 24.0852 13.5793L26.5944 16.8266Z" fill="white"/>
<path d="M92.4247 104.059C92.2771 104.207 92.0557 104.28 91.9081 104.428L94.3435 107.823C94.4911 107.675 94.7125 107.601 94.8601 107.454L92.4247 104.059Z" fill="white"/>
<path d="M27.9228 15.8672C28.0704 15.7196 28.2918 15.6458 28.4394 15.4982L26.004 12.1033C25.8564 12.2509 25.635 12.3247 25.4874 12.4723L27.9228 15.8672Z" fill="white"/>
<path d="M91.0225 105.018C90.8749 105.166 90.6535 105.24 90.5059 105.387L92.8675 108.856C93.0151 108.708 93.2365 108.635 93.3841 108.487L91.0225 105.018Z" fill="white"/>
<path d="M29.2512 14.9077C29.3988 14.7601 29.6202 14.6863 29.7678 14.5387L27.48 11.0701C27.3324 11.2177 27.111 11.2915 26.9634 11.4391L29.2512 14.9077Z" fill="white"/>
<path d="M89.694 105.904C89.5464 106.052 89.325 106.125 89.1774 106.273L91.3915 109.742C91.5391 109.594 91.7605 109.52 91.9081 109.373L89.694 105.904Z" fill="white"/>
<path d="M30.6535 13.9483C30.8011 13.8007 31.0225 13.7269 31.1701 13.5793L28.9561 10.1107C28.8085 10.2583 28.5871 10.3321 28.4395 10.4797L30.6535 13.9483Z" fill="white"/>
<path d="M32.0557 13.0627C32.2033 12.9889 32.4247 12.8413 32.6461 12.7675L30.5059 9.22508C30.3583 9.29888 30.1369 9.44648 29.9155 9.52029L32.0557 13.0627Z" fill="white"/>
<path d="M88.218 106.79C88.0704 106.863 87.849 107.011 87.6276 107.085L89.7678 110.627C89.9154 110.553 90.1369 110.406 90.3583 110.332L88.218 106.79Z" fill="white"/>
<path d="M86.8158 107.675C86.5944 107.749 86.4468 107.897 86.2254 107.97L88.218 111.587C88.4394 111.513 88.587 111.365 88.8084 111.292L86.8158 107.675Z" fill="white"/>
<path d="M33.5317 12.2509C33.7531 12.1771 33.9007 12.0295 34.1221 11.9557L32.1295 8.33948C31.9081 8.41328 31.7605 8.56088 31.5391 8.63468L33.5317 12.2509Z" fill="white"/>
<path d="M34.9339 11.4391C35.1553 11.3653 35.3029 11.2177 35.5243 11.1439L33.6055 7.45387C33.3841 7.52767 33.2365 7.67527 33.0151 7.74908L34.9339 11.4391Z" fill="white"/>
<path d="M85.3398 108.413C85.1184 108.487 84.9708 108.635 84.7494 108.708L86.6682 112.399C86.8896 112.325 87.0372 112.177 87.2586 112.103L85.3398 108.413Z" fill="white"/>
<path d="M83.8638 109.225C83.6424 109.299 83.4948 109.373 83.2734 109.52L85.0446 113.284C85.266 113.21 85.4136 113.137 85.635 112.989L83.8638 109.225Z" fill="white"/>
<path d="M36.4837 10.7011C36.7051 10.6273 36.8527 10.5535 37.0741 10.4059L35.3029 6.64206C35.0815 6.71586 34.9339 6.78966 34.7125 6.93726L36.4837 10.7011Z" fill="white"/>
<path d="M82.314 109.889C82.0926 109.963 81.945 110.037 81.7236 110.184L83.3472 113.948C83.5686 113.875 83.7162 113.801 83.9376 113.653L82.314 109.889Z" fill="white"/>
<path d="M37.9597 10.0369C38.1811 9.9631 38.3287 9.8893 38.5501 9.7417L36.9265 5.97786C36.7051 6.05166 36.5575 6.12546 36.3361 6.27306L37.9597 10.0369Z" fill="white"/>
<path d="M80.7642 110.554C80.5428 110.627 80.3952 110.701 80.1738 110.775L81.7236 114.613C81.945 114.539 82.0926 114.465 82.314 114.391L80.7642 110.554Z" fill="white"/>
<path d="M39.5095 9.37268C39.7309 9.29888 39.8785 9.22508 40.0999 9.15128L38.5501 5.31364C38.3287 5.38745 38.1811 5.46125 37.9597 5.53505L39.5095 9.37268Z" fill="white"/>
<path d="M41.0593 8.78229C41.2807 8.70848 41.4283 8.63468 41.6497 8.56088L40.2475 4.64944C40.0261 4.72325 39.8785 4.79705 39.6571 4.87085L41.0593 8.78229Z" fill="white"/>
<path d="M79.2143 111.144C78.9929 111.218 78.8453 111.292 78.6239 111.365L80.0261 115.277C80.2475 115.203 80.3951 115.129 80.6165 115.055L79.2143 111.144Z" fill="white"/>
<path d="M42.6092 8.19188C42.8306 8.11808 42.9782 8.04428 43.1996 7.97048L41.8712 4.05904C41.6498 4.13284 41.5022 4.20664 41.2808 4.28044L42.6092 8.19188Z" fill="white"/>
<path d="M77.6645 111.734C77.4431 111.808 77.2955 111.882 77.0741 111.956L78.4025 115.867C78.6239 115.793 78.7715 115.72 78.9929 115.646L77.6645 111.734Z" fill="white"/>
<path d="M76.0409 112.251C75.8195 112.325 75.5981 112.399 75.4505 112.399L76.6313 116.384C76.8527 116.31 77.0741 116.236 77.2217 116.236L76.0409 112.251Z" fill="white"/>
<path d="M44.2328 7.67528C44.4542 7.60147 44.6756 7.52767 44.8232 7.52767L43.6423 3.54243C43.4209 3.61624 43.1995 3.69004 43.0519 3.69004L44.2328 7.67528Z" fill="white"/>
<path d="M45.7826 7.23247C46.004 7.15867 46.2254 7.08486 46.373 7.08486L45.3398 3.09962C45.1184 3.17343 44.897 3.24723 44.7494 3.24723L45.7826 7.23247Z" fill="white"/>
<path d="M74.4173 112.694C74.1959 112.768 73.9745 112.841 73.8269 112.841L74.8601 116.827C75.0815 116.753 75.3029 116.679 75.4505 116.679L74.4173 112.694Z" fill="white"/>
<path d="M47.4062 6.86346C47.6276 6.78966 47.849 6.78966 47.9966 6.71586L47.0372 2.65681C46.8158 2.73062 46.5944 2.73062 46.4468 2.80442L47.4062 6.86346Z" fill="white"/>
<path d="M72.7937 113.137C72.5723 113.21 72.3508 113.21 72.2032 113.284L73.1627 117.343C73.3841 117.269 73.6055 117.269 73.7531 117.196L72.7937 113.137Z" fill="white"/>
<path d="M49.0298 6.42066C49.2512 6.34686 49.4726 6.34686 49.694 6.27306L48.8822 2.21402C48.6608 2.28782 48.4394 2.28782 48.218 2.36162L49.0298 6.42066Z" fill="white"/>
<path d="M71.1701 113.506C70.9487 113.579 70.7273 113.579 70.5059 113.653L71.3177 117.712C71.5391 117.638 71.7605 117.638 71.9819 117.565L71.1701 113.506Z" fill="white"/>
<path d="M50.6535 6.12545C50.8749 6.12545 51.0963 6.05165 51.3177 5.97785L50.6535 1.91881C50.4321 1.91881 50.2107 1.99261 49.9893 2.06641L50.6535 6.12545Z" fill="white"/>
<path d="M69.5464 113.801C69.325 113.801 69.1036 113.875 68.8822 113.948L69.5464 118.007C69.7678 118.007 69.9892 117.934 70.2106 117.86L69.5464 113.801Z" fill="white"/>
<path d="M52.3508 5.90406C52.5722 5.90406 52.7936 5.83026 53.015 5.83026L52.4246 1.69742C52.2032 1.69742 51.9818 1.77122 51.7604 1.77122L52.3508 5.90406Z" fill="white"/>
<path d="M67.9228 114.022C67.7014 114.022 67.48 114.096 67.2586 114.096L67.849 118.229C68.0704 118.229 68.2918 118.155 68.5132 118.155L67.9228 114.022Z" fill="white"/>
<path d="M66.2254 114.244C66.004 114.244 65.7826 114.317 65.5612 114.317L66.004 118.45C66.2254 118.45 66.4468 118.376 66.6682 118.376L66.2254 114.244Z" fill="white"/>
<path d="M53.9745 5.68265C54.1959 5.68265 54.4173 5.60885 54.6387 5.60885L54.1959 1.47601C53.9745 1.47601 53.7531 1.54981 53.5317 1.54981L53.9745 5.68265Z" fill="white"/>
<path d="M64.6018 114.391C64.3804 114.391 64.159 114.391 63.9376 114.465L64.2328 118.598C64.4542 118.598 64.6756 118.598 64.897 118.524L64.6018 114.391Z" fill="white"/>
<path d="M55.6719 5.53506C55.8933 5.53506 56.1147 5.53506 56.3361 5.46126L56.0409 1.32841C55.8195 1.32841 55.5981 1.32841 55.3767 1.40222L55.6719 5.53506Z" fill="white"/>
<path d="M57.2955 5.38745C57.5169 5.38745 57.7383 5.38745 57.9597 5.38745L57.7383 1.25461C57.5169 1.25461 57.2955 1.25461 57.0741 1.25461L57.2955 5.38745Z" fill="white"/>
<path d="M62.9044 114.539C62.683 114.539 62.4616 114.539 62.2402 114.539L62.4616 118.672C62.683 118.672 62.9044 118.672 63.1258 118.672L62.9044 114.539Z" fill="white"/>
<path d="M58.9929 5.38745C59.2143 5.38745 59.4357 5.38745 59.6571 5.38745L59.5833 1.25461C59.3619 1.25461 59.1405 1.25461 58.9191 1.25461L58.9929 5.38745Z" fill="white"/>
<path d="M61.2808 114.613C61.0594 114.613 60.838 114.613 60.6166 114.613L60.6904 118.745C60.9118 118.745 61.1332 118.745 61.3546 118.745L61.2808 114.613Z" fill="white"/>
</g>
<g opacity="0.55">
<path d="M60.2476 17.5646C36.8527 17.5646 17.8859 36.6052 17.8859 59.9262C17.8859 83.2472 36.9265 102.288 60.2476 102.288C83.5686 102.288 102.609 83.2472 102.609 59.9262C102.609 36.6052 83.5686 17.5646 60.2476 17.5646ZM60.2476 100.812C37.7383 100.812 19.3619 82.5092 19.3619 59.9262C19.3619 37.3432 37.6645 19.0406 60.2476 19.0406C82.7568 19.0406 101.133 37.3432 101.133 59.9262C101.133 82.5092 82.7568 100.812 60.2476 100.812Z" fill="white"/>
</g>
<path d="M68.5723 61.8524C63.7347 63.9911 60.221 67.9122 58.4387 72.4952C63.3782 74.3793 68.6232 74.1247 73.1044 72.1387C74.7339 68.014 72.697 63.431 68.5723 61.8524ZM66.6882 68.8288C66.128 69.0834 65.466 68.8288 65.2114 68.2686C64.9568 67.7085 65.2114 67.0465 65.7716 66.7919C66.3317 66.5373 66.9937 66.7919 67.2483 67.352C67.5029 67.9122 67.2483 68.5742 66.6882 68.8288Z" fill="white"/>
<path d="M71.3221 60.7321C72.9516 61.8015 74.2756 63.3291 75.0904 65.1114C75.956 67.0465 76.1597 69.0834 75.8033 71.1203C78.0439 70.7129 80.3863 71.8332 81.3538 74.0229C82.4741 76.569 81.3538 79.5734 78.7568 80.6937L78.604 80.7446C77.3819 79.166 75.1922 78.555 73.2571 79.4207L67.0955 82.1705C67.7575 83.6472 68.776 84.8694 70.049 85.786C69.8963 87.3646 70.1 88.9432 70.7619 90.369L76.9236 87.6192C78.8586 86.7535 79.8261 84.7675 79.5206 82.7815L79.6734 82.7306C85.6313 80.0826 88.3302 73.1063 85.6822 67.1483C83.187 61.6487 76.9745 58.9498 71.3221 60.7321Z" fill="white"/>
<path d="M40.6166 61.4301L44.0852 69.991C44.897 69.4744 45.7088 69.1054 46.2254 68.884L54.2697 65.6368C56.8527 64.6036 57.9597 62.6848 58.4026 61.2826C58.993 59.5852 58.9192 57.6663 58.3288 56.1165L58.255 55.8951C57.886 55.0833 57.1479 54.7143 56.7051 54.9357L40.6166 61.4301ZM53.9007 60.7659C53.5317 60.7659 53.2365 60.5446 53.0889 60.2494C52.9413 59.8065 53.1627 59.2899 53.6055 59.1423H53.6793C54.1221 58.9947 54.5649 59.2161 54.7863 59.6589C54.9339 60.1017 54.7125 60.6183 54.2697 60.7659C54.1221 60.7659 53.9745 60.7659 53.9007 60.7659Z" fill="white"/>
<path d="M39.2144 62.0206C35.0815 64.3084 32.7937 69.0316 33.3841 73.8287L41.0594 73.5335C41.0594 73.3858 41.1332 73.312 41.1332 73.1644C41.3546 72.3526 41.945 71.5409 42.7568 70.8029L39.2144 62.0206Z" fill="white"/>
<path d="M33.7531 75.3785C34.9339 79.1423 36.7789 81.6515 39.4358 83.0538L42.6092 78.9947C41.7236 77.9615 41.1332 76.4854 40.9856 75.157L33.7531 75.3785Z" fill="white"/>
<path d="M40.838 83.718C43.1258 84.6036 45.7088 84.6773 48.0704 84.0131L46.742 80.766C45.7826 80.9136 44.6756 80.6183 43.7162 79.9541L40.838 83.718Z" fill="white"/>
<path d="M48.218 80.3231L49.4726 83.4965L58.2549 79.9541L51.6867 80.766L56.8527 76.8545L48.218 80.3231Z" fill="white"/>
<path fill-rule="evenodd" clip-rule="evenodd" d="M60.9856 49.7696L58.4026 54.1238C58.4026 54.1976 58.3288 54.1976 58.3288 54.2714C58.255 54.5666 58.4026 54.9356 58.7716 55.0094L63.6424 56.4117C63.9376 56.4855 64.3066 56.3378 64.3804 55.9688C64.4542 55.6736 64.3066 55.3046 63.9376 55.2308L59.8048 54.05L61.945 50.36C62.0188 50.2124 62.0926 49.991 62.0188 49.8434C61.8712 49.5482 61.576 49.3268 61.207 49.4744C61.207 49.5482 61.0594 49.622 60.9856 49.7696Z" fill="white"/>
<path d="M90.7273 46.4945C83.1258 46.4945 77.9597 41.1808 75.5243 38.0812C73.0889 41.1808 67.9228 46.4945 60.3952 46.4945C52.7937 46.4945 47.6276 41.1808 45.1922 38.0812C42.7568 41.1808 37.5907 46.4945 29.9893 46.4945V42.952C38.5501 42.952 43.5686 34.0959 43.6424 34.0221L45.1922 31.2915L46.742 34.0221C46.8158 34.0959 51.9081 42.952 60.3952 42.952C68.8822 42.952 73.9745 34.0959 74.0483 34.0221L75.5981 31.2915L77.1479 34.0221C77.2217 34.0959 82.314 42.952 90.8011 42.952V46.4945H90.7273Z" fill="white"/>
</g>
<defs>
<clipPath id="clip0_39_4785">
<rect width="120" height="120" fill="white" transform="translate(0.0999756)"/>
</clipPath>
</defs>
</svg>
