<svg width="121" height="121" viewBox="0 0 121 121" fill="none" xmlns="http://www.w3.org/2000/svg">
<g clip-path="url(#clip0_39_4786)">
<g opacity="0.4">
<path d="M61.1395 8.20512C67.8794 8.20512 74.6926 9.52381 81.2127 12.2344C107.806 23.37 120.334 53.9927 109.198 80.5861C100.846 100.586 81.3592 112.674 60.9197 112.674C54.1798 112.674 47.3666 111.355 40.8464 108.645C14.3995 97.4359 1.79881 66.8132 12.9343 40.2198C21.286 20.2198 40.7732 8.20512 61.1395 8.20512ZM61.2127 6.08058C39.2347 6.08058 19.5277 19.1941 11.0296 39.4139C5.46181 52.7472 5.38855 67.5458 10.8831 80.9524C16.3776 94.359 26.7805 104.908 40.1138 110.476C46.7805 113.26 53.8135 114.725 60.9929 114.725C82.971 114.725 102.678 101.612 111.176 81.3919C122.751 53.7729 109.711 21.9048 82.0186 10.3297C75.4252 7.54578 68.3922 6.08058 61.2127 6.08058Z" fill="white"/>
</g>
<g opacity="0.6">
<path d="M78.0625 19.9267C55.7182 10.5494 29.9307 21.1722 20.6267 43.4432C11.2494 65.7875 21.8721 91.5751 44.1431 100.879C66.4875 110.256 92.275 99.6337 101.579 77.3626C110.956 55.0183 100.407 29.304 78.0625 19.9267ZM98.2823 75.9707C89.7109 96.4835 66.0479 106.154 45.5351 97.5824C25.0223 89.011 15.3519 65.348 23.9234 44.8352C32.4948 24.3223 56.1578 14.652 76.6706 23.2234C97.1834 31.7949 106.854 55.4579 98.2823 75.9707Z" fill="white"/>
</g>
<g opacity="0.4">
<path d="M91.4692 99.6337L89.7842 97.4359C79.8941 105.055 67.6597 108.425 55.2787 106.886L54.9124 109.67C68.026 111.282 80.993 107.692 91.4692 99.6337Z" fill="white"/>
<path d="M24.1432 89.0842C16.5241 79.2674 13.1542 67.033 14.6926 54.652L11.9088 54.2857C10.297 67.3993 13.8868 80.3663 21.9454 90.8425L24.1432 89.0842Z" fill="white"/>
<path d="M110.297 66.6667C111.982 53.4799 108.392 40.5128 100.26 30.0366L98.0626 31.7216C105.755 41.6117 109.125 53.9194 107.513 66.3004L110.297 66.6667Z" fill="white"/>
<path d="M66.8538 13.9927L67.2201 11.2088C54.1066 9.59707 41.1395 13.1868 30.6633 21.2454L31.4692 22.4176L32.3483 23.5165L32.4216 23.4432C42.2384 15.8242 54.4729 12.4542 66.8538 13.9927Z" fill="white"/>
</g>
<g opacity="0.8">
<path d="M70.5168 107.985L70.3702 107.326C57.8428 109.817 45.0955 107.253 34.4728 100.147L34.1065 100.733C44.8757 107.912 57.7695 110.549 70.5168 107.985Z" fill="white"/>
<path d="M14.1798 69.7436C11.6889 57.2161 14.1798 44.5421 21.286 33.9194L20.6999 33.5531C13.5204 44.3223 10.9563 57.2161 13.5204 69.8901L14.1798 69.7436Z" fill="white"/>
<path d="M101.433 87.3993C108.685 76.63 111.249 63.663 108.685 50.9157L108.026 51.0623C110.517 63.5897 107.953 76.4102 100.846 87.033L101.433 87.3993Z" fill="white"/>
<path d="M87.5864 20.5861L87.9527 20C77.1834 12.8205 64.2897 10.2564 51.6157 12.8205L51.6889 13.5531H51.7622C64.2897 11.0623 76.9636 13.5531 87.5864 20.5861Z" fill="white"/>
</g>
<g opacity="0.65">
<path d="M4.94904 62.2711C4.94904 62.4908 4.94904 62.7106 4.94904 62.9304L0.699951 63.0769C0.699951 62.8571 0.699951 62.6374 0.699951 62.4176L4.94904 62.2711Z" fill="white"/>
<path d="M5.02228 63.9561C5.02228 64.1758 5.09554 64.3956 5.09554 64.6154L0.846453 64.9084C0.846453 64.6887 0.773193 64.4689 0.773193 64.2491L5.02228 63.9561Z" fill="white"/>
<path d="M5.16882 65.641C5.16882 65.8608 5.16882 66.0806 5.24208 66.3004L0.992999 66.7399C0.992999 66.5201 0.919739 66.3004 0.919739 66.0806L5.16882 65.641Z" fill="white"/>
<path d="M5.38861 67.3993C5.38861 67.619 5.46187 67.8388 5.46187 68.0586L1.21279 68.6447C1.21279 68.4249 1.13953 68.2051 1.13953 67.9853L5.38861 67.3993Z" fill="white"/>
<path d="M116.524 53.1868C116.524 52.967 116.451 52.7472 116.451 52.5275L120.7 51.9414C120.7 52.1612 120.773 52.381 120.773 52.6007L116.524 53.1868Z" fill="white"/>
<path d="M116.304 51.4286C116.304 51.2088 116.231 50.989 116.231 50.7692L120.407 50.1099C120.407 50.3297 120.48 50.5495 120.48 50.7692L116.304 51.4286Z" fill="white"/>
<path d="M5.60838 69.0843C5.60838 69.304 5.68164 69.5238 5.68164 69.7436L1.50582 70.4029C1.50582 70.1832 1.43256 69.9634 1.43256 69.7436L5.60838 69.0843Z" fill="white"/>
<path d="M116.011 49.7436C115.938 49.5238 115.938 49.304 115.865 49.0842L120.041 48.2784C120.114 48.4982 120.114 48.7179 120.187 48.9377L116.011 49.7436Z" fill="white"/>
<path d="M5.90141 70.7692C5.97467 70.989 5.97467 71.2088 6.04793 71.4286L1.87211 72.2344C1.79885 72.0146 1.79885 71.7949 1.72559 71.5751L5.90141 70.7692Z" fill="white"/>
<path d="M115.645 48.0586C115.572 47.8388 115.572 47.619 115.498 47.3993L119.674 46.4469C119.748 46.6667 119.748 46.8864 119.821 47.1062L115.645 48.0586Z" fill="white"/>
<path d="M6.26774 72.4542C6.341 72.674 6.341 72.8938 6.41426 73.1136L2.23844 73.9927C2.16518 73.7729 2.16518 73.5531 2.09192 73.3333L6.26774 72.4542Z" fill="white"/>
<path d="M115.205 46.4469C115.132 46.2271 115.132 46.0073 115.059 45.7875L119.161 44.6886C119.235 44.9084 119.235 45.1282 119.308 45.348L115.205 46.4469Z" fill="white"/>
<path d="M6.634 74.0659C6.70726 74.2857 6.70726 74.5055 6.78052 74.7253L2.67795 75.8242C2.60469 75.6044 2.60469 75.3846 2.53143 75.1648L6.634 74.0659Z" fill="white"/>
<path d="M7.07357 75.7509C7.14683 75.9707 7.22009 76.1905 7.29335 76.4103L3.19079 77.5824C3.11753 77.3626 3.04427 77.1429 2.97101 76.9231L7.07357 75.7509Z" fill="white"/>
<path d="M114.766 44.7619C114.693 44.5421 114.619 44.3223 114.546 44.1026L118.649 42.9304C118.722 43.1502 118.795 43.37 118.868 43.5897L114.766 44.7619Z" fill="white"/>
<path d="M7.58637 77.3626C7.65963 77.5824 7.73289 77.8022 7.80615 77.9487L3.77685 79.2674C3.70359 79.0476 3.63033 78.8278 3.55707 78.6813L7.58637 77.3626Z" fill="white"/>
<path d="M114.326 43.1502C114.253 42.9304 114.18 42.7106 114.107 42.4908L118.136 41.1722C118.209 41.3919 118.282 41.6117 118.356 41.8315L114.326 43.1502Z" fill="white"/>
<path d="M113.74 41.5385C113.667 41.3187 113.594 41.0989 113.52 40.9524L117.55 39.4872C117.623 39.707 117.696 39.9267 117.77 40.0733L113.74 41.5385Z" fill="white"/>
<path d="M8.17249 78.9744C8.24575 79.1941 8.31901 79.4139 8.39227 79.5604L4.36297 81.0256C4.28971 80.8059 4.21645 80.5861 4.14319 80.4396L8.17249 78.9744Z" fill="white"/>
<path d="M113.154 39.9267C113.081 39.707 113.008 39.4872 112.934 39.3407L116.89 37.8022C116.964 38.022 117.037 38.2418 117.11 38.3883L113.154 39.9267Z" fill="white"/>
<path d="M8.75853 80.5861C8.83179 80.8059 8.90505 81.0257 8.97831 81.1722L5.02227 82.7839C4.94901 82.5641 4.87575 82.3443 4.80249 82.1978L8.75853 80.5861Z" fill="white"/>
<path d="M112.495 38.315C112.422 38.0952 112.348 37.8755 112.275 37.7289L116.158 36.044C116.231 36.2637 116.304 36.4835 116.378 36.63L112.495 38.315Z" fill="white"/>
<path d="M9.41788 82.1978C9.49114 82.4176 9.5644 82.6374 9.63766 82.7839L5.75488 84.4689C5.68162 84.2491 5.60836 84.0293 5.5351 83.8828L9.41788 82.1978Z" fill="white"/>
<path d="M10.0772 83.7363C10.1505 83.956 10.297 84.1026 10.3703 84.3223L6.4875 86.1538C6.41424 85.9341 6.26772 85.7875 6.19446 85.5678L10.0772 83.7363Z" fill="white"/>
<path d="M111.835 36.7766C111.762 36.5568 111.616 36.4103 111.542 36.1905L115.425 34.359C115.498 34.5788 115.645 34.7253 115.718 34.9451L111.835 36.7766Z" fill="white"/>
<path d="M111.103 35.2381C111.03 35.0183 110.883 34.8718 110.81 34.652L114.619 32.7473C114.693 32.967 114.839 33.1136 114.912 33.3333L111.103 35.2381Z" fill="white"/>
<path d="M10.8098 85.2747C10.8831 85.4945 11.0296 85.641 11.1029 85.8608L7.29335 87.7656C7.22009 87.5458 7.07357 87.3993 7.00031 87.1795L10.8098 85.2747Z" fill="white"/>
<path d="M11.6157 86.8132C11.689 87.033 11.8355 87.1795 11.9088 87.3993L8.1725 89.4505C8.09924 89.2308 7.95272 89.0843 7.87946 88.8645L11.6157 86.8132Z" fill="white"/>
<path d="M110.297 33.6996C110.224 33.4799 110.077 33.3333 110.004 33.1136L113.74 31.0623C113.813 31.2821 113.96 31.4286 114.033 31.6484L110.297 33.6996Z" fill="white"/>
<path d="M109.491 32.1612C109.418 31.9414 109.271 31.7949 109.125 31.5751L112.788 29.4505C112.934 29.6703 113.008 29.8168 113.154 30.0366L109.491 32.1612Z" fill="white"/>
<path d="M12.4949 88.2784C12.6414 88.4982 12.7146 88.6447 12.8612 88.8645L9.19815 90.989C9.05163 90.7692 8.97837 90.6227 8.83185 90.4029L12.4949 88.2784Z" fill="white"/>
<path d="M108.612 30.696C108.466 30.4762 108.392 30.3297 108.246 30.1099L111.835 27.8388C111.982 28.0586 112.055 28.2051 112.202 28.4249L108.612 30.696Z" fill="white"/>
<path d="M13.3007 89.7436C13.4472 89.9634 13.5205 90.1099 13.667 90.3297L10.0772 92.6007C9.93072 92.381 9.85746 92.2344 9.71094 92.0147L13.3007 89.7436Z" fill="white"/>
<path d="M14.2531 91.2088C14.3996 91.3553 14.4728 91.5751 14.6194 91.7216L11.1029 94.0659C10.9564 93.9194 10.8831 93.6996 10.7366 93.5531L14.2531 91.2088Z" fill="white"/>
<path d="M107.66 29.304C107.513 29.1575 107.44 28.9377 107.293 28.7912L110.81 26.4469C110.956 26.5934 111.03 26.8132 111.176 26.9597L107.66 29.304Z" fill="white"/>
<path d="M15.2054 92.6007C15.3519 92.7473 15.4985 92.967 15.5717 93.1136L12.1285 95.6044C11.982 95.4579 11.8355 95.2381 11.7622 95.0916L15.2054 92.6007Z" fill="white"/>
<path d="M106.707 27.8388C106.561 27.6923 106.414 27.4725 106.341 27.326L109.784 24.8352C109.931 24.9817 110.077 25.2015 110.15 25.348L106.707 27.8388Z" fill="white"/>
<path d="M105.682 26.4469C105.535 26.3004 105.389 26.0806 105.315 25.9341L108.685 23.37C108.832 23.5165 108.978 23.7363 109.052 23.8828L105.682 26.4469Z" fill="white"/>
<path d="M16.2311 93.9927C16.3776 94.1392 16.5241 94.359 16.5974 94.5055L13.2274 97.0696C13.0809 96.9231 12.9344 96.7033 12.8611 96.5568L16.2311 93.9927Z" fill="white"/>
<path d="M17.33 95.3114C17.4765 95.4579 17.623 95.6777 17.7695 95.8242L14.4728 98.5348C14.3263 98.3883 14.1798 98.1685 14.0333 98.022L17.33 95.3114Z" fill="white"/>
<path d="M104.656 25.1282C104.509 24.9817 104.363 24.7619 104.216 24.6154L107.513 21.9048C107.66 22.0513 107.806 22.2711 107.953 22.4176L104.656 25.1282Z" fill="white"/>
<path d="M103.557 23.8095C103.411 23.663 103.264 23.5165 103.118 23.2967L106.341 20.5128C106.487 20.6593 106.634 20.8059 106.781 21.0256L103.557 23.8095Z" fill="white"/>
<path d="M18.3556 96.63C18.5022 96.7766 18.6487 96.9231 18.7952 97.1429L15.5718 99.9267C15.4252 99.7802 15.2787 99.6337 15.1322 99.4139L18.3556 96.63Z" fill="white"/>
<path d="M19.5278 97.9487C19.6743 98.0952 19.8208 98.2418 19.9674 98.4615L16.8172 101.319C16.6707 101.172 16.5241 101.026 16.3776 100.806L19.5278 97.9487Z" fill="white"/>
<path d="M102.385 22.4908C102.238 22.3443 102.092 22.1245 101.945 21.978L105.096 19.1209C105.242 19.2674 105.389 19.4139 105.535 19.6337L102.385 22.4908Z" fill="white"/>
<path d="M20.7 99.1209C20.8465 99.2674 20.993 99.4139 21.1395 99.5604L18.1358 102.564C17.9893 102.418 17.8428 102.271 17.6963 102.125L20.7 99.1209Z" fill="white"/>
<path d="M101.213 21.2454C101.066 21.0989 100.92 20.9524 100.773 20.8059L103.777 17.8022C103.923 17.9487 104.07 18.0952 104.216 18.2418L101.213 21.2454Z" fill="white"/>
<path d="M21.8721 100.366C22.0186 100.513 22.1652 100.659 22.3849 100.806L19.4545 103.883C19.308 103.736 19.1615 103.59 18.9417 103.443L21.8721 100.366Z" fill="white"/>
<path d="M100.041 20.0733C99.8941 19.9267 99.7476 19.7802 99.5278 19.6337L102.458 16.5568C102.605 16.7033 102.751 16.8498 102.971 16.9963L100.041 20.0733Z" fill="white"/>
<path d="M98.7952 18.9011C98.6486 18.7546 98.5021 18.6081 98.2823 18.4615L101.139 15.3114C101.286 15.4579 101.433 15.6044 101.652 15.7509L98.7952 18.9011Z" fill="white"/>
<path d="M23.1175 101.538C23.264 101.685 23.4106 101.832 23.6303 101.978L20.7732 105.128C20.6267 104.982 20.4802 104.835 20.2604 104.689L23.1175 101.538Z" fill="white"/>
<path d="M24.4362 102.637C24.5827 102.784 24.8025 102.93 24.949 103.077L22.1652 106.3C22.0186 106.154 21.7989 106.007 21.6523 105.861L24.4362 102.637Z" fill="white"/>
<path d="M97.4765 17.7289C97.33 17.5824 97.1102 17.4359 96.9637 17.2894L99.7476 14.0659C99.8941 14.2125 100.114 14.359 100.26 14.5055L97.4765 17.7289Z" fill="white"/>
<path d="M25.7549 103.736C25.9014 103.883 26.1212 104.029 26.2677 104.176L23.6304 107.473C23.4839 107.326 23.2641 107.179 23.1176 107.033L25.7549 103.736Z" fill="white"/>
<path d="M96.2311 16.63C96.0846 16.4835 95.8648 16.337 95.7183 16.1905L98.3556 12.8938C98.5021 13.0403 98.7219 13.1868 98.8684 13.3333L96.2311 16.63Z" fill="white"/>
<path d="M94.8391 15.6044C94.6926 15.4579 94.4728 15.3114 94.3263 15.2381L96.8904 11.8681C97.0369 12.0147 97.2567 12.1612 97.4032 12.2344L94.8391 15.6044Z" fill="white"/>
<path d="M27.0736 104.835C27.2201 104.982 27.4399 105.128 27.5864 105.201L25.0223 108.571C24.8758 108.425 24.656 108.278 24.5095 108.205L27.0736 104.835Z" fill="white"/>
<path d="M93.4472 14.5787C93.3007 14.4322 93.0809 14.359 92.9344 14.2124L95.352 10.7692C95.4985 10.9157 95.7183 10.989 95.8648 11.1355L93.4472 14.5787Z" fill="white"/>
<path d="M28.4655 105.861C28.612 106.007 28.8318 106.081 28.9783 106.227L26.5608 109.67C26.4142 109.524 26.1945 109.451 26.0479 109.304L28.4655 105.861Z" fill="white"/>
<path d="M92.0553 13.5531C91.9087 13.4066 91.689 13.3333 91.5424 13.1868L93.8868 9.67033C94.1066 9.81685 94.2531 9.89011 94.3996 10.0366L92.0553 13.5531Z" fill="white"/>
<path d="M29.8574 106.813C30.004 106.96 30.2237 107.033 30.3703 107.179L28.0259 110.696C27.8062 110.549 27.6596 110.476 27.5131 110.33L29.8574 106.813Z" fill="white"/>
<path d="M90.59 12.674C90.3703 12.5275 90.2237 12.4542 90.004 12.3077L92.2018 8.71794C92.4215 8.86446 92.5681 8.93772 92.7878 9.08424L90.59 12.674Z" fill="white"/>
<path d="M31.3226 107.692C31.5424 107.839 31.6889 107.912 31.9087 108.059L29.7109 111.648C29.4911 111.502 29.3446 111.429 29.1248 111.282L31.3226 107.692Z" fill="white"/>
<path d="M32.7879 108.645C33.0077 108.791 33.1542 108.864 33.374 108.938L31.2494 112.601C31.0296 112.527 30.8831 112.381 30.6633 112.308L32.7879 108.645Z" fill="white"/>
<path d="M89.1249 11.7949C88.9051 11.6483 88.7586 11.5751 88.5388 11.5018L90.6633 7.83882C90.8831 7.91208 91.0296 8.0586 91.2494 8.13186L89.1249 11.7949Z" fill="white"/>
<path d="M87.6597 10.9157C87.4399 10.8425 87.2934 10.696 87.0736 10.6227L89.0516 6.88644C89.2714 6.9597 89.4179 7.10622 89.6377 7.17948L87.6597 10.9157Z" fill="white"/>
<path d="M34.2531 109.451C34.4729 109.524 34.6194 109.67 34.8392 109.744L32.8611 113.48C32.6414 113.407 32.4948 113.26 32.2751 113.187L34.2531 109.451Z" fill="white"/>
<path d="M35.7915 110.256C36.0113 110.33 36.1578 110.476 36.3776 110.549L34.4729 114.359C34.2531 114.286 34.1066 114.139 33.8868 114.066L35.7915 110.256Z" fill="white"/>
<path d="M86.1212 10.1099C85.9014 10.0366 85.7549 9.89011 85.5351 9.81685L87.4399 6.00732C87.6597 6.08058 87.8062 6.2271 88.026 6.30036L86.1212 10.1099Z" fill="white"/>
<path d="M84.5827 9.37729C84.3629 9.30403 84.2164 9.23077 83.9966 9.08425L85.7549 5.20146C85.9747 5.27472 86.1944 5.34798 86.341 5.4945L84.5827 9.37729Z" fill="white"/>
<path d="M37.33 110.989C37.5498 111.062 37.6963 111.136 37.9161 111.282L36.1578 115.165C35.938 115.092 35.7183 115.018 35.5717 114.872L37.33 110.989Z" fill="white"/>
<path d="M83.0443 8.71795C82.8245 8.64469 82.678 8.57143 82.4582 8.42491L84.1432 4.54213C84.363 4.61539 84.5095 4.68865 84.7293 4.83517L83.0443 8.71795Z" fill="white"/>
<path d="M38.8685 111.648C39.0882 111.722 39.2348 111.795 39.4545 111.941L37.7696 115.824C37.5498 115.751 37.4033 115.678 37.1835 115.531L38.8685 111.648Z" fill="white"/>
<path d="M81.4325 8.05861C81.2128 7.98535 80.993 7.91209 80.8465 7.83883L82.3849 3.88278C82.6047 3.95604 82.8245 4.0293 82.971 4.10256L81.4325 8.05861Z" fill="white"/>
<path d="M40.4802 112.308C40.7 112.381 40.9197 112.454 41.0663 112.527L39.5278 116.484C39.308 116.41 39.0882 116.337 38.9417 116.264L40.4802 112.308Z" fill="white"/>
<path d="M42.0186 112.967C42.2384 113.04 42.4582 113.114 42.6047 113.187L41.2128 117.216C40.993 117.143 40.7732 117.07 40.6267 116.996L42.0186 112.967Z" fill="white"/>
<path d="M79.8208 7.39926C79.601 7.326 79.3813 7.25274 79.2347 7.17948L80.6267 3.15018C80.8465 3.22344 81.0662 3.2967 81.2128 3.36996L79.8208 7.39926Z" fill="white"/>
<path d="M43.6304 113.48C43.8501 113.553 44.0699 113.626 44.2897 113.7L42.971 117.729C42.7512 117.656 42.5315 117.582 42.3117 117.509L43.6304 113.48Z" fill="white"/>
<path d="M78.2091 6.88644C77.9893 6.81318 77.7696 6.73992 77.5498 6.66666L78.8685 2.63736C79.0882 2.71062 79.308 2.78388 79.5278 2.85714L78.2091 6.88644Z" fill="white"/>
<path d="M76.5974 6.37363C76.3776 6.30037 76.1578 6.22711 75.938 6.22711L77.1102 2.12454C77.33 2.1978 77.5498 2.27106 77.7696 2.27106L76.5974 6.37363Z" fill="white"/>
<path d="M45.3154 113.993C45.5351 114.066 45.7549 114.139 45.9747 114.139L44.8025 118.242C44.5828 118.168 44.363 118.095 44.1432 118.095L45.3154 113.993Z" fill="white"/>
<path d="M46.9271 114.432C47.1468 114.505 47.3666 114.579 47.5864 114.579L46.5608 118.681C46.341 118.608 46.1212 118.535 45.9014 118.535L46.9271 114.432Z" fill="white"/>
<path d="M74.9124 5.93407C74.6926 5.86081 74.4728 5.78755 74.2531 5.78755L75.2787 1.68498C75.4985 1.75824 75.7182 1.8315 75.938 1.8315L74.9124 5.93407Z" fill="white"/>
<path d="M48.612 114.799C48.8318 114.872 49.0516 114.872 49.2714 114.945L48.3923 119.121C48.1725 119.048 47.9527 119.048 47.7329 118.974L48.612 114.799Z" fill="white"/>
<path d="M73.3007 5.49451C73.0809 5.42125 72.8611 5.42125 72.6414 5.34799L73.5205 1.17216C73.7403 1.24542 73.96 1.24542 74.1798 1.31868L73.3007 5.49451Z" fill="white"/>
<path d="M50.297 115.165C50.5168 115.238 50.7366 115.238 50.9564 115.311L50.1505 119.487C49.9307 119.414 49.7109 119.414 49.4911 119.414L50.297 115.165Z" fill="white"/>
<path d="M71.6157 5.1282C71.3959 5.05494 71.1761 5.05494 70.9564 4.98168L71.7622 0.87912C71.982 0.95238 72.2018 0.95238 72.4216 1.02564L71.6157 5.1282Z" fill="white"/>
<path d="M51.982 115.458C52.2018 115.458 52.4216 115.531 52.6413 115.531L51.982 119.707C51.7622 119.707 51.5424 119.634 51.3227 119.634L51.982 115.458Z" fill="white"/>
<path d="M69.9307 4.83516C69.7109 4.83516 69.4911 4.7619 69.2714 4.7619L69.9307 0.586075C70.1505 0.586075 70.3703 0.659335 70.59 0.659335L69.9307 4.83516Z" fill="white"/>
<path d="M53.667 115.751C53.8868 115.751 54.1066 115.824 54.3263 115.824L53.8135 120.073C53.5937 120.073 53.374 120 53.1542 120L53.667 115.751Z" fill="white"/>
<path d="M68.1725 4.61539C67.9527 4.61539 67.7329 4.54213 67.5131 4.54213L68.0992 0.293045C68.319 0.293045 68.5388 0.366305 68.7585 0.366305L68.1725 4.61539Z" fill="white"/>
<path d="M66.4875 4.3956C66.2677 4.3956 66.0479 4.32234 65.8282 4.32234L66.1945 0.0732574C66.4142 0.0732574 66.634 0.146518 66.8538 0.146518L66.4875 4.3956Z" fill="white"/>
<path d="M55.352 115.897C55.5717 115.897 55.7915 115.971 56.0113 115.971L55.645 120.22C55.4252 120.22 55.2054 120.147 54.9857 120.147L55.352 115.897Z" fill="white"/>
<path d="M64.8025 4.24908C64.5827 4.24908 64.363 4.24908 64.1432 4.17582L64.4362 0C64.656 0 64.8758 0 65.0956 0.0732601L64.8025 4.24908Z" fill="white"/>
<path d="M57.0369 116.044C57.2567 116.044 57.4765 116.044 57.6963 116.117L57.4032 120.366C57.1835 120.366 56.9637 120.366 56.7439 120.293L57.0369 116.044Z" fill="white"/>
</g>
<path d="M32.0553 60.8059C32.5681 60.7326 33.0809 60.6593 33.5937 60.5861C33.374 50.2564 30.297 48.2051 30.297 48.2051C30.297 48.2051 32.7146 51.8681 32.0553 60.8059Z" fill="white"/>
<path d="M35.4252 60.4396C36.1578 60.3663 36.8904 60.3663 37.6963 60.3663C37.2567 49.6703 30.7366 42.4908 30.7366 42.4908C30.7366 42.4908 36.2311 51.1355 35.4252 60.4396Z" fill="white"/>
<path d="M38.5754 60.3663C38.6487 60.3663 38.7219 60.3663 38.7952 60.3663C39.9674 60.3663 41.2128 60.4396 42.3849 60.5128C42.6047 56.7033 43.9967 51.5018 45.6084 46.8132C46.0479 48.1319 46.4875 49.6703 46.8538 51.3553C45.7549 54.1392 44.7293 57.2894 44.0699 60.6594C44.7293 60.7326 45.4619 60.8059 46.1212 60.9524C46.1212 58.6813 46.5608 56.1905 47.2934 53.6996C47.7329 56.1172 47.9527 58.6813 47.8062 61.2454C48.5388 61.3919 49.2714 61.5385 50.004 61.685C49.7842 57.5824 49.0516 54.0659 48.0992 51.1355C50.1505 45.2015 53.0077 40.2198 53.0077 40.2198C53.0077 40.2198 50.1505 43.8095 47.5131 49.5971C47.0003 48.1319 46.4142 46.8132 45.9014 45.7143C47.9527 39.8535 50.0772 35.0916 50.0772 35.0916C50.0772 35.0916 47.7329 38.9744 45.2421 44.4689C44.2897 42.7106 43.6304 41.8315 43.6304 41.8315C43.6304 41.8315 44.2164 43.0769 44.949 45.1282C43.1908 49.1575 41.3593 53.9927 40.4069 58.8278C39.3813 48.9377 38.5022 44.7619 34.9124 36.7033C34.9857 36.7033 39.3813 52.967 38.5754 60.3663Z" fill="white"/>
<path d="M83.7036 36.7033C83.7036 36.7033 80.7732 39.1209 78.0626 43.9561C76.2311 38.6081 73.96 35.7509 73.96 35.7509C73.96 35.7509 75.9381 40.0733 77.1835 45.5678C76.6707 46.5934 76.2311 47.7656 75.7915 48.9377C75.2787 45.9341 74.5461 43.2967 73.8135 41.0256C74.6926 39.707 75.2787 38.9744 75.2787 38.9744C75.2787 38.9744 74.6194 39.4872 73.667 40.5861C72.1285 35.8242 70.5168 32.967 70.5168 32.967C70.5168 32.967 71.9087 36.5568 73.0076 41.3919C72.4216 42.1246 71.7622 43.0037 71.0296 44.0293C70.297 38.9011 69.5644 35.6777 69.5644 35.6777C69.5644 35.6777 69.9307 40.1465 70.004 45.7143C68.9051 47.6191 67.8794 49.8901 67.0003 52.5275C66.634 49.9634 65.9747 47.6191 65.3886 45.7143C65.9747 44.9084 66.341 44.3956 66.341 44.3956C66.341 44.3956 65.9014 44.7619 65.2421 45.4213C64.5095 43.2967 63.7036 41.5385 63.0443 40.2198C63.3373 36.2637 63.7036 33.7729 63.7036 33.7729C63.7036 33.7729 63.1175 35.7509 62.5315 39.1941C61.7256 37.7289 61.1395 36.9963 61.1395 36.9963C61.1395 36.9963 61.7256 38.1685 62.3849 40.0733C61.9454 42.8572 61.5058 46.3736 61.286 50.6227C60.1139 52.5275 59.015 54.8718 58.1359 57.5824C57.6963 52.0147 57.037 47.1062 56.5241 43.7363C58.2091 39.9267 59.8941 37.6557 59.8941 37.6557C59.8941 37.6557 58.2091 39.3407 56.3044 42.4909C55.9381 40.2198 55.645 38.9011 55.645 38.9011C55.645 38.9011 55.7915 40.5128 56.0113 42.9304C53.667 47.1062 51.1029 53.5531 51.2494 61.9048C52.0553 62.1245 52.7879 62.3443 53.5937 62.5641C52.7146 55.3114 54.3263 49.011 56.1578 44.5421C56.5241 49.3773 56.8172 56.4835 56.2311 62.1246L57.623 61.2454C58.1359 60.8791 58.7219 60.5861 59.2348 60.2198C59.5278 57.8022 60.2604 55.3846 61.2128 53.1868C61.1395 55.0183 61.1395 56.9963 61.2128 59.0476C61.9454 58.6813 62.6047 58.315 63.3373 57.9487C63.0443 55.0916 62.8978 52.3077 62.8245 49.7436C63.4106 48.718 63.9234 47.8388 64.4362 47.033C65.0956 50.1832 65.5351 53.7729 65.1688 57.1429C66.1212 56.7033 67.1468 56.337 68.0992 55.9707C68.2457 53.3333 68.9783 50.6227 69.9307 48.2051C69.9307 50.6227 69.8575 53.1136 69.7109 55.4579C70.4435 55.2381 71.1761 55.0183 71.9087 54.7985C71.7622 51.3553 71.4692 48.2051 71.1761 45.4945C71.8355 44.1758 72.4948 43.0769 73.0809 42.0513C73.8868 45.8608 74.5461 50.2564 74.2531 54.2125C74.9857 54.0659 75.7183 53.9194 76.4509 53.7729C76.5241 51.7216 76.9637 49.6703 77.6963 47.6923C77.9893 49.5971 78.2091 51.5751 78.2091 53.4799C78.8685 53.4066 79.5278 53.3333 80.1871 53.2601C79.8941 50.2564 79.308 47.6191 78.5754 45.348C80.7 40.5128 83.7036 36.7033 83.7036 36.7033ZM62.8245 48.3517C62.8245 45.9341 62.8978 43.7363 62.971 41.8315C63.4106 43.2235 63.9234 44.7619 64.2897 46.5202C63.8501 46.9597 63.3373 47.6191 62.8245 48.3517Z" fill="white"/>
<path d="M91.8355 53.6264C91.9087 49.4506 90.9564 46.1538 89.9307 43.8095C90.6633 42.4908 91.1761 41.6117 91.1761 41.6117C91.1761 41.6117 90.5168 42.1245 89.6377 43.2234C88.7586 41.3919 87.9527 40.3663 87.9527 40.3663C87.9527 40.3663 88.5388 41.8315 89.0516 43.8828C87.5864 45.7875 85.7549 48.8645 84.8025 53.1136C84.8758 53.1136 84.949 53.1136 85.0223 53.1136C85.6084 53.1136 86.2677 53.1136 86.8538 53.1868C87.0003 50.1832 88.1725 47.1795 89.2714 44.9084C89.7842 47.3993 90.1505 50.5495 89.5644 53.3333C90.3703 53.4066 91.1029 53.5531 91.8355 53.6264Z" fill="white"/>
<path d="M85.6084 36.044C85.6084 36.044 82.2384 39.707 82.2384 53.2601C82.971 53.1868 83.6303 53.1868 84.3629 53.1868C82.971 45.2747 85.6084 36.044 85.6084 36.044Z" fill="white"/>
<path d="M85.1688 55.3846C75.4985 55.3846 66.4142 58.2418 58.7952 63.1502C60.0406 63.663 61.3593 64.2491 62.5314 64.9084C69.1981 61.0989 76.8904 58.9011 85.0955 58.9011C88.8318 58.9011 92.4948 59.3407 95.938 60.2198V56.63C92.4948 55.7509 88.9051 55.3846 85.1688 55.3846Z" fill="white"/>
<path d="M85.1688 63.37C78.7219 63.37 72.5681 64.9084 67.1469 67.5458C68.2458 68.2784 69.3447 69.0843 70.4436 69.8901C74.9857 67.9121 79.9674 66.8132 85.1688 66.8132C88.9051 66.8132 92.5681 67.3993 96.0113 68.4249V64.8352C92.4948 63.8828 88.9051 63.37 85.1688 63.37Z" fill="white"/>
<path d="M69.7842 78.315H74.6926C65.7549 68.6447 53.0076 62.5641 38.7952 62.5641C35.0589 62.5641 31.4692 63.0037 27.9527 63.8095V67.3993C31.3959 66.5201 35.0589 66.0806 38.7952 66.0806C50.8098 66.0073 61.6523 70.696 69.7842 78.315Z" fill="white"/>
<path d="M56.0846 78.315H62.678C55.938 73.4066 47.7329 70.5495 38.7952 70.5495C35.0589 70.5495 31.3959 71.0623 27.9527 72.0147V75.6777C31.3959 74.652 34.9857 74.0659 38.7952 74.0659C45.0223 74.0659 50.9564 75.6044 56.0846 78.315Z" fill="white"/>
</g>
<defs>
<clipPath id="clip0_39_4786">
<rect width="120" height="120.366" fill="white" transform="translate(0.699951)"/>
</clipPath>
</defs>
</svg>
