<?xml version="1.0" encoding="UTF-8"?>
<!-- Generator: Adobe Illustrator 27.7.0, SVG Export Plug-In . SVG Version: 6.00 Build 0)  -->
<svg xmlns="http://www.w3.org/2000/svg" xmlns:xlink="http://www.w3.org/1999/xlink" version="1.1" id="Layer_1" x="0px" y="0px" viewBox="0 0 87.3 148.1" style="enable-background:new 0 0 87.3 148.1;" xml:space="preserve">
<style type="text/css">
	.st0{clip-path:url(#SVGID_00000043420569712942339810000009515377919146864558_);fill:#FFFFFF;}
</style>
<g>
	<defs>
		<rect id="SVGID_1_" width="87.3" height="148.1"></rect>
	</defs>
	<clipPath id="SVGID_00000143591431559564921630000001906284420861684668_">
		<use xlink:href="#SVGID_1_" style="overflow:visible;"></use>
	</clipPath>
	<path style="clip-path:url(#SVGID_00000143591431559564921630000001906284420861684668_);fill:#FFFFFF;" d="M44.5,67.4h-8   c-3.8,0-6.9,3.1-6.9,6.9c0,3.8,3.1,6.9,6.9,6.9h8V67.4z M63.5,74.3c0-3.8-3.1-6.9-6.9-6.9h-6.9v13.9h6.9   C60.4,81.3,63.5,78.1,63.5,74.3 M81.8,135.5c0-4.7-2.6-8.8-6.3-10.9l-16.9-16.9V81.3h-8.8v48.6c0,1.4-1.2,2.6-2.6,2.6   s-2.6-1.2-2.6-2.6V81.3h-10v26.4l-12.8,12.8h0v0l-4,4c-3.8,2.2-6.4,6.3-6.4,11c0,6.2,4.5,11.4,10.4,12.4v0.2h48.6v-0.1   C76.7,147.5,81.8,142.1,81.8,135.5"></path>
	<path style="clip-path:url(#SVGID_00000143591431559564921630000001906284420861684668_);fill:#FFFFFF;" d="M42.1,30.5v-18   c0-6.6-5.1-12-11.5-12.5V0H0v18c0,6.6,5.1,12,11.5,12.5v0H42.1z"></path>
	<path style="clip-path:url(#SVGID_00000143591431559564921630000001906284420861684668_);fill:#FFFFFF;" d="M41.8,56.3V43.4   c0-4.7-3.6-8.6-8.3-9v0H11.6v12.9c0,4.7,3.6,8.6,8.3,9v0H41.8z"></path>
	<path style="clip-path:url(#SVGID_00000143591431559564921630000001906284420861684668_);fill:#FFFFFF;" d="M51.7,39.5V24.3   c0-5.6,4.3-10.1,9.8-10.6v0h25.8v15.2c0,5.6-4.3,10.1-9.8,10.6v0H51.7z"></path>
</g>
</svg>
