<svg width="8" height="9" viewBox="0 0 8 9" fill="none" xmlns="http://www.w3.org/2000/svg">
<path d="M3.81944 4.49967C4.39829 4.49967 4.95343 4.28018 5.36273 3.88948C5.77204 3.49878 6.00198 2.96888 6.00198 2.41634C6.00198 1.86381 5.77204 1.3339 5.36273 0.943202C4.95343 0.552501 4.39829 0.333008 3.81944 0.333008C3.2406 0.333008 2.68546 0.552501 2.27616 0.943202C1.86685 1.3339 1.6369 1.86381 1.6369 2.41634C1.6369 2.96888 1.86685 3.49878 2.27616 3.88948C2.68546 4.28018 3.2406 4.49967 3.81944 4.49967ZM7.63889 8.66634L6.54762 5.28092H1.09127L0 8.66634H7.63889Z" fill="#01437C"/>
</svg>
