<svg width="121" height="121" viewBox="0 0 121 121" fill="none" xmlns="http://www.w3.org/2000/svg">
<g clip-path="url(#clip0_39_4787)">
<g opacity="0.45">
<path d="M60.4619 110.044C32.8749 110.044 10.3796 87.5491 10.3796 59.962C10.3796 32.3749 32.7989 9.87967 60.4619 9.87967C88.125 9.87967 110.544 32.3749 110.544 59.962C110.544 87.5491 88.049 110.044 60.4619 110.044ZM60.4619 13.9075C35.0788 13.9075 14.4835 34.5788 14.4835 59.886C14.4835 85.1932 35.1548 105.864 60.4619 105.864C85.8451 105.864 106.44 85.1932 106.44 59.886C106.44 34.5788 85.7691 13.9075 60.4619 13.9075Z" fill="white"/>
</g>
<g opacity="0.9">
<path d="M60.4619 108.752C33.5588 108.752 11.6716 86.8651 11.6716 59.962C11.6716 33.0589 33.5588 11.1716 60.4619 11.1716C87.3651 11.1716 109.252 33.0589 109.252 59.962C109.252 86.8651 87.3651 108.752 60.4619 108.752ZM60.4619 11.4756C33.7868 11.4756 12.0516 33.2109 12.0516 59.886C12.0516 86.5611 33.7868 108.296 60.4619 108.296C87.1371 108.296 108.872 86.5611 108.872 59.886C108.872 33.2109 87.1371 11.4756 60.4619 11.4756Z" fill="white"/>
</g>
<g opacity="0.7">
<path d="M60.462 119.924C52.8622 119.924 45.2625 118.48 38.1187 115.516L38.4227 114.832C50.0503 119.544 62.6659 120.456 74.8255 117.416L74.9775 118.176C70.1136 119.316 65.2498 119.924 60.462 119.924Z" fill="white"/>
<path d="M116.32 81.6973L115.636 81.3933C120.12 69.9177 120.88 57.6061 117.916 45.6745L118.676 45.5225C121.64 57.6061 120.88 70.0697 116.32 81.6973Z" fill="white"/>
<path d="M2.32389 74.4015C-0.868001 61.6339 0.195963 48.4864 5.36379 36.4028L6.04777 36.7068C0.955938 48.6384 -0.108027 61.6339 3.00787 74.2495L2.32389 74.4015Z" fill="white"/>
<path d="M85.4651 6.30779C73.2295 0.607982 59.322 -0.759973 46.1744 2.50792L46.0224 1.74794C59.322 -1.51995 73.4575 -0.151993 85.8451 5.62381L85.4651 6.30779Z" fill="white"/>
</g>
<g opacity="0.3">
<path d="M60.538 17.3274C37.0547 17.3274 17.9794 36.4028 17.9794 59.886C17.9794 83.3692 37.0547 102.445 60.538 102.445C84.0212 102.445 103.097 83.3692 103.097 59.886C103.097 36.4028 84.0212 17.3274 60.538 17.3274ZM60.538 99.6327C38.5747 99.6327 20.7913 81.7733 20.7913 59.886C20.7913 37.9987 38.6507 20.1393 60.538 20.1393C82.5012 20.1393 100.285 37.9987 100.285 59.886C100.285 81.8493 82.5012 99.6327 60.538 99.6327Z" fill="white"/>
</g>
<g opacity="0.55">
<path d="M113.128 60.19V60.114C113.128 53.8822 112.064 47.8784 109.936 42.1026L112.14 41.2666C114.344 47.2704 115.408 53.5782 115.408 60.038V60.19H113.128Z" fill="white"/>
<path d="M50.0503 113.996C43.5905 112.78 37.5107 110.348 31.8869 107.004L33.1029 104.953C38.4227 108.22 44.2745 110.5 50.5063 111.64L50.0503 113.996Z" fill="white"/>
<path d="M17.5234 94.3129C13.4195 89.221 10.3036 83.4452 8.25168 77.2894L10.5316 76.5294C12.5075 82.4573 15.4714 87.9291 19.3473 92.7929L17.5234 94.3129Z" fill="white"/>
<path d="M102.413 95.6808L100.589 94.1609C104.692 89.373 107.808 83.9772 109.936 78.1254L112.14 78.9614C109.936 85.0412 106.668 90.665 102.413 95.6808Z" fill="white"/>
<path d="M69.2776 114.3L68.8977 111.944C75.0535 110.956 80.9813 108.904 86.4531 105.788L87.593 107.84C81.8932 111.108 75.7374 113.312 69.2776 114.3Z" fill="white"/>
<path d="M70.1136 8.28372C64.0338 7.14376 57.954 7.06776 51.8742 8.13172L51.4942 5.7758C57.878 4.71184 64.1858 4.78783 70.5696 5.9278L70.1136 8.28372Z" fill="white"/>
<path d="M7.94769 58.518L5.59177 58.442C5.74376 51.9063 7.11172 45.5985 9.46764 39.5947L11.6716 40.5066C9.39164 46.2064 8.09968 52.2862 7.94769 58.518Z" fill="white"/>
<path d="M100.969 26.3711C97.0167 21.6593 92.3049 17.6314 86.9851 14.5915L88.201 12.5396C93.7488 15.8075 98.6887 19.9113 102.793 24.8512L100.969 26.3711Z" fill="white"/>
<path d="M21.1713 25.0792L19.4233 23.5592C23.6792 18.6954 28.771 14.7435 34.3948 11.6276L35.5348 13.6795C30.063 16.6434 25.2751 20.5193 21.1713 25.0792Z" fill="white"/>
</g>
<g opacity="0.3">
<path d="M44.3505 120.532L43.6665 120.38C43.0585 120.228 42.5265 120.076 41.9186 119.924C26.4911 115.136 13.6475 104.649 5.74376 90.513L5.59177 90.209L10.7596 87.4731L10.9116 87.7771C18.0554 100.621 29.683 110.044 43.6665 114.376C44.2745 114.604 44.9585 114.756 45.5664 114.908L46.0984 115.06L44.3505 120.532ZM6.50374 90.361C14.3315 104.193 26.9471 114.452 42.0705 119.164C42.6025 119.316 43.2105 119.468 43.7425 119.62L45.0345 115.516C44.5025 115.364 43.8945 115.212 43.3625 115.06C29.379 110.652 17.6754 101.153 10.3796 88.3091L6.50374 90.361Z" fill="white"/>
<path d="M90.7849 114.832L88.049 109.664L88.353 109.512C101.121 102.369 110.468 90.741 114.8 76.8334L114.952 76.3774L120.5 78.1254L120.424 78.5054L120.044 78.4294L120.348 78.5814V78.6574C115.56 94.0089 105.148 106.852 91.0889 114.756L90.7849 114.832ZM89.037 109.968L91.0889 113.768C104.768 106.016 114.952 93.4769 119.588 78.5054L115.484 77.2134C111.076 91.1209 101.729 102.749 89.037 109.968Z" fill="white"/>
<path d="M111.608 35.0348L111.456 34.7308C104.844 21.3553 93.4449 11.2476 79.3853 6.30778L79.0813 6.15579L80.8293 0.607971L81.0573 0.759966C96.5607 6.15579 109.176 17.2514 116.548 32.0709L116.7 32.3749L111.608 35.0348ZM79.9173 5.6998C93.9008 10.7156 105.224 20.7473 111.912 34.0469L115.712 31.9949C108.492 17.7074 96.2568 6.91576 81.2093 1.51994L79.9173 5.6998Z" fill="white"/>
<path d="M6.04775 43.3185L0.499939 41.5706L0.575936 41.1906C5.74376 24.7752 17.1434 11.4756 32.7229 3.72386L33.0269 3.57187L35.7628 8.7397L35.4588 8.89169C21.2472 15.8835 10.8356 27.9671 6.19975 42.9386L6.04775 43.3185ZM1.41191 41.1146L5.51577 42.4066C10.3796 27.5111 20.7153 15.4275 34.7748 8.43571L32.7229 4.63583C17.6754 12.1596 6.57974 25.0792 1.41191 41.1146Z" fill="white"/>
</g>
<path d="M72.2416 34.5788V26.5231C72.2416 26.0671 71.9376 25.7631 71.4816 25.7631H59.322C58.866 25.7631 58.562 26.0671 58.562 26.5231V30.323C54.9902 30.551 53.0902 31.6149 53.0902 32.0709C53.0902 32.5269 55.3701 33.8189 59.854 33.8189C64.3378 33.8189 66.6178 32.5269 66.6178 32.0709C66.6178 31.6149 64.4138 30.399 60.158 30.323V27.3591H70.7976V33.4389C70.1136 32.9829 69.3537 32.5269 68.5937 32.1469C68.5177 34.6548 64.0338 35.7948 59.93 35.7948C55.7501 35.7948 51.2663 34.6548 51.2663 32.0709C51.2663 31.9949 51.2663 31.9949 51.2663 31.9949C47.3144 33.8949 44.8065 36.6308 44.8065 38.0747C44.8065 40.0507 50.5063 42.7106 59.702 42.7106C68.9737 42.7106 74.5975 39.9747 74.5975 38.0747C74.5215 37.1628 73.6855 35.8708 72.2416 34.5788Z" fill="white"/>
<path d="M59.626 44.5345C53.7742 44.5345 47.6944 43.3186 44.6545 41.1146V74.4015C44.6545 76.3774 50.3543 79.0374 59.55 79.0374C68.8217 79.0374 74.4455 76.3015 74.4455 74.4015V41.1146C71.6336 43.3945 65.4778 44.5345 59.626 44.5345ZM66.3898 67.1818C64.8698 67.7137 62.3619 68.0937 59.626 68.0937C56.8901 68.0937 54.3822 67.7137 52.8622 67.1818V52.7422C54.3822 53.2742 56.8901 53.6542 59.626 53.6542C62.3619 53.6542 64.8698 53.2742 66.3898 52.7422V67.1818Z" fill="white"/>
<path d="M50.5823 80.0253V83.8252C50.5823 84.7372 51.3422 85.4211 52.1782 85.4211C53.0142 85.4211 53.7742 84.6612 53.7742 83.8252V80.6333C52.6342 80.4813 51.5702 80.2533 50.5823 80.0253Z" fill="white"/>
<path d="M65.5538 80.6333V83.8252C65.5538 84.7372 66.3137 85.4211 67.1497 85.4211C67.9857 85.4211 68.7457 84.6612 68.7457 83.8252V80.0253C67.7577 80.2533 66.6177 80.4813 65.5538 80.6333Z" fill="white"/>
<path d="M70.1136 79.6453V86.9411H49.2143V79.7213C47.9984 79.3414 46.9344 78.9614 46.0224 78.4294V91.425C46.0224 92.3369 46.7824 93.0209 47.6184 93.0209C48.4543 93.0209 49.2143 92.2609 49.2143 91.425V88.4611H70.1136V91.425C70.1136 92.3369 70.8736 93.0209 71.7096 93.0209C72.5455 93.0209 73.3055 92.2609 73.3055 91.425V78.4294C72.3936 78.8854 71.3296 79.2654 70.1136 79.6453Z" fill="white"/>
</g>
<defs>
<clipPath id="clip0_39_4787">
<rect width="120" height="120.532" fill="white" transform="translate(0.499939)"/>
</clipPath>
</defs>
</svg>
