<?xml version="1.0" encoding="UTF-8"?><svg id="a" xmlns="http://www.w3.org/2000/svg" width="208" height="208" viewBox="0 0 208 208"><g opacity=".5"><path d="m104.07,188.01c-46.29,0-84.08-37.65-84.08-84.08S57.64,19.86,104.07,19.86s84.08,37.65,84.08,84.08-37.78,84.08-84.08,84.08Zm0-166.09c-45.26,0-82.01,36.75-82.01,82.01s36.75,82.01,82.01,82.01,82.01-36.75,82.01-82.01S149.33,21.92,104.07,21.92Z" fill="#fff"/></g><g opacity=".6"><path d="m104.06,28.63c-41.52,0-75.31,33.79-75.31,75.31s33.79,75.31,75.31,75.31,75.31-33.79,75.31-75.31S145.59,28.63,104.06,28.63Zm0,146.88c-39.46,0-71.57-32.11-71.57-71.57S64.6,32.37,104.06,32.37s71.57,32.11,71.57,71.57-32.11,71.57-71.57,71.57Z" fill="#fff"/></g><g opacity=".9"><path d="m182.08,104.19v-.13c0-9.28-1.55-18.18-4.64-26.69l3.35-1.16c3.22,8.9,4.9,18.31,4.9,27.85l-3.61.13Z" fill="#fff"/><path d="m88.46,184.01c-9.54-1.81-18.57-5.42-26.95-10.45l1.81-2.96c7.99,4.9,16.63,8.25,25.79,9.93l-.64,3.48Z" fill="#fff"/><path d="m40.36,154.87c-6.06-7.61-10.7-16.12-13.67-25.27l3.35-1.16c2.84,8.77,7.35,16.89,13.15,24.11l-2.84,2.32Z" fill="#fff"/><path d="m166.09,156.81l-2.71-2.32c6.06-7.09,10.7-15.09,13.93-23.73l3.35,1.16c-3.35,9.16-8.25,17.54-14.57,24.89Z" fill="#fff"/><path d="m116.96,184.53l-.52-3.48c9.16-1.42,17.92-4.51,26.05-9.15l1.68,3.09c-8.38,4.77-17.54,7.99-27.21,9.54Z" fill="#fff"/><path d="m118.25,27.21c-9.03-1.68-18.05-1.81-27.08-.26l-.52-3.48c9.41-1.55,18.83-1.42,28.24.26l-.64,3.48Z" fill="#fff"/><path d="m26.05,101.74l-3.48-.13c.26-9.67,2.19-19.08,5.8-27.98l3.22,1.29c-3.35,8.64-5.29,17.54-5.55,26.82Z" fill="#fff"/><path d="m164.03,54.03c-5.8-6.96-12.77-12.9-20.76-17.54l1.8-3.09c8.25,4.77,15.6,10.96,21.66,18.31l-2.71,2.32Z" fill="#fff"/><path d="m45.65,52.23l-2.58-2.32c6.32-7.22,13.8-13.15,22.18-17.67l1.68,3.09c-8,4.38-15.22,10.06-21.28,16.89Z" fill="#fff"/></g><g opacity=".45"><path d="m152.42,189.3l-1.03-1.81c22.31-12.64,38.3-33.14,45.26-57.9l1.93.51c-7.09,25.27-23.47,46.29-46.17,59.19Z" fill="#fff"/><path d="m187.76,56.74c-12.64-22.31-33.14-38.43-57.77-45.26l.52-1.93c25.15,7.09,46.16,23.47,58.93,46.29l-1.68.9Z" fill="#fff"/><path d="m77.89,198.46c-25.27-6.96-46.29-23.47-59.19-46.29l1.81-1.03c12.64,22.44,33.27,38.56,58.03,45.39l-.64,1.93Z" fill="#fff"/><path d="m11.61,78.02l-1.93-.52c7.09-25.15,23.47-46.16,46.29-58.93l.64.77.52.9h-.13c-22.44,12.64-38.56,33.14-45.39,57.77Z" fill="#fff"/></g><g opacity=".45"><path d="m189.95,104.71v-1.03c-.13-22.95-9.03-44.49-25.4-60.61l-.77-.64,12.77-12.77.77.64c19.73,19.6,30.56,45.65,30.69,73.37v1.03h-18.05Zm-23.21-62.28c15.99,16.25,24.89,37.65,25.27,60.35h14.06c-.39-26.56-10.7-51.45-29.4-70.28l-9.93,9.93Z" fill="#fff"/><path d="m42.55,43.97l-12.77-12.77.77-.77C50.03,10.83,76.08,0,103.93,0h1.03v18.05h-1.03c-22.95,0-44.49,9.03-60.61,25.15l-.77.77Zm-9.93-12.77l9.93,9.93c16.25-15.86,37.65-24.76,60.35-25.02V2.06c-26.56.26-51.45,10.57-70.28,29.14Z" fill="#fff"/><path d="m103.16,208v-18.05h1.03c22.95,0,44.62-9.03,60.87-25.4l.64-.77,12.77,12.77-.65.77c-19.6,19.73-45.78,30.69-73.63,30.69h-1.03Zm1.93-15.99v14.06c26.56-.26,51.58-10.7,70.54-29.4l-9.93-9.93c-16.25,15.99-37.78,25.02-60.61,25.27Z" fill="#fff"/><path d="m31.21,178.34l-.77-.77C10.83,157.97,0,131.92,0,104.19v-1.42l18.05.26v1.42c0,22.82,9.03,44.23,25.15,60.48l.77.77-12.77,12.64ZM2.06,104.84c.26,26.56,10.57,51.58,29.14,70.67l9.93-9.93c-15.99-16.38-24.89-37.78-25.02-60.48l-14.06-.26Z" fill="#fff"/></g></svg>