<svg width="120" height="121" viewBox="0 0 120 121" fill="none" xmlns="http://www.w3.org/2000/svg">
<g clip-path="url(#clip0_39_4788)">
<g opacity="0.35">
<path d="M60 111.583C31.7434 111.583 8.71674 88.5567 8.71674 60.3C8.71674 32.0433 31.7434 9.01671 60 9.01671C88.2567 9.01671 111.283 32.0433 111.283 60.3C111.283 88.5567 88.2567 111.583 60 111.583ZM60 13.2298C33.9952 13.2298 12.8572 34.3678 12.8572 60.3726C12.8572 86.3775 33.9952 107.516 60 107.516C86.0049 107.516 107.143 86.3775 107.143 60.3726C107.143 34.3678 86.0049 13.2298 60 13.2298Z" fill="white"/>
</g>
<g opacity="0.9">
<path d="M60 110.784C32.1792 110.784 9.51575 88.1208 9.51575 60.3C9.51575 32.4792 32.1792 9.81574 60 9.81574C87.8208 9.81574 110.484 32.4792 110.484 60.3C110.484 88.1208 87.8208 110.784 60 110.784ZM60 10.2516C32.3971 10.2516 9.87894 32.6971 9.87894 60.3726C9.87894 88.0482 32.3245 110.494 60 110.494C87.6029 110.494 110.121 88.0482 110.121 60.3726C110.121 32.6971 87.6029 10.2516 60 10.2516Z" fill="white"/>
</g>
<g opacity="0.25">
<path d="M118.475 71.7044L114.407 70.9053C117.24 56.3775 114.262 41.6317 105.981 29.3557L109.467 27.0312C118.329 40.2516 121.525 56.0869 118.475 71.7044Z" fill="white"/>
<path d="M29.201 14.2467L26.8765 10.8327C40.0242 1.97071 55.9322 -1.22542 71.477 1.82543L70.678 5.89322C56.2228 3.06029 41.477 6.0385 29.201 14.2467Z" fill="white"/>
<path d="M60.1453 119.937C56.2954 119.937 52.3729 119.574 48.523 118.775L49.322 114.707C63.8499 117.54 78.6683 114.562 90.9443 106.281L93.2688 109.767C83.3172 116.45 71.8402 119.937 60.1453 119.937Z" fill="white"/>
<path d="M10.46 93.4961C1.6707 80.2758 -1.52543 64.4404 1.52542 48.823V48.6777L5.59322 49.4768V49.622C2.76029 64.0772 5.7385 78.823 13.9467 91.099L10.46 93.4961Z" fill="white"/>
</g>
<g opacity="0.45">
<path d="M112.082 55.2879V54.9247C110.63 41.0506 103.947 28.5567 93.1235 19.6947L92.8329 19.4768L97.9177 13.3024L98.2082 13.5203C110.702 23.6898 118.475 38.0724 120.073 54.1257V54.4889L112.082 55.2879ZM93.7773 19.4768C104.528 28.3387 111.211 40.76 112.736 54.5615L119.346 53.9078C117.676 38.363 110.121 24.3436 97.9903 14.3194L93.7773 19.4768Z" fill="white"/>
<path d="M19.322 27.4671L13.1477 22.3823L13.3656 22.0918C23.5351 9.67046 37.9903 1.89807 53.971 0.300003H54.3341L55.1332 8.29032H54.77C40.8959 9.67046 28.4019 16.4259 19.54 27.1765L19.322 27.4671ZM14.1647 22.3097L19.2494 26.5228C28.1114 15.8448 40.5327 9.16199 54.3341 7.7092L53.6804 1.0264C38.1356 2.6971 24.1162 10.2516 14.1647 22.3097Z" fill="white"/>
<path d="M65.7385 120.3L64.9395 112.31H65.3026C79.2494 110.93 91.7433 104.174 100.605 93.2782L100.823 92.9877L106.998 98.0724L106.78 98.363C96.6102 110.857 82.1549 118.629 66.1017 120.3H65.7385ZM65.6658 112.963L66.3196 119.574C81.937 117.903 96.029 110.348 105.981 98.2177L100.823 94.0046C92.0339 104.755 79.5399 111.511 65.6658 112.963Z" fill="white"/>
<path d="M22.0823 107.152L21.7918 106.934C9.37046 96.7649 1.59806 82.3097 0 66.3291V65.8206L7.99031 65.0942L8.06295 65.6027C9.4431 79.4768 16.1985 91.9707 26.9492 100.76L27.2397 100.978L22.0823 107.152ZM0.726392 66.4743C2.39709 82.1644 9.87893 96.1838 22.0097 106.208L26.2228 101.123C15.5448 92.2613 8.86199 79.7673 7.33656 65.8932L0.726392 66.4743Z" fill="white"/>
</g>
<g opacity="0.65">
<path d="M103.438 60.7358V60.6632C103.438 55.5058 102.567 50.4937 100.823 45.7722L102.639 45.1184C104.455 50.0579 105.4 55.2879 105.4 60.6632V60.8085L103.438 60.7358Z" fill="white"/>
<path d="M51.3559 105.191C46.0532 104.174 40.9685 102.213 36.3196 99.3799L37.3365 97.7092C41.7675 100.397 46.5617 102.285 51.7191 103.23L51.3559 105.191Z" fill="white"/>
<path d="M24.4794 88.9199C21.138 84.7068 18.523 79.9852 16.8523 74.8278L18.7409 74.2467C20.339 79.1136 22.8087 83.6898 26.0048 87.685L24.4794 88.9199Z" fill="white"/>
<path d="M94.5763 90.0094L93.0508 88.7019C96.3922 84.7794 99.0073 80.2758 100.823 75.4816L102.639 76.1354C100.823 81.2927 98.0629 85.9417 94.5763 90.0094Z" fill="white"/>
<path d="M67.1913 105.482L66.9007 103.52C71.9854 102.721 76.9249 100.978 81.4285 98.4356L82.3729 100.106C77.6513 102.794 72.5666 104.61 67.1913 105.482Z" fill="white"/>
<path d="M67.9176 17.8787C62.9055 16.9344 57.8934 16.9344 52.8087 17.7334L52.5181 15.7722C57.7482 14.9005 63.0508 14.9731 68.2808 15.9174L67.9176 17.8787Z" fill="white"/>
<path d="M16.5617 59.3557L14.6005 59.2831C14.7457 53.9078 15.8353 48.6777 17.7966 43.7383L19.6126 44.4647C17.724 49.1862 16.707 54.1983 16.5617 59.3557Z" fill="white"/>
<path d="M93.414 32.7697C90.1453 28.8472 86.2954 25.5785 81.8644 23.0361L82.8087 21.3654C87.385 24.053 91.4528 27.4671 94.8668 31.5349L93.414 32.7697Z" fill="white"/>
<path d="M27.4576 31.7528L26.0048 30.4453C29.5641 26.4501 33.7046 23.1087 38.3535 20.639L39.2978 22.3823C34.8668 24.7794 30.8716 27.9755 27.4576 31.7528Z" fill="white"/>
</g>
<path opacity="0.55" d="M60 21.8012C81.2106 21.8012 98.4988 39.0893 98.4988 60.3C98.4988 81.5107 81.2106 98.7988 60 98.7988C38.7893 98.7988 21.5012 81.5107 21.5012 60.3C21.5012 39.0893 38.7167 21.8012 60 21.8012ZM60 19.622C37.5545 19.622 19.322 37.8545 19.322 60.3C19.322 82.7455 37.5545 100.978 60 100.978C82.4455 100.978 100.678 82.7455 100.678 60.3C100.678 37.8545 82.3729 19.622 60 19.622Z" fill="white"/>
<path d="M40.9685 53.7625H37.4092V68.0724H40.9685V53.7625Z" fill="white"/>
<path d="M30.2906 66.3291H35.6659V55.5785H30.2906V66.3291Z" fill="white"/>
<path d="M57.9661 69.3073V65.4574C57.9661 60.0094 53.5352 55.6511 48.1598 55.6511H42.7845V66.4017H44.6005C46.0533 66.4017 47.2882 67.6366 47.2882 69.0893V69.3073V71.4138V71.7044C47.2882 79.622 53.6804 86.0143 61.5981 86.0143C69.5158 86.0143 75.908 79.622 75.908 71.7044V61.6075V59.501V44.8278H65.0848V59.4283V61.5349V71.6317C65.0848 73.593 63.4867 75.191 61.5255 75.191C59.5642 75.191 57.9661 73.593 57.9661 71.6317V71.3412V69.3073Z" fill="white"/>
<path d="M76.707 41.2685H74.9637V39.5252H73.1477V41.2685H71.3317V39.5252H69.5884V41.2685H67.7724V39.5252H66.0291V41.2685H64.2131V39.5252H62.3971V43.0845H78.523V39.5252H76.707V41.2685Z" fill="white"/>
<path d="M80.339 35.9659H60.6537V37.7818H80.339V35.9659Z" fill="white"/>
</g>
<defs>
<clipPath id="clip0_39_4788">
<rect width="120" height="120" fill="white" transform="translate(0 0.300003)"/>
</clipPath>
</defs>
</svg>
