<svg width="121" height="121" viewBox="0 0 121 121" fill="none" xmlns="http://www.w3.org/2000/svg">
<g clip-path="url(#clip0_39_4789)">
<g opacity="0.7">
<path d="M102.087 42.7724C92.4056 19.6624 65.7823 8.73201 42.6724 18.4132C19.5624 28.0944 8.63202 54.7177 18.3132 77.8277C27.9944 100.938 54.6177 111.868 77.7277 102.187C100.838 92.5056 111.768 65.8823 102.087 42.7724ZM77.1811 100.86C54.8519 110.228 29.0094 99.6884 19.7185 77.2811C10.3496 54.9519 20.8897 29.1094 43.2189 19.8185C65.5481 10.4496 91.3906 20.9897 100.681 43.3969C110.128 65.6481 99.5103 91.4906 77.1811 100.86Z" fill="white"/>
</g>
<g opacity="0.45">
<path d="M70.3106 112.649L69.2176 107.027H69.3737C74.8389 105.934 80.0699 103.983 84.8324 101.094L87.7992 106.012C82.4902 109.213 76.6346 111.478 70.4668 112.649H70.3106Z" fill="white"/>
<path d="M6.8363 60.339C6.8363 53.937 7.92934 47.691 10.1154 41.6793L15.5025 43.7092C13.5507 49.0183 12.5357 54.6396 12.5357 60.339H6.8363Z" fill="white"/>
<path d="M19.4843 25.6741C23.6222 20.8335 28.4628 16.7737 34.0061 13.7288L36.8168 18.7255C31.8981 21.4581 27.526 25.1276 23.8565 29.4217L19.4843 25.6741Z" fill="white"/>
<path d="M34.0842 106.793L36.8948 101.796C41.8916 104.607 47.2006 106.481 52.7439 107.34L51.807 113.039C45.6391 112.024 39.6274 109.916 34.0842 106.793Z" fill="white"/>
<path d="M10.9742 80.8725C10.6619 80.1699 10.3496 79.3891 10.1154 78.6084L15.5025 76.6565C17.4544 81.9656 20.3431 86.8843 24.0126 91.1783L19.6405 94.9259C16.0491 90.7099 13.0822 86.0254 10.9742 80.8725Z" fill="white"/>
<path d="M107.864 59.7144C107.864 56.7476 107.552 53.8589 107.005 51.0482C106.537 48.5498 105.756 45.9734 104.819 43.475L110.207 41.4451C111.221 44.2558 112.08 47.0664 112.627 49.9552C113.251 53.0781 113.564 56.3573 113.642 59.7144H107.864Z" fill="white"/>
<path d="M52.4316 13.1822L51.4948 7.5609C57.7407 6.54594 63.9866 6.54594 70.1545 7.71705L69.0614 13.3384C63.5962 12.3234 57.9749 12.2454 52.4316 13.1822Z" fill="white"/>
<path d="M97.1681 90.3195C100.681 86.0254 103.414 81.1068 105.21 75.7977L110.597 77.6715C108.567 83.6051 105.522 89.0703 101.54 93.9109L97.1681 90.3195Z" fill="white"/>
<path d="M84.364 19.1159L87.2527 14.1972C92.6398 17.3982 97.4023 21.4581 101.384 26.2206L96.9339 29.8901C93.4986 25.596 89.2046 22.0046 84.364 19.1159Z" fill="white"/>
</g>
<g opacity="0.45">
<path d="M59.8487 111.4L59.6925 109.994H59.7706C65.7042 110.072 71.4036 109.057 76.8688 107.105L77.3373 108.433C71.794 110.463 65.8604 111.478 59.8487 111.4Z" fill="white"/>
<path d="M9.95929 50.0333C11.1304 44.0215 13.3946 38.3221 16.5956 33.1692L17.8448 33.95C14.7218 39.0248 12.5357 44.49 11.3646 50.3455L9.95929 50.0333Z" fill="white"/>
<path d="M28.541 19.8966C33.3035 16.1491 38.6906 13.2603 44.4681 11.3865L44.9365 12.7138C39.3152 14.5095 34.0842 17.3202 29.4778 20.9897L28.541 19.8966Z" fill="white"/>
<path d="M26.7452 98.9077L27.6821 97.8147C32.2104 101.718 37.2853 104.763 42.7504 106.793L42.282 108.12C36.5826 106.091 31.3516 102.968 26.7452 98.9077Z" fill="white"/>
<path d="M12.9261 79.8576C11.2865 76.032 10.1935 72.0502 9.56891 67.9122L10.9742 67.678C11.8331 73.5336 13.7849 79.1549 16.6737 84.3859L15.4245 85.0886C14.4876 83.449 13.6288 81.6533 12.9261 79.8576Z" fill="white"/>
<path d="M109.113 69.5518C109.66 66.5069 109.972 63.462 110.05 60.4952C110.05 57.7626 109.894 55.03 109.426 52.2974L110.831 52.0632C111.3 54.8739 111.456 57.6845 111.456 60.4952C111.456 63.6182 111.143 66.7411 110.519 69.8641L109.113 69.5518Z" fill="white"/>
<path d="M61.9567 10.3716L62.0347 8.96624C68.1245 9.20046 73.9801 10.4496 79.6014 12.7138L79.0549 14.0411C73.5897 11.7769 67.8903 10.6058 61.9567 10.3716Z" fill="white"/>
<path d="M91.8591 98.6735C96.3874 95.004 100.135 90.5537 103.102 85.4789L104.351 86.1816C101.306 91.3345 97.4023 95.9409 92.7179 99.6884L91.8591 98.6735Z" fill="white"/>
<path d="M93.4987 23.0977L94.4355 22.0046C98.8858 26.0645 102.633 30.7489 105.444 36.058L104.195 36.7606C101.462 31.6077 97.8708 27.0014 93.4987 23.0977Z" fill="white"/>
</g>
<g opacity="0.3">
<path d="M23.4661 107.73L25.5741 105.076C37.5195 114.288 52.3536 118.348 67.3438 116.474L67.7342 119.832C51.8851 121.861 36.1141 117.567 23.4661 107.73Z" fill="white"/>
<path d="M104.898 95.082C114.188 83.1367 118.248 68.3807 116.374 53.3904L119.732 53.0001C121.683 68.8491 117.389 84.542 107.552 97.19L104.898 95.082Z" fill="white"/>
<path d="M0.668472 67.8342C-1.36146 51.907 3.0107 36.136 12.848 23.488L15.5026 25.596C6.21174 37.5414 2.15188 52.3755 4.02566 67.4438L0.668472 67.8342Z" fill="white"/>
<path d="M53.2124 4.12564L52.822 0.768448C68.6711 -1.18341 84.364 3.11067 97.012 12.948L96.0751 14.3534L95.0601 15.6806L94.9821 15.6025C83.0367 6.31171 68.2026 2.25186 53.2124 4.12564Z" fill="white"/>
</g>
<g opacity="0.5">
<path d="M37.051 114.288L37.3633 113.508C51.5728 119.597 67.2657 119.832 81.6314 114.054L81.9437 114.835C67.4219 120.69 51.4947 120.456 37.051 114.288Z" fill="white"/>
<path d="M113.329 83.2148C119.419 69.0833 119.653 53.3124 113.954 39.0248L114.735 38.7125C120.512 53.3124 120.278 69.2395 114.032 83.6051L113.329 83.2148Z" fill="white"/>
<path d="M5.66519 82.1217C-0.190369 67.5219 0.0438536 51.5167 6.28979 37.0729L7.07053 37.3852C0.902669 51.5947 0.746521 67.3657 6.44594 81.7314L5.66519 82.1217Z" fill="white"/>
<path d="M38.9248 6.46786L38.6125 5.68712C53.1343 -0.0903677 69.1395 0.143855 83.5051 6.38979L83.2709 7.2486H83.1928C68.9833 1.08074 53.2124 0.846523 38.9248 6.46786Z" fill="white"/>
</g>
<path d="M58.4433 37.6975C63.362 38.2441 65.6261 43.475 65.6261 43.475C65.6261 43.475 68.9833 38.7906 73.902 39.3371" stroke="white" stroke-width="3.097" stroke-miterlimit="10"/>
<path d="M78.5084 30.2024C82.0998 31.6077 82.7244 36.058 82.7244 36.058C82.7244 36.058 86.2378 33.2473 89.7511 34.6526" stroke="white" stroke-width="2.4227" stroke-miterlimit="10"/>
<path d="M78.5084 46.0515C82.5683 47.8472 83.0367 53.0001 83.0367 53.0001C83.0367 53.0001 87.1747 49.9552 91.2345 51.829" stroke="white" stroke-width="2.7847" stroke-miterlimit="10"/>
<path d="M95.3724 72.8309C89.9853 69.8641 86.1597 66.4288 82.7244 63.3059C76.8689 57.9968 71.3256 52.922 60.4733 52.922C48.6841 52.922 43.1408 57.6845 36.1141 63.6962C33.0692 66.3508 29.7121 69.1614 25.3399 72.1282V76.9688C31.0393 73.4555 35.0992 69.9422 38.7687 66.8192C45.6392 60.8856 50.1675 57.0599 60.5514 57.0599C69.7641 57.0599 74.2924 61.1979 79.9918 66.3508C84.0517 70.0202 88.5019 74.0801 95.3724 77.4373V72.8309Z" fill="white"/>
<path d="M86.8624 77.5154C83.5052 75.2512 80.9287 72.8309 78.5865 70.4887C73.824 65.8823 69.3737 61.5102 60.5514 61.5102C50.8702 61.5102 46.4199 65.6481 40.7205 70.801C38.4564 72.909 35.8799 75.1731 32.757 77.5154V82.5121C37.2853 79.5453 40.5644 76.5004 43.5312 73.8459C48.9183 68.8491 52.5097 65.57 60.6294 65.57C67.8123 65.57 71.1695 68.8491 75.8539 73.3774C78.8207 76.2662 82.1779 79.4672 87.0185 82.2779V77.5154H86.8624Z" fill="white"/>
<path d="M73.9801 77.5154C70.6229 74.0801 67.1096 70.5668 60.5513 70.5668C53.3685 70.5668 50.2456 73.5336 46.2638 77.3592C45.3269 78.2961 44.2338 79.233 43.1408 80.248V85.557C45.6392 83.6051 47.513 81.8094 49.0744 80.326C52.9001 76.6565 55.0081 74.7047 60.5513 74.7047C65.3919 74.7047 67.9684 77.2031 71.0914 80.4041C72.809 82.1217 74.7608 84.0736 77.1811 85.7131V80.5603C76.0881 79.5453 74.9951 78.5303 73.9801 77.5154Z" fill="white"/>
</g>
<defs>
<clipPath id="clip0_39_4789">
<rect width="120" height="120" fill="white" transform="translate(0.200012 0.300003)"/>
</clipPath>
</defs>
</svg>
