<?xml version="1.0" encoding="UTF-8"?>
<svg xmlns="http://www.w3.org/2000/svg" width="360" height="360" viewBox="0 0 360 360" fill="none">
  <mask id="mask0_1500_62389" style="mask-type:luminance" maskUnits="userSpaceOnUse" x="39" y="60" width="282" height="240">
    <path d="M320.87 60.23H39.1201V299.77H320.87V60.23Z" fill="white"></path>
  </mask>
  <g mask="url(#mask0_1500_62389)">
    <path d="M93.29 276.07C93.29 271.24 97.2 267.33 102.03 267.33C106.86 267.33 110.77 271.24 110.77 276.07C110.77 280.9 106.86 284.81 102.03 284.81C97.2 284.81 93.29 280.9 93.29 276.07ZM85.96 262.48C77.43 271.01 77.43 284.84 85.96 293.37C94.49 301.9 108.32 301.9 116.85 293.37L171.24 238.98L140.35 208.09L85.96 262.48ZM289.25 133.34L271.34 151.25H246.01L228.1 133.34V108.01L246.01 90.1H271.34L289.25 108.01V133.34ZM320.88 121.24C320.88 87.54 293.56 60.23 259.87 60.23C226.18 60.23 198.86 87.55 198.86 121.24C198.86 129.61 200.56 137.58 203.61 144.84L181.9 166.55L212.79 197.44L233.95 176.28C241.84 180.01 250.57 182.25 259.87 182.25C293.57 182.25 320.88 154.93 320.88 121.24Z" fill="white"></path>
    <path d="M240.74 275.19C240.74 279.41 244.16 282.83 248.38 282.83C252.6 282.83 256.02 279.41 256.02 275.19C256.02 270.97 252.6 267.55 248.38 267.55C244.16 267.55 240.74 270.97 240.74 275.19ZM39.1201 125.44C39.1201 120.81 39.7901 116.36 40.8101 112.05L47.9201 119.15L47.9801 119.21L65.9101 137.14H66.8701V138.1L84.8601 156.09H110.31L128.3 138.1V112.65L110.31 94.66H109.35V93.7L91.4201 75.77L91.3601 75.71L84.2801 68.63C88.5701 67.63 93.0001 66.96 97.6001 66.96C129.89 66.96 156.07 93.14 156.07 125.44C156.07 133.85 154.22 141.81 151.02 149.04C152.23 149.83 153.55 150.36 154.61 151.42L266.71 263.52C275 271.81 275 285.25 266.71 293.54C258.42 301.83 244.98 301.83 236.69 293.54L124.59 181.44C123.63 180.48 123.17 179.27 122.43 178.19C114.87 181.76 106.52 183.91 97.6001 183.91C65.3001 183.91 39.1201 157.73 39.1201 125.44Z" fill="white"></path>
  </g>
</svg>
