<svg width="325" height="282" viewBox="0 0 325 282" fill="none" xmlns="http://www.w3.org/2000/svg">
<g clip-path="url(#clip0_1_16)">
<mask id="mask0_1_16" style="mask-type:luminance" maskUnits="userSpaceOnUse" x="0" y="0" width="325" height="282">
<path d="M324.892 0.602936H0.0967712V281.397H324.892V0.602936Z" fill="white"/>
</mask>
<g mask="url(#mask0_1_16)">
<path d="M62.5426 253.615C62.5426 247.954 67.05 243.37 72.6179 243.37C78.1858 243.37 82.6932 247.954 82.6932 253.615C82.6932 259.277 78.1858 263.861 72.6179 263.861C67.05 263.861 62.5426 259.277 62.5426 253.615ZM54.0928 237.685C44.2596 247.684 44.2596 263.896 54.0928 273.895C63.926 283.894 79.8689 283.894 89.7021 273.895L152.402 210.138L116.792 173.928L54.0928 237.685ZM288.441 86.3041L267.795 107.299H238.595L217.949 86.3041V56.6117L238.595 35.6172H267.795L288.441 56.6117V86.3041ZM324.903 72.1202C324.903 32.6163 293.409 0.602936 254.572 0.602936C215.735 0.602936 184.241 32.6281 184.241 72.1202C184.241 81.9317 186.201 91.2743 189.717 99.7847L164.69 125.234L200.3 161.444L224.692 136.639C233.788 141.012 243.852 143.638 254.572 143.638C293.421 143.638 324.903 111.612 324.903 72.1202Z" fill="white"/>
<path d="M232.52 252.584C232.52 257.531 236.462 261.54 241.327 261.54C246.192 261.54 250.134 257.531 250.134 252.584C250.134 247.637 246.192 243.628 241.327 243.628C236.462 243.628 232.52 247.637 232.52 252.584ZM0.0967712 77.0436C0.0967712 71.6162 0.869135 66.3998 2.04497 61.3475L10.2412 69.6703L10.3104 69.7406L30.9797 90.7585H32.0864V91.8839L52.8248 112.972H82.1629L102.901 91.8839V62.0508L82.1629 40.9626H81.0562V39.8372L60.387 18.8193L60.3179 18.7489L52.1562 10.4496C57.1016 9.27738 62.2084 8.492 67.5112 8.492C104.734 8.492 134.914 39.1808 134.914 77.0436C134.914 86.9019 132.781 96.2328 129.092 104.708C130.487 105.634 132.009 106.255 133.231 107.498L262.457 238.904C272.014 248.622 272.014 264.376 262.457 274.094C252.901 283.812 237.407 283.812 227.851 274.094L98.6246 142.688C97.5179 141.563 96.9876 140.144 96.1346 138.878C87.4196 143.063 77.7939 145.583 67.5112 145.583C30.2765 145.583 0.0967712 114.895 0.0967712 77.0436Z" fill="white"/>
</g>
</g>
<defs>
<clipPath id="clip0_1_16">
<rect width="325" height="282" fill="white"/>
</clipPath>
</defs>
</svg>
