<svg width="560" height="560" viewBox="0 0 560 560" fill="none" xmlns="http://www.w3.org/2000/svg">
<g clip-path="url(#clip0_234_51654)">
<g opacity="0.5">
<path d="M280.174 506.188C155.536 506.188 53.8127 404.811 53.8127 279.827C53.8127 154.842 155.189 53.4658 280.174 53.4658C405.158 53.4658 506.534 154.842 506.534 279.827C506.534 404.811 404.811 506.188 280.174 506.188ZM280.174 59.0207C158.314 59.0207 59.3676 157.967 59.3676 279.827C59.3676 401.687 158.314 500.633 280.174 500.633C402.033 500.633 500.979 401.687 500.979 279.827C500.979 157.967 402.033 59.0207 280.174 59.0207Z" fill="black" fill-opacity="0.2"/>
</g>
<g opacity="0.6">
<path d="M280.174 77.0742C168.382 77.0742 77.4209 168.035 77.4209 279.827C77.4209 391.619 168.382 482.58 280.174 482.58C391.965 482.58 482.926 391.619 482.926 279.827C482.926 168.035 391.965 77.0742 280.174 77.0742ZM280.174 472.511C173.937 472.511 87.4891 386.064 87.4891 279.827C87.4891 173.59 173.937 87.1424 280.174 87.1424C386.41 87.1424 472.858 173.59 472.858 279.827C472.858 386.064 386.41 472.511 280.174 472.511Z" fill="black" fill-opacity="0.2"/>
</g>
<g opacity="0.9">
<path d="M490.217 280.521V280.174C490.217 255.177 486.051 231.222 477.719 208.308L486.745 205.184C495.425 229.139 499.938 254.483 499.938 280.174L490.217 280.521Z" fill="black" fill-opacity="0.2"/>
<path d="M238.165 495.425C212.474 490.564 188.171 480.843 165.604 467.303L170.465 459.318C191.99 472.511 215.251 481.538 239.901 486.051L238.165 495.425Z" fill="black" fill-opacity="0.2"/>
<path d="M108.667 416.962C92.3497 396.479 79.8512 373.565 71.8661 348.915L80.8927 345.791C88.5307 369.399 100.682 391.271 116.305 410.713L108.667 416.962Z" fill="black" fill-opacity="0.2"/>
<path d="M447.167 422.17L439.876 415.921C456.193 396.826 468.692 375.301 477.371 352.04L486.398 355.165C477.371 379.814 464.179 402.381 447.167 422.17Z" fill="black" fill-opacity="0.2"/>
<path d="M314.892 496.814L313.503 487.44C338.153 483.621 361.761 475.288 383.633 462.79L388.146 471.122C365.58 483.968 340.93 492.647 314.892 496.814Z" fill="black" fill-opacity="0.2"/>
<path d="M318.363 73.2551C294.061 68.7418 269.758 68.3946 245.456 72.5607L244.067 63.1869C269.411 59.0208 294.755 59.3679 320.099 63.8813L318.363 73.2551Z" fill="black" fill-opacity="0.2"/>
<path d="M70.1302 273.924L60.7563 273.577C61.4507 247.539 66.6584 222.195 76.3794 198.239L85.0589 201.711C76.0322 224.972 70.8245 248.927 70.1302 273.924Z" fill="black" fill-opacity="0.2"/>
<path d="M441.612 145.469C425.989 126.721 407.241 110.751 385.716 98.2522L390.577 89.9199C412.796 102.766 432.585 119.43 448.903 139.219L441.612 145.469Z" fill="black" fill-opacity="0.2"/>
<path d="M122.901 140.608L115.958 134.358C132.97 114.916 153.106 98.9462 175.673 86.7949L180.186 95.1272C158.661 106.931 139.219 122.207 122.901 140.608Z" fill="black" fill-opacity="0.2"/>
</g>
<g opacity="0.45">
<path d="M410.366 509.659L407.588 504.798C467.65 470.775 510.701 415.573 529.448 348.915L534.656 350.304C515.561 418.351 471.469 474.941 410.366 509.659Z" fill="black" fill-opacity="0.2"/>
<path d="M505.493 152.759C471.469 92.697 416.268 49.2996 349.957 30.8991L351.345 25.6914C419.045 44.7863 475.635 88.878 510.006 150.329L505.493 152.759Z" fill="black" fill-opacity="0.2"/>
<path d="M209.696 534.309C141.649 515.561 85.0589 471.122 50.341 409.671L55.2015 406.894C89.2251 467.303 144.774 510.701 211.432 529.101L209.696 534.309Z" fill="black" fill-opacity="0.2"/>
<path d="M31.2461 210.044L26.0385 208.655C45.1333 140.955 89.2251 84.3649 150.676 49.9941L152.412 52.0772L153.8 54.5075H153.453C93.044 88.531 49.6466 143.733 31.2461 210.044Z" fill="black" fill-opacity="0.2"/>
</g>
<g opacity="0.45">
<path d="M511.395 281.91V279.132C511.048 217.335 487.092 159.356 443.001 115.958L440.918 114.222L475.288 79.8516L477.371 81.5875C530.49 134.359 559.653 204.489 560 279.132V281.91H511.395ZM448.903 114.222C491.953 157.967 515.908 215.599 516.95 276.702H554.792C553.751 205.183 525.976 138.178 475.635 87.4895L448.903 114.222Z" fill="black" fill-opacity="0.2"/>
<path d="M114.569 118.388L80.1984 84.0174L82.2814 81.9343C134.705 29.1631 204.836 0 279.826 0H282.604V48.6051H279.826C218.028 48.6051 160.05 72.9076 116.652 116.305L114.569 118.388ZM87.8363 84.0174L114.569 110.75C158.314 68.0471 215.945 44.0918 277.049 43.3974V5.55487C205.53 6.24923 138.524 34.0236 87.8363 84.0174Z" fill="black" fill-opacity="0.2"/>
<path d="M277.743 560V511.395H280.521C342.319 511.395 400.645 487.092 444.389 443.001L446.125 440.917L480.496 475.288L478.76 477.371C425.989 530.49 355.511 560 280.521 560H277.743ZM282.951 516.95V554.792C354.47 554.098 421.823 525.976 472.858 475.635L446.125 448.903C402.381 491.953 344.402 516.255 282.951 516.95Z" fill="black" fill-opacity="0.2"/>
<path d="M84.0174 480.149L81.9343 478.066C29.1631 425.295 0 355.165 0 280.521V276.702L48.6051 277.397V281.215C48.6051 342.666 72.9076 400.298 116.305 444.043L118.388 446.126L84.0174 480.149ZM5.55487 282.257C6.24923 353.776 34.0236 421.129 84.0174 472.511L110.75 445.778C67.6999 401.687 43.7446 344.055 43.3974 282.951L5.55487 282.257Z" fill="black" fill-opacity="0.2"/>
</g>
</g>
<defs>
<clipPath id="clip0_234_51654">
<rect width="560" height="560" fill="white"/>
</clipPath>
</defs>
</svg>
