<svg width="9" height="9" viewBox="0 0 9 9" fill="none" xmlns="http://www.w3.org/2000/svg">
<path d="M3.1838 0.733748C3.05848 0.431027 2.72809 0.269901 2.41235 0.35616L0.980122 0.746768C0.696931 0.82489 0.5 1.08204 0.5 1.375C0.5 5.40151 3.76483 8.66634 7.79135 8.66634C8.0843 8.66634 8.34145 8.46941 8.41957 8.18622L8.81018 6.75399C8.89644 6.43825 8.73531 6.10786 8.43259 5.98254L6.87016 5.33153C6.60487 5.22086 6.29727 5.29735 6.11661 5.52032L5.45909 6.32269C4.31331 5.78073 3.38561 4.85303 2.84365 3.70725L3.64602 3.05135C3.86899 2.86907 3.94549 2.56309 3.83481 2.29781L3.1838 0.735375V0.733748Z" fill="#01437C"/>
</svg>
