<svg width="121" height="117" viewBox="0 0 121 117" fill="none" xmlns="http://www.w3.org/2000/svg">
<g clip-path="url(#clip0_39_4790)">
<g opacity="0.55">
<path d="M103.269 39.9117C93.4825 15.7563 66.5311 4.33884 43.1524 14.4359C19.7738 24.533 8.74466 52.4942 18.5311 76.6495C28.3175 100.805 55.2689 112.222 78.6476 102.125C102.026 92.0282 113.055 64.067 103.269 39.9117ZM77.3272 98.9408C55.6573 108.339 30.6476 97.6981 21.6379 75.3291C12.5505 52.8825 22.8029 27.0184 44.4728 17.6204C66.1427 8.22233 91.1524 18.8631 100.162 41.232C109.172 63.601 98.9971 89.5427 77.3272 98.9408Z" fill="white"/>
</g>
<path opacity="0.3" d="M60.9389 114.941C53.8709 114.941 46.8806 113.543 40.1233 110.669C26.6088 104.921 16.0457 94.1252 10.3758 80.1447C4.70587 66.1641 4.70587 50.7854 10.2981 36.8049C15.8903 22.8243 26.2981 11.8728 39.735 6.04758C53.1719 0.222333 68.0845 0.144663 81.5991 5.89224C95.1136 11.6398 105.677 22.4359 111.347 36.4165C117.017 50.3194 117.017 65.7757 111.502 79.7563C105.987 93.7369 95.502 104.688 81.9874 110.514C75.2301 113.465 68.0845 114.941 60.9389 114.941ZM60.8612 2.39709C53.7932 2.39709 46.7253 3.87282 40.0457 6.7466C26.7641 12.4942 16.434 23.2903 10.9971 37.1155C5.56024 50.9408 5.56024 66.0864 11.1525 79.834C16.7447 93.5815 27.1525 104.3 40.5117 109.892C53.8709 115.562 68.5505 115.484 81.8321 109.737C95.1136 103.989 105.444 93.1932 110.881 79.368C116.318 65.5427 116.318 50.3971 110.725 36.6495C105.133 22.9019 94.7253 12.1835 81.3661 6.59127C74.7641 3.79515 67.7738 2.39709 60.8612 2.39709Z" fill="white"/>
<g opacity="0.3">
<path d="M84.0845 115.562L83.2301 113.543C112.667 100.805 126.57 65.6204 114.22 35.1738L116.162 34.3194C128.978 65.8534 114.609 102.358 84.0845 115.562Z" fill="white"/>
<path d="M5.56023 82.2417C-0.653364 66.9408 -0.653364 50.0864 5.40489 34.7078C11.5408 19.4068 22.9583 7.36796 37.7156 0.999032L38.5699 3.01845C24.3563 9.23204 13.2495 20.7272 7.42431 35.5621C1.59906 50.3971 1.59906 66.6301 7.57965 81.3874L5.56023 82.2417Z" fill="white"/>
</g>
<g opacity="0.75">
<path d="M60.5505 109.504L60.3951 108.028H60.4728C66.1427 108.106 71.7349 107.096 77.0165 105.154L77.4825 106.475C72.0456 108.494 66.3757 109.504 60.5505 109.504Z" fill="white"/>
<path d="M12.3951 48.1447C13.5602 42.1641 15.7349 36.4942 18.8417 31.2903L20.0068 32.067C16.9777 37.0379 14.8806 42.5524 13.7155 48.4553L12.3951 48.1447Z" fill="white"/>
<path d="M30.3369 18.0087C34.9971 14.2029 40.1233 11.4068 45.7156 9.54272L46.1039 10.9408C40.667 12.7272 35.6185 15.5233 31.1136 19.1738L30.3369 18.0087Z" fill="white"/>
<path d="M28.5505 96.999L29.4825 95.9117C33.832 99.7951 38.7252 102.824 44.0845 104.921L43.6184 106.242C38.1039 104.145 33.0553 101.038 28.5505 96.999Z" fill="white"/>
<path d="M15.1913 77.9699C13.6379 74.1641 12.5505 70.1252 11.9291 66.0087L13.3272 65.7757C14.1816 71.6787 16.0456 77.2709 18.8418 82.4748L17.599 83.1738C16.7447 81.4651 15.968 79.7563 15.1913 77.9699Z" fill="white"/>
<path d="M108.162 67.6398C108.706 64.6107 109.017 61.5816 109.017 58.5524C109.017 55.834 108.861 53.1155 108.395 50.3971L109.793 50.1641C110.259 52.9602 110.415 55.834 110.415 58.6301C110.415 61.7369 110.104 64.8437 109.483 67.9505L108.162 67.6398Z" fill="white"/>
<path d="M62.6476 8.45534L62.7253 7.05728C68.5505 7.29029 74.2981 8.53301 79.6573 10.7854L79.1136 12.1058C73.832 9.93107 68.3175 8.68835 62.6476 8.45534Z" fill="white"/>
<path d="M91.4631 96.766C95.8126 93.0379 99.4631 88.6107 102.337 83.6398L103.502 84.3388C100.551 89.5427 96.7447 94.0476 92.3175 97.8534L91.4631 96.766Z" fill="white"/>
<path d="M93.0942 21.1932L94.0262 20.1058C98.3757 24.1447 101.949 28.8825 104.667 34.0864L103.424 34.7854C100.783 29.7369 97.2884 25.0767 93.0942 21.1932Z" fill="white"/>
</g>
<g opacity="0.55">
<path d="M18.065 94.9796C19.1374 94.9796 20.0068 94.0755 20.0068 92.9602C20.0068 91.8449 19.1374 90.9408 18.065 90.9408C16.9926 90.9408 16.1233 91.8449 16.1233 92.9602C16.1233 94.0755 16.9926 94.9796 18.065 94.9796Z" fill="white"/>
<path d="M23.0359 100.727C24.1083 100.727 24.9777 99.8231 24.9777 98.7078C24.9777 97.5925 24.1083 96.6883 23.0359 96.6883C21.9635 96.6883 21.0942 97.5925 21.0942 98.7078C21.0942 99.8231 21.9635 100.727 23.0359 100.727Z" fill="white"/>
<path d="M28.7835 105.62C29.8559 105.62 30.7252 104.716 30.7252 103.601C30.7252 102.486 29.8559 101.582 28.7835 101.582C27.7111 101.582 26.8417 102.486 26.8417 103.601C26.8417 104.716 27.7111 105.62 28.7835 105.62Z" fill="white"/>
<path d="M35.0747 109.737C36.1471 109.737 37.0165 108.833 37.0165 107.717C37.0165 106.602 36.1471 105.698 35.0747 105.698C34.0023 105.698 33.133 106.602 33.133 107.717C33.133 108.833 34.0023 109.737 35.0747 109.737Z" fill="white"/>
<path d="M41.832 112.921C42.9044 112.921 43.7738 112.017 43.7738 110.902C43.7738 109.787 42.9044 108.883 41.832 108.883C40.7596 108.883 39.8903 109.787 39.8903 110.902C39.8903 112.017 40.7596 112.921 41.832 112.921Z" fill="white"/>
<path d="M48.9777 115.096C50.0501 115.096 50.9194 114.192 50.9194 113.077C50.9194 111.961 50.0501 111.057 48.9777 111.057C47.9053 111.057 47.0359 111.961 47.0359 113.077C47.0359 114.192 47.9053 115.096 48.9777 115.096Z" fill="white"/>
<path d="M56.3563 116.183C57.4287 116.183 58.298 115.279 58.298 114.164C58.298 113.049 57.4287 112.145 56.3563 112.145C55.2839 112.145 54.4146 113.049 54.4146 114.164C54.4146 115.279 55.2839 116.183 56.3563 116.183Z" fill="white"/>
<path d="M103.347 25.5427C104.419 25.5427 105.288 24.6386 105.288 23.5233C105.288 22.408 104.419 21.5039 103.347 21.5039C102.274 21.5039 101.405 22.408 101.405 23.5233C101.405 24.6386 102.274 25.5427 103.347 25.5427Z" fill="white"/>
<path d="M98.3757 19.8728C99.4481 19.8728 100.317 18.9687 100.317 17.8534C100.317 16.7381 99.4481 15.834 98.3757 15.834C97.3033 15.834 96.434 16.7381 96.434 17.8534C96.434 18.9687 97.3033 19.8728 98.3757 19.8728Z" fill="white"/>
<path d="M92.6281 14.9019C93.7005 14.9019 94.5699 13.9978 94.5699 12.8825C94.5699 11.7672 93.7005 10.8631 92.6281 10.8631C91.5558 10.8631 90.6864 11.7672 90.6864 12.8825C90.6864 13.9978 91.5558 14.9019 92.6281 14.9019Z" fill="white"/>
<path d="M86.3369 10.8631C87.4093 10.8631 88.2786 9.95899 88.2786 8.84369C88.2786 7.7284 87.4093 6.82427 86.3369 6.82427C85.2645 6.82427 84.3951 7.7284 84.3951 8.84369C84.3951 9.95899 85.2645 10.8631 86.3369 10.8631Z" fill="white"/>
<path d="M79.5796 7.67864C80.652 7.67864 81.5213 6.77452 81.5213 5.65923C81.5213 4.54393 80.652 3.63981 79.5796 3.63981C78.5072 3.63981 77.6378 4.54393 77.6378 5.65923C77.6378 6.77452 78.5072 7.67864 79.5796 7.67864Z" fill="white"/>
<path d="M72.434 5.50389C73.5064 5.50389 74.3757 4.59976 74.3757 3.48447C74.3757 2.36918 73.5064 1.46505 72.434 1.46505C71.3616 1.46505 70.4922 2.36918 70.4922 3.48447C70.4922 4.59976 71.3616 5.50389 72.434 5.50389Z" fill="white"/>
<path d="M65.0553 4.33884C66.1277 4.33884 66.9971 3.43471 66.9971 2.31942C66.9971 1.20413 66.1277 0.300003 65.0553 0.300003C63.9829 0.300003 63.1136 1.20413 63.1136 2.31942C63.1136 3.43471 63.9829 4.33884 65.0553 4.33884Z" fill="white"/>
</g>
<path d="M43.1524 54.6689C41.7544 53.9699 40.2787 53.4262 38.6476 53.0379C40.201 53.4262 41.6767 54.0476 43.1524 54.6689Z" fill="white"/>
<path d="M80.5893 53.8146C80.7447 53.7369 80.9 53.7369 81.0553 53.6592C80.9 53.6592 80.7447 53.7369 80.5893 53.8146Z" fill="white"/>
<path d="M81.0554 53.6592C83.2301 52.8825 85.6379 52.4165 88.2787 52.4165H87.6573C85.4049 52.3388 83.2301 52.8825 81.0554 53.6592Z" fill="white"/>
<path d="M33.9874 52.3388H33.5214C35.3854 52.3388 37.0942 52.5718 38.6476 53.0379C37.1718 52.5718 35.6184 52.3388 33.9874 52.3388Z" fill="white"/>
<path d="M79.8126 53.8922C74.1427 56.067 70.1039 60.3388 67.2301 64.999C69.7932 64.067 77.0942 57.0767 86.5699 57.0767H96.434V52.4942H87.1913C84.6282 52.5718 82.2981 52.9602 80.2786 53.7369C80.1233 53.8146 79.968 53.8146 79.8126 53.8922Z" fill="white"/>
<path d="M74.6864 70.7466C78.8029 68.4942 82.6864 66.3971 86.6476 66.3971V61.8146C81.599 61.8146 77.0942 64.3 72.667 66.7078C69.8709 68.2612 67.1524 69.6592 64.5117 70.4359C63.735 72.2223 63.1136 73.9311 62.5699 75.4845C66.8418 75.0185 70.8029 72.8437 74.6864 70.7466Z" fill="white"/>
<path d="M49.0553 66.7078C44.6282 64.3 40.0456 61.8146 35.0748 61.8146H34.2204V66.3971H35.0748C38.9583 66.3971 42.9194 68.4942 47.0359 70.7466C50.9194 72.8437 54.8806 75.0185 59.1524 75.4845C58.6864 73.9311 58.0651 72.2223 57.2884 70.4359C54.5699 69.6592 51.8515 68.1835 49.0553 66.7078Z" fill="white"/>
<path d="M56.434 36.6495C56.434 31.601 60.8612 27.4068 60.8612 27.4068C60.8612 27.4068 65.2884 31.5233 65.2884 36.6495C65.2884 41.6981 60.8612 45.8922 60.8612 45.8922C60.8612 45.8922 56.434 41.7757 56.434 36.6495Z" fill="white"/>
<path d="M72.667 75.8728C71.4243 76.5719 70.1039 77.2709 68.8612 77.8922C65.599 79.4456 63.1136 80.2223 60.9388 80.2223C58.6864 80.2223 56.2786 79.5233 53.0165 77.9699C51.7738 77.3485 50.4534 76.6495 49.133 75.9505C47.1913 74.8631 45.1719 73.8534 43.1524 72.999V78.0476C44.3952 78.6689 45.7155 79.368 47.0359 80.067C48.3563 80.766 49.7544 81.5427 51.0748 82.1641C53.7155 83.4068 57.133 84.8825 60.9388 84.8825C64.667 84.8825 68.1621 83.4068 70.8029 82.1641C72.1233 81.5427 73.5214 80.766 74.7641 80.067C76.0845 79.368 77.4049 78.6689 78.7252 78.0476V72.999C76.6282 73.6981 74.6087 74.7854 72.667 75.8728Z" fill="white"/>
<path d="M41.8321 53.8922C47.502 56.067 51.5408 60.3388 54.4146 64.999C51.8515 64.067 44.5505 57.1544 35.0748 57.1544H25.2107V52.5718H34.4534C37.0165 52.6495 39.3466 53.0379 41.366 53.8146C41.599 53.8146 41.7544 53.8146 41.8321 53.8922Z" fill="white"/>
<path d="M75.6961 41.6981C75.6961 41.6981 69.7156 41.3874 66.2981 44.9602C62.8806 48.4553 63.0359 54.3583 63.1136 54.6689H58.6864C58.6864 54.5913 58.9971 48.4553 55.502 44.8825C52.0068 41.3097 46.1039 41.6204 46.1039 41.6204C46.1039 41.6204 45.7932 47.7563 49.2107 51.4068C52.5505 54.9019 58.2981 54.6689 58.6088 54.6689L58.9194 63.9117C58.9194 64.999 59.7738 65.7757 60.7835 65.7757C61.7932 65.7757 62.6476 64.9214 62.6476 63.9117L63.1136 54.7466C63.1913 54.7466 69.0942 55.0573 72.5117 51.4845C76.0068 47.834 75.6961 41.6981 75.6961 41.6981Z" fill="white"/>
</g>
<defs>
<clipPath id="clip0_39_4790">
<rect width="120" height="115.961" fill="white" transform="translate(0.900024 0.300003)"/>
</clipPath>
</defs>
</svg>
