<?xml version="1.0" encoding="utf-8"?>
<!-- Generator: Adobe Illustrator 27.7.0, SVG Export Plug-In . SVG Version: 6.00 Build 0)  -->
<svg version="1.1" id="Layer_1" xmlns="http://www.w3.org/2000/svg" xmlns:xlink="http://www.w3.org/1999/xlink" x="0px" y="0px"
	 viewBox="0 0 68.1 73.6" style="enable-background:new 0 0 68.1 73.6;" xml:space="preserve">
<style type="text/css">
	.st0{clip-path:url(#SVGID_00000145038565671498730630000016609242803225286828_);fill:#FFFFFF;}
</style>
<g>
	<defs>
		<rect id="SVGID_1_" width="68.1" height="73.6"/>
	</defs>
	<clipPath id="SVGID_00000183210851891451810790000004627671598212777878_">
		<use xlink:href="#SVGID_1_"  style="overflow:visible;"/>
	</clipPath>
	<path style="clip-path:url(#SVGID_00000183210851891451810790000004627671598212777878_);fill:#FFFFFF;" d="M2.4,24.7
		c-1.1-0.5-2.1,0.1-2.1,1.3L0,57.6c0,1.2,0.9,2.7,2,3.2l27.6,12.6c1.1,0.5,2.1-0.1,2.1-1.3V40.5c0-1.2-0.9-2.7-2-3.2L2.4,24.7z"/>
	<path style="clip-path:url(#SVGID_00000183210851891451810790000004627671598212777878_);fill:#FFFFFF;" d="M65.7,24.7
		c1.1-0.5,2.1,0.1,2.1,1.3l0.4,31.6c0,1.2-0.9,2.7-2,3.2L38.5,73.4c-1.1,0.5-2.1-0.1-2.1-1.3V40.5c0-1.2,0.9-2.7,2-3.2L65.7,24.7z"
		/>
	<path style="clip-path:url(#SVGID_00000183210851891451810790000004627671598212777878_);fill:#FFFFFF;" d="M65.8,15.5
		c1.1,0.6,1.1,1.5,0,2L36,32.6c-1.1,0.6-2.9,0.6-4,0L2,17.5c-1.1-0.6-1.1-1.5,0-2L32,0.4c1.1-0.6,2.9-0.6,4,0L65.8,15.5z"/>
</g>
</svg>
