<?xml version="1.0" encoding="UTF-8"?>
<!-- Generator: Adobe Illustrator 27.7.0, SVG Export Plug-In . SVG Version: 6.00 Build 0)  -->
<svg xmlns="http://www.w3.org/2000/svg" xmlns:xlink="http://www.w3.org/1999/xlink" version="1.1" id="Layer_1" x="0px" y="0px" viewBox="0 0 96.5 155.5" style="enable-background:new 0 0 96.5 155.5;" xml:space="preserve">
<style type="text/css">
	.st0{fill:#FFFFFF;}
	.st1{clip-path:url(#SVGID_00000058554489050403865100000012888944445914387888_);fill:#FFFFFF;}
	.st2{clip-path:url(#SVGID_00000151537917242184548000000001267641667142820784_);fill:#FFFFFF;}
</style>
<g>
	<rect x="52" class="st0" width="14.2" height="15.3"></rect>
	<g>
		<rect y="131.8" class="st0" width="96.5" height="17.3"></rect>
		<rect x="21.1" y="121.1" class="st0" width="17.3" height="9.5"></rect>
		<g>
			<defs>
				<rect id="SVGID_1_" y="0" width="96.5" height="155.5"></rect>
			</defs>
			<clipPath id="SVGID_00000053519065691900604300000005074515999437736600_">
				<use xlink:href="#SVGID_1_" style="overflow:visible;"></use>
			</clipPath>
			<path style="clip-path:url(#SVGID_00000053519065691900604300000005074515999437736600_);fill:#FFFFFF;" d="M23.6,115.4     c-1.4,0-2.5,1.1-2.5,2.5s1.1,2.5,2.5,2.5h57.6c1.4,0,2.5-1.1,2.5-2.5s-1.1-2.5-2.5-2.5H23.6z"></path>
			<path style="clip-path:url(#SVGID_00000053519065691900604300000005074515999437736600_);fill:#FFFFFF;" d="M86.2,148.6     c0-1.4-1.1-2.5-2.5-2.5s-2.5,1.1-2.5,2.5v4.5c0,1.4,1.1,2.5,2.5,2.5s2.5-1.1,2.5-2.5V148.6z"></path>
			<path style="clip-path:url(#SVGID_00000053519065691900604300000005074515999437736600_);fill:#FFFFFF;" d="M14.7,54.4     c0-1.4-1.1-2.5-2.5-2.5S9.7,53,9.7,54.4V153c0,1.4,1.1,2.5,2.5,2.5s2.5-1.1,2.5-2.5V54.4z"></path>
			<path style="clip-path:url(#SVGID_00000053519065691900604300000005074515999437736600_);fill:#FFFFFF;" d="M69.4,71.3v-54H49.2     v7.4c5.8,1.1,10.2,6.1,10.2,12.2S55,48.1,49.2,49.1v22.2H69.4z"></path>
		</g>
		<rect x="49.2" y="103" class="st0" width="20.2" height="10.6"></rect>
		<g>
			<defs>
				<rect id="SVGID_00000178182873820874300400000016682415251829142948_" y="0" width="96.5" height="155.5"></rect>
			</defs>
			<clipPath id="SVGID_00000141447098900222098870000007723652052298714028_">
				<use xlink:href="#SVGID_00000178182873820874300400000016682415251829142948_" style="overflow:visible;"></use>
			</clipPath>
			<path style="clip-path:url(#SVGID_00000141447098900222098870000007723652052298714028_);fill:#FFFFFF;" d="M87.2,73.7H31.7     c0,15.3,12.4,27.8,27.8,27.8C74.8,101.5,87.2,89,87.2,73.7"></path>
			<path style="clip-path:url(#SVGID_00000141447098900222098870000007723652052298714028_);fill:#FFFFFF;" d="M36.1,31H36     C10.4,33.3,9.7,53.9,9.7,53.9c0.4,1.3,5,0.3,5,0.3s0.4-7.2,6.8-12.7c4.3-3.7,9.9-4.9,13.2-5.3C34.7,34.3,35.3,32.5,36.1,31"></path>
			<path style="clip-path:url(#SVGID_00000141447098900222098870000007723652052298714028_);fill:#FFFFFF;" d="M47,44.1     c4,0,7.2-3.2,7.2-7.2S51,29.7,47,29.7s-7.2,3.2-7.2,7.2S43,44.1,47,44.1"></path>
		</g>
	</g>
</g>
</svg>
