<?xml version="1.0" encoding="UTF-8"?>
<!-- Generator: Adobe Illustrator 27.7.0, SVG Export Plug-In . SVG Version: 6.00 Build 0)  -->
<svg xmlns="http://www.w3.org/2000/svg" xmlns:xlink="http://www.w3.org/1999/xlink" version="1.1" id="Layer_1" x="0px" y="0px" viewBox="0 0 73.1 72.7" style="enable-background:new 0 0 73.1 72.7;" xml:space="preserve">
<style type="text/css">
	.st0{clip-path:url(#SVGID_00000065042314379616321920000005756275363163345294_);fill:#FFFFFF;}
</style>
<g>
	<defs>
		<rect id="SVGID_1_" width="73.1" height="72.7"></rect>
	</defs>
	<clipPath id="SVGID_00000127023770065609480770000008699242200863328430_">
		<use xlink:href="#SVGID_1_" style="overflow:visible;"></use>
	</clipPath>
	<path style="clip-path:url(#SVGID_00000127023770065609480770000008699242200863328430_);fill:#FFFFFF;" d="M58.4,36.3   c0,12.1-9.8,21.9-21.9,21.9c-12.1,0-21.9-9.8-21.9-21.9s9.8-21.9,21.9-21.9C48.6,14.5,58.4,24.3,58.4,36.3 M65.6,36.1l7.4-8.3   l-4.5-10l-11.7-1L56.1,4.3L45.9,0.4l-9.2,7.8L27.4,0l-10,4.5l-1,11.7L3.9,16.9L0,27.1l8.2,9.7L0,46l4.5,10l11.6,1l0.7,11.1L27,72   l9-7.6l9.3,8.3l10-4.5l1-12.3l12.9-0.8L73.1,45L65.6,36.1z"></path>
	<path style="clip-path:url(#SVGID_00000127023770065609480770000008699242200863328430_);fill:#FFFFFF;" d="M37.7,41.8v-1.5   c0-1.3,0.9-2.2,1.8-2.7l2.6-1.7c2.8-1.8,3.8-3.9,3.8-7.1c0-5.1-2.3-7-6.9-7H27.1v5.8h8.2c2,0,3,0.5,3,2.7c0,1.9-0.5,2.5-2.1,3.5   l-2,1.2c-2,1.2-3.2,2.3-3.2,4.9v1.9H37.7z M31.1,50.9h6.6v-6.4h-6.6V50.9z"></path>
</g>
</svg>
