<svg width="121" height="121" viewBox="0 0 121 121" fill="none" xmlns="http://www.w3.org/2000/svg">
<g clip-path="url(#clip0_39_4791)">
<g opacity="0.5">
<path d="M60.4372 108.769C33.7292 108.769 11.9313 87.0452 11.9313 60.2628C11.9313 33.4804 33.6548 11.7569 60.4372 11.7569C87.2196 11.7569 108.943 33.4804 108.943 60.2628C108.943 87.0452 87.1452 108.769 60.4372 108.769ZM60.4372 12.9472C34.3244 12.9472 13.1217 34.15 13.1217 60.2628C13.1217 86.3756 34.3244 107.578 60.4372 107.578C86.55 107.578 107.753 86.3756 107.753 60.2628C107.753 34.15 86.55 12.9472 60.4372 12.9472Z" fill="white"/>
</g>
<g opacity="0.6">
<path d="M60.4372 16.8158C36.4819 16.8158 16.9902 36.3074 16.9902 60.2628C16.9902 84.2182 36.4819 103.71 60.4372 103.71C84.3926 103.71 103.884 84.2182 103.884 60.2628C103.884 36.3074 84.3926 16.8158 60.4372 16.8158ZM60.4372 101.552C37.6722 101.552 19.1477 83.0278 19.1477 60.2628C19.1477 37.4978 37.6722 18.9733 60.4372 18.9733C83.2023 18.9733 101.727 37.4978 101.727 60.2628C101.727 83.0278 83.2023 101.552 60.4372 101.552Z" fill="white"/>
</g>
<g opacity="0.9">
<path d="M105.447 60.4116V60.3372C105.447 54.9807 104.554 49.8474 102.768 44.9373L104.703 44.2678C106.562 49.4011 107.53 54.8319 107.53 60.3372L105.447 60.4116Z" fill="white"/>
<path d="M51.4354 106.462C45.9301 105.421 40.7224 103.338 35.8867 100.436L36.9283 98.7253C41.5408 101.552 46.5253 103.487 51.8074 104.454L51.4354 106.462Z" fill="white"/>
<path d="M23.6858 89.649C20.1892 85.2597 17.511 80.3496 15.7999 75.0675L17.7342 74.398C19.3709 79.4569 21.9747 84.1438 25.3225 88.3099L23.6858 89.649Z" fill="white"/>
<path d="M96.2215 90.765L94.6592 89.4259C98.1558 85.3341 100.834 80.7216 102.694 75.7371L104.628 76.4066C102.694 81.6887 99.8669 86.5244 96.2215 90.765Z" fill="white"/>
<path d="M67.8768 106.76L67.5792 104.751C72.8613 103.933 77.9202 102.147 82.6071 99.4692L83.5742 101.255C78.7385 104.007 73.4564 105.867 67.8768 106.76Z" fill="white"/>
<path d="M68.6207 15.9975C63.4131 15.0303 58.2054 14.9559 52.9977 15.8487L52.7001 13.84C58.131 12.9472 63.5618 13.0216 68.9927 13.9888L68.6207 15.9975Z" fill="white"/>
<path d="M15.4279 58.9981L13.4193 58.9237C13.568 53.344 14.684 47.9131 16.767 42.7799L18.6269 43.5238C16.6927 48.5083 15.5767 53.6416 15.4279 58.9981Z" fill="white"/>
<path d="M95.0311 31.4717C91.6833 27.4544 87.666 24.0322 83.0535 21.3539L84.095 19.5684C88.8563 22.3211 93.0969 25.8921 96.5935 30.1326L95.0311 31.4717Z" fill="white"/>
<path d="M26.736 30.4302L25.2481 29.0911C28.8935 24.9249 33.2085 21.5027 38.0442 18.8989L39.0113 20.6844C34.3988 23.2138 30.2326 26.4872 26.736 30.4302Z" fill="white"/>
</g>
<g opacity="0.45">
<path d="M88.3355 109.513L87.7404 108.471C100.611 101.18 109.836 89.3515 113.853 75.0675L114.969 75.3651C110.877 89.9466 101.429 102.073 88.3355 109.513Z" fill="white"/>
<path d="M108.72 33.034C101.429 20.1636 89.6003 10.8642 75.3907 6.92121L75.6883 5.80527C90.1954 9.89703 102.322 19.3453 109.687 32.5133L108.72 33.034Z" fill="white"/>
<path d="M45.3349 114.795C30.7534 110.777 18.6269 101.255 11.1874 88.0867L12.2289 87.4916C19.5197 100.436 31.423 109.736 45.7069 113.679L45.3349 114.795Z" fill="white"/>
<path d="M7.09561 45.3093L5.97968 45.0117C10.0714 30.5046 19.5197 18.3781 32.6877 11.013L33.0597 11.4593L33.3572 11.9801H33.2828C20.338 19.2709 11.0386 31.0998 7.09561 45.3093Z" fill="white"/>
</g>
<g opacity="0.45">
<path d="M109.985 60.7092V60.114C109.91 46.8716 104.777 34.4476 95.3287 25.1481L94.8824 24.7761L102.248 17.411L102.694 17.783C114.076 29.0911 120.326 44.119 120.4 60.114V60.7092H109.985ZM96.5935 24.7761C105.819 34.15 110.952 46.4996 111.175 59.5932H119.284C119.061 44.2678 113.109 29.9094 102.322 19.0477L96.5935 24.7761Z" fill="white"/>
<path d="M24.9505 25.6689L17.5854 18.3037L18.0318 17.8573C29.2655 6.54923 44.2934 0.300003 60.3628 0.300003H60.958V10.7154H60.3628C47.1204 10.7154 34.6964 15.9231 25.3969 25.2225L24.9505 25.6689ZM19.2221 18.3037L24.9505 24.0322C34.3244 14.8815 46.674 9.74824 59.7677 9.59944V1.49033C44.4422 1.63912 30.0838 7.59077 19.2221 18.3037Z" fill="white"/>
<path d="M59.9164 120.3V109.885H60.5116C73.754 109.885 86.2525 104.677 95.6263 95.2287L95.9983 94.7823L103.363 102.147L102.991 102.594C91.6833 113.976 76.581 120.3 60.5116 120.3H59.9164ZM61.0324 111.075V119.184C76.3579 119.035 90.7906 113.009 101.727 102.222L95.9983 96.4934C86.6244 105.718 74.2004 110.926 61.0324 111.075Z" fill="white"/>
<path d="M18.4037 103.189L17.9574 102.743C6.64925 91.4345 0.400024 76.4066 0.400024 60.4116V59.5932L10.8154 59.742V60.5604C10.8154 73.7284 16.0231 86.0781 25.3225 95.4519L25.7689 95.8983L18.4037 103.189ZM1.59035 60.7836C1.73914 76.1091 7.69079 90.5418 18.4037 101.552L24.1322 95.8239C14.9072 86.3756 9.77386 74.026 9.69947 60.9324L1.59035 60.7836Z" fill="white"/>
</g>
<path d="M76.8786 60.3372C76.7298 60.4116 76.6554 60.4116 76.5067 60.486C76.6554 60.4116 76.8042 60.4116 76.8786 60.3372Z" fill="white"/>
<path d="M46.0789 61.1556C44.8886 60.6348 43.6982 60.1884 42.4335 59.8164C41.0944 59.5188 39.7553 59.2957 38.2674 59.2957H30.2326V63.0898H38.5649C41.9127 63.0898 45.6325 64.3546 49.2035 66.14C51.2866 67.1816 55.0807 69.5622 55.0807 69.5622C52.9233 66.2144 50.0219 63.0898 46.0789 61.1556Z" fill="white"/>
<path d="M60.4372 85.7805C56.2711 85.7805 52.2537 83.7718 48.3108 81.8375C44.591 79.9776 41.0944 78.2665 37.7466 78.2665H30.2326V74.4723H37.821C42.0615 74.4723 46.0789 76.481 50.0218 78.4153C53.6672 80.2008 57.1638 81.9863 60.4372 81.9863C63.7106 81.9863 67.1328 80.2752 70.7782 78.4897C74.7212 76.5554 78.8129 74.4723 83.0535 74.4723C83.0535 74.4723 83.0535 74.4723 83.1279 74.4723H90.7162V78.2665H83.1279C79.7057 78.2665 76.2091 79.9776 72.4893 81.8375C68.6207 83.7718 64.6034 85.7805 60.4372 85.7805Z" fill="white"/>
<path d="M60.4372 78.2665C56.2711 78.2665 52.2537 76.2578 48.3108 74.3236C44.591 72.4637 41.0944 70.7526 37.7466 70.7526H30.2326V66.9584H37.821C42.0615 66.9584 46.0789 68.9671 50.0218 70.9014C53.6672 72.7613 57.1638 74.4723 60.4372 74.4723C63.7106 74.4723 67.1328 72.7613 70.7782 70.9758C74.7212 69.0415 78.8129 66.9584 83.0535 66.9584C83.0535 66.9584 83.0535 66.9584 83.1279 66.9584H90.7162V70.7526H83.1279C79.7057 70.7526 76.2091 72.4637 72.4893 74.3236C68.6207 76.2578 64.6034 78.2665 60.4372 78.2665Z" fill="white"/>
<path d="M65.8681 69.6366C65.8681 69.6366 69.6623 67.3304 71.7454 66.2144C75.2419 64.3546 79.0361 63.1642 82.3839 63.1642H90.7162V59.3701H82.7559C81.268 59.3701 79.8545 59.5932 78.5897 59.8908C77.325 60.1884 76.1347 60.6348 74.9444 61.2299C70.927 63.0898 68.0256 66.2144 65.8681 69.6366Z" fill="white"/>
<path d="M61.1068 28.7191C61.1068 28.3471 60.8092 27.9751 60.3628 27.9751C59.9909 27.9751 59.6189 28.2727 59.6189 28.7191C59.6189 32.5133 49.4267 39.9528 49.4267 47.2436C49.4267 53.2696 54.3368 58.1797 60.3628 58.1797C66.3889 58.1797 71.299 53.2696 71.299 47.2436C71.3734 39.804 61.1068 32.4389 61.1068 28.7191Z" fill="white"/>
</g>
<defs>
<clipPath id="clip0_39_4791">
<rect width="120" height="120" fill="white" transform="translate(0.400024 0.300003)"/>
</clipPath>
</defs>
</svg>
